M48
; DRILL file {KiCad 9.0.7} date 2026-03-12T23:14:13+0100
; FORMAT={-:-/ absolute / metric / decimal}
; #@! TF.CreationDate,2026-03-12T23:14:13+01:00
; #@! TF.GenerationSoftware,Kicad,Pcbnew,9.0.7
; #@! TF.FileFunction,Plated,1,2,PTH
FMAT,2
METRIC
; #@! TA.AperFunction,Plated,PTH,ViaDrill
T1C0.300
; #@! TA.AperFunction,Plated,PTH,ComponentDrill
T2C1.190
; #@! TA.AperFunction,Plated,PTH,ComponentDrill
T3C1.400
; #@! TA.AperFunction,Plated,PTH,ComponentDrill
T4C3.200
%
G90
G05
T1
X31.0Y-51.0
X31.0Y-53.54
X31.0Y-56.08
X31.0Y-58.62
X31.0Y-63.7
X31.0Y-68.78
X31.0Y-71.32
X31.0Y-73.86
X31.0Y-74.0
X32.84Y-58.5
X33.54Y-51.0
X33.54Y-74.0
X35.38Y-58.5
X36.08Y-51.0
X36.08Y-74.0
X37.92Y-58.5
X38.608Y-71.12
X38.608Y-72.644
X38.62Y-51.0
X38.62Y-74.0
X40.46Y-58.5
X41.148Y-71.12
X41.148Y-72.644
X41.16Y-51.0
X41.16Y-74.0
X43.0Y-58.5
X43.688Y-71.12
X43.688Y-72.644
X43.7Y-51.0
X43.7Y-74.0
X45.0Y-64.5
X45.0Y-65.5
X45.0Y-66.5
X45.0Y-67.5
X46.228Y-71.12
X46.228Y-72.644
X46.24Y-51.0
X46.24Y-74.0
X48.5Y-57.0
X48.5Y-59.0
X48.768Y-71.12
X48.768Y-72.644
X48.78Y-51.0
X48.78Y-74.0
X49.5Y-57.5
X49.5Y-58.5
X49.5Y-59.5
X50.5Y-59.0
X51.308Y-69.596
X51.308Y-71.12
X51.308Y-72.644
X51.32Y-51.0
X51.32Y-74.0
X52.0Y-62.0
X52.0Y-63.0
X52.0Y-64.0
X52.5Y-56.0
X52.537Y-56.5
X52.537Y-57.0
X52.537Y-57.5
X52.537Y-58.0
X53.5Y-62.0
X53.5Y-63.0
X53.5Y-64.0
X53.848Y-69.596
X53.848Y-71.12
X53.848Y-72.644
X53.86Y-51.0
X53.86Y-74.0
X55.0Y-63.0
X55.0Y-64.0
X55.0Y-65.0
X55.5Y-57.5
X55.5Y-58.0
X55.5Y-58.5
X56.0Y-55.5
X56.0Y-56.0
X56.4Y-51.0
X56.4Y-74.0
X56.5Y-64.0
X56.5Y-65.0
X58.5Y-57.0
X58.5Y-57.5
X58.5Y-58.0
X58.5Y-71.0
X58.5Y-71.5
X58.5Y-72.0
X58.94Y-51.0
X58.94Y-74.0
X59.7Y-66.875
X60.0Y-61.0
X60.0Y-62.0
X60.0Y-63.0
X60.0Y-64.0
X60.0Y-65.0
X60.5Y-57.5
X60.5Y-66.875
X61.0Y-57.0
X61.0Y-58.0
X61.0Y-60.5
X61.0Y-64.0
X61.0Y-65.0
X61.3Y-66.9
X61.48Y-51.0
X61.48Y-74.0
X62.1Y-66.9
X63.8Y-62.0
X63.8Y-63.0
X63.8Y-64.0
X63.8Y-65.0
X64.02Y-51.0
X64.02Y-74.0
X64.42Y-55.5
X64.42Y-56.0
X64.42Y-56.5
X64.42Y-57.0
X64.42Y-57.5
X65.0Y-64.0
X66.0Y-64.0
X66.56Y-51.0
X66.56Y-74.0
X67.0Y-64.0
X67.6Y-71.0
X67.7Y-72.1
X68.425Y-66.0
X68.425Y-67.0
X68.6Y-71.0
X68.6Y-72.1
X69.1Y-51.0
X69.1Y-74.0
X69.5Y-56.8
X69.5Y-57.5
X69.5Y-58.2
X71.64Y-51.0
X71.64Y-74.0
X74.168Y-69.342
X74.168Y-70.866
X74.168Y-72.39
X74.18Y-51.0
X74.18Y-74.0
X76.708Y-70.866
X76.708Y-72.39
X76.72Y-51.0
X76.72Y-74.0
X78.0Y-60.5
X78.0Y-61.5
X78.0Y-62.5
X78.0Y-63.5
X78.0Y-64.5
X78.0Y-65.5
X78.0Y-66.5
X78.0Y-67.5
X79.248Y-70.866
X79.248Y-72.39
X79.26Y-51.0
X79.26Y-74.0
X81.788Y-70.866
X81.788Y-72.39
X81.8Y-51.0
X81.8Y-74.0
X82.38Y-59.0
X84.328Y-70.866
X84.328Y-72.39
X84.34Y-51.0
X84.34Y-74.0
X84.92Y-59.0
X86.88Y-51.0
X86.88Y-74.0
X87.46Y-59.0
X89.42Y-51.0
X89.42Y-74.0
X90.0Y-59.0
X91.96Y-51.0
X91.96Y-53.54
X91.96Y-56.08
X91.96Y-58.62
X91.96Y-61.16
X91.96Y-63.7
X91.96Y-66.24
X91.96Y-68.78
X91.96Y-71.32
X91.96Y-73.86
X91.96Y-74.0
T2
X79.92Y-56.0
X82.46Y-56.0
X85.0Y-56.0
T3
X31.92Y-61.46
X31.92Y-66.54
X34.46Y-64.0
X37.0Y-61.46
X37.0Y-66.54
X85.92Y-61.5
X85.92Y-66.58
X88.46Y-64.04
X91.0Y-61.5
X91.0Y-66.58
T4
X34.0Y-71.0
X89.0Y-54.0
X89.0Y-71.0
M30
