%TF.GenerationSoftware,KiCad,Pcbnew,9.0.7*%
%TF.CreationDate,2026-03-12T23:36:24+01:00*%
%TF.ProjectId,2W_Amp,32575f41-6d70-42e6-9b69-6361645f7063,rev?*%
%TF.SameCoordinates,Original*%
%TF.FileFunction,Soldermask,Top*%
%TF.FilePolarity,Negative*%
%FSLAX46Y46*%
G04 Gerber Fmt 4.6, Leading zero omitted, Abs format (unit mm)*
G04 Created by KiCad (PCBNEW 9.0.7) date 2026-03-12 23:36:24*
%MOMM*%
%LPD*%
G01*
G04 APERTURE LIST*
G04 Aperture macros list*
%AMRoundRect*
0 Rectangle with rounded corners*
0 $1 Rounding radius*
0 $2 $3 $4 $5 $6 $7 $8 $9 X,Y pos of 4 corners*
0 Add a 4 corners polygon primitive as box body*
4,1,4,$2,$3,$4,$5,$6,$7,$8,$9,$2,$3,0*
0 Add four circle primitives for the rounded corners*
1,1,$1+$1,$2,$3*
1,1,$1+$1,$4,$5*
1,1,$1+$1,$6,$7*
1,1,$1+$1,$8,$9*
0 Add four rect primitives between the rounded corners*
20,1,$1+$1,$2,$3,$4,$5,0*
20,1,$1+$1,$4,$5,$6,$7,0*
20,1,$1+$1,$6,$7,$8,$9,0*
20,1,$1+$1,$8,$9,$2,$3,0*%
G04 Aperture macros list end*
%ADD10RoundRect,0.250000X-0.475000X0.337500X-0.475000X-0.337500X0.475000X-0.337500X0.475000X0.337500X0*%
%ADD11RoundRect,0.250000X0.350000X0.450000X-0.350000X0.450000X-0.350000X-0.450000X0.350000X-0.450000X0*%
%ADD12RoundRect,0.250000X-0.350000X-0.450000X0.350000X-0.450000X0.350000X0.450000X-0.350000X0.450000X0*%
%ADD13RoundRect,0.250000X0.450000X-0.350000X0.450000X0.350000X-0.450000X0.350000X-0.450000X-0.350000X0*%
%ADD14RoundRect,0.250001X0.944999X-0.872499X0.944999X0.872499X-0.944999X0.872499X-0.944999X-0.872499X0*%
%ADD15RoundRect,0.250000X0.337500X0.475000X-0.337500X0.475000X-0.337500X-0.475000X0.337500X-0.475000X0*%
%ADD16RoundRect,0.200100X0.949900X-0.949900X0.949900X0.949900X-0.949900X0.949900X-0.949900X-0.949900X0*%
%ADD17C,2.600000*%
%ADD18RoundRect,0.250000X-0.450000X0.350000X-0.450000X-0.350000X0.450000X-0.350000X0.450000X0.350000X0*%
%ADD19RoundRect,0.250000X-0.337500X-0.475000X0.337500X-0.475000X0.337500X0.475000X-0.337500X0.475000X0*%
%ADD20RoundRect,0.250001X-0.872499X-0.944999X0.872499X-0.944999X0.872499X0.944999X-0.872499X0.944999X0*%
%ADD21RoundRect,0.250001X0.872499X0.944999X-0.872499X0.944999X-0.872499X-0.944999X0.872499X-0.944999X0*%
%ADD22C,3.600000*%
%ADD23C,5.600000*%
%ADD24RoundRect,0.150000X-0.150000X0.825000X-0.150000X-0.825000X0.150000X-0.825000X0.150000X0.825000X0*%
%ADD25RoundRect,0.200100X-0.949900X0.949900X-0.949900X-0.949900X0.949900X-0.949900X0.949900X0.949900X0*%
%ADD26R,2.540000X1.650000*%
%ADD27RoundRect,0.250000X0.620000X0.845000X-0.620000X0.845000X-0.620000X-0.845000X0.620000X-0.845000X0*%
%ADD28O,1.740000X2.190000*%
%ADD29RoundRect,0.250000X0.475000X-0.337500X0.475000X0.337500X-0.475000X0.337500X-0.475000X-0.337500X0*%
G04 APERTURE END LIST*
D10*
%TO.C,C13*%
X70420000Y-62000000D03*
X70420000Y-64075000D03*
%TD*%
D11*
%TO.C,FB3*%
X64420000Y-55500000D03*
X62420000Y-55500000D03*
%TD*%
D12*
%TO.C,R10*%
X60000000Y-69500000D03*
X62000000Y-69500000D03*
%TD*%
D13*
%TO.C,R4*%
X52500000Y-67500000D03*
X52500000Y-65500000D03*
%TD*%
D14*
%TO.C,C8*%
X61500000Y-67057500D03*
X61500000Y-61942500D03*
%TD*%
D15*
%TO.C,C11*%
X64420000Y-57500000D03*
X62345000Y-57500000D03*
%TD*%
D13*
%TO.C,R15*%
X72500000Y-69000000D03*
X72500000Y-67000000D03*
%TD*%
%TO.C,R1*%
X44500000Y-58000000D03*
X44500000Y-56000000D03*
%TD*%
D16*
%TO.C,P1*%
X34460000Y-64000000D03*
D17*
X31920000Y-66540000D03*
X37000000Y-66540000D03*
X31920000Y-61460000D03*
X37000000Y-61460000D03*
%TD*%
D12*
%TO.C,R5*%
X51500000Y-60000000D03*
X53500000Y-60000000D03*
%TD*%
%TO.C,R11*%
X66920000Y-57500000D03*
X68920000Y-57500000D03*
%TD*%
D18*
%TO.C,R3*%
X50500000Y-63500000D03*
X50500000Y-65500000D03*
%TD*%
D19*
%TO.C,C9*%
X65882500Y-71500000D03*
X67957500Y-71500000D03*
%TD*%
D20*
%TO.C,C12*%
X71442500Y-58000000D03*
X76557500Y-58000000D03*
%TD*%
D12*
%TO.C,R2*%
X46500000Y-58000000D03*
X48500000Y-58000000D03*
%TD*%
D19*
%TO.C,C4*%
X46425000Y-56000000D03*
X48500000Y-56000000D03*
%TD*%
D21*
%TO.C,C1*%
X37057500Y-56000000D03*
X31942500Y-56000000D03*
%TD*%
D12*
%TO.C,R13*%
X65920000Y-69500000D03*
X67920000Y-69500000D03*
%TD*%
D15*
%TO.C,C7*%
X52537500Y-58000000D03*
X50462500Y-58000000D03*
%TD*%
D22*
%TO.C,H3*%
X89000000Y-54000000D03*
D23*
X89000000Y-54000000D03*
%TD*%
D12*
%TO.C,R9*%
X62420000Y-59500000D03*
X64420000Y-59500000D03*
%TD*%
D24*
%TO.C,U2*%
X68425000Y-61825000D03*
X67155000Y-61825000D03*
X65885000Y-61825000D03*
X64615000Y-61825000D03*
X64615000Y-66775000D03*
X65885000Y-66775000D03*
X67155000Y-66775000D03*
X68425000Y-66775000D03*
%TD*%
D15*
%TO.C,C10*%
X59037500Y-55500000D03*
X56962500Y-55500000D03*
%TD*%
D25*
%TO.C,RF OUT*%
X88460000Y-64040000D03*
D17*
X91000000Y-61500000D03*
X85920000Y-61500000D03*
X91000000Y-66580000D03*
X85920000Y-66580000D03*
%TD*%
D12*
%TO.C,R8*%
X55925000Y-69500000D03*
X57925000Y-69500000D03*
%TD*%
D26*
%TO.C,ADT1.5-1*%
X75460000Y-61460000D03*
X75460000Y-66540000D03*
X80540000Y-66540000D03*
X80540000Y-64000000D03*
X80540000Y-61460000D03*
%TD*%
D12*
%TO.C,R6*%
X56925000Y-57500000D03*
X58925000Y-57500000D03*
%TD*%
D10*
%TO.C,C6*%
X54500000Y-55962500D03*
X54500000Y-58037500D03*
%TD*%
D22*
%TO.C,H2*%
X34000000Y-71000000D03*
D23*
X34000000Y-71000000D03*
%TD*%
D18*
%TO.C,FB1*%
X42500000Y-55000000D03*
X42500000Y-57000000D03*
%TD*%
D27*
%TO.C,J1*%
X85000000Y-56000000D03*
D28*
X82460000Y-56000000D03*
X79920000Y-56000000D03*
%TD*%
D22*
%TO.C,H4*%
X89000000Y-71000000D03*
D23*
X89000000Y-71000000D03*
%TD*%
D24*
%TO.C,U1*%
X58380000Y-61925000D03*
X57110000Y-61925000D03*
X55840000Y-61925000D03*
X54570000Y-61925000D03*
X54570000Y-66875000D03*
X55840000Y-66875000D03*
X57110000Y-66875000D03*
X58380000Y-66875000D03*
%TD*%
D10*
%TO.C,C2*%
X40000000Y-63962500D03*
X40000000Y-66037500D03*
%TD*%
D29*
%TO.C,C3*%
X40500000Y-57037500D03*
X40500000Y-54962500D03*
%TD*%
D11*
%TO.C,FB2*%
X52500000Y-56000000D03*
X50500000Y-56000000D03*
%TD*%
D12*
%TO.C,R12*%
X66920000Y-59500000D03*
X68920000Y-59500000D03*
%TD*%
D29*
%TO.C,C14*%
X70420000Y-70037500D03*
X70420000Y-67962500D03*
%TD*%
D12*
%TO.C,R7*%
X56925000Y-59500000D03*
X58925000Y-59500000D03*
%TD*%
D19*
%TO.C,C5*%
X55925000Y-71500000D03*
X58000000Y-71500000D03*
%TD*%
D13*
%TO.C,R14*%
X72420000Y-64000000D03*
X72420000Y-62000000D03*
%TD*%
D26*
%TO.C,ADT4-1T*%
X42500000Y-61460000D03*
X42500000Y-66540000D03*
X47580000Y-66540000D03*
X47580000Y-64000000D03*
X47580000Y-61460000D03*
%TD*%
G36*
X92193039Y-50019685D02*
G01*
X92238794Y-50072489D01*
X92250000Y-50124000D01*
X92250000Y-51987789D01*
X92247617Y-52011982D01*
X92245617Y-52022036D01*
X92213231Y-52083946D01*
X92152515Y-52118520D01*
X92082746Y-52114779D01*
X92026074Y-52073912D01*
X92000493Y-52008894D01*
X92000100Y-52000100D01*
X92000000Y-52000000D01*
X32000000Y-52000000D01*
X31999103Y-52000896D01*
X31980315Y-52064882D01*
X31927511Y-52110637D01*
X31858353Y-52120581D01*
X31794797Y-52091556D01*
X31757023Y-52032778D01*
X31754383Y-52022036D01*
X31752383Y-52011982D01*
X31750000Y-51987789D01*
X31750000Y-50124000D01*
X31769685Y-50056961D01*
X31822489Y-50011206D01*
X31874000Y-50000000D01*
X92126000Y-50000000D01*
X92193039Y-50019685D01*
G37*
G36*
X32193039Y-50019685D02*
G01*
X32238794Y-50072489D01*
X32250000Y-50124000D01*
X32250000Y-51876000D01*
X32230315Y-51943039D01*
X32177511Y-51988794D01*
X32126000Y-52000000D01*
X32000000Y-52000000D01*
X32000000Y-73000000D01*
X92000000Y-73000000D01*
X92000000Y-52000000D01*
X91874000Y-52000000D01*
X91806961Y-51980315D01*
X91761206Y-51927511D01*
X91750000Y-51876000D01*
X91750000Y-50124000D01*
X91769685Y-50056961D01*
X91822489Y-50011206D01*
X91874000Y-50000000D01*
X93376000Y-50000000D01*
X93443039Y-50019685D01*
X93488794Y-50072489D01*
X93500000Y-50124000D01*
X93500000Y-74876000D01*
X93480315Y-74943039D01*
X93427511Y-74988794D01*
X93376000Y-75000000D01*
X29124000Y-75000000D01*
X29056961Y-74980315D01*
X29011206Y-74927511D01*
X29000000Y-74876000D01*
X29000000Y-50124000D01*
X29019685Y-50056961D01*
X29072489Y-50011206D01*
X29124000Y-50000000D01*
X32126000Y-50000000D01*
X32193039Y-50019685D01*
G37*
M02*
