%TF.GenerationSoftware,KiCad,Pcbnew,9.0.7*%
%TF.CreationDate,2026-03-14T09:39:47+01:00*%
%TF.ProjectId,2W_Amp,32575f41-6d70-42e6-9b69-6361645f7063,rev?*%
%TF.SameCoordinates,Original*%
%TF.FileFunction,Copper,L1,Top*%
%TF.FilePolarity,Positive*%
%FSLAX46Y46*%
G04 Gerber Fmt 4.6, Leading zero omitted, Abs format (unit mm)*
G04 Created by KiCad (PCBNEW 9.0.7) date 2026-03-14 09:39:47*
%MOMM*%
%LPD*%
G01*
G04 APERTURE LIST*
G04 Aperture macros list*
%AMRoundRect*
0 Rectangle with rounded corners*
0 $1 Rounding radius*
0 $2 $3 $4 $5 $6 $7 $8 $9 X,Y pos of 4 corners*
0 Add a 4 corners polygon primitive as box body*
4,1,4,$2,$3,$4,$5,$6,$7,$8,$9,$2,$3,0*
0 Add four circle primitives for the rounded corners*
1,1,$1+$1,$2,$3*
1,1,$1+$1,$4,$5*
1,1,$1+$1,$6,$7*
1,1,$1+$1,$8,$9*
0 Add four rect primitives between the rounded corners*
20,1,$1+$1,$2,$3,$4,$5,0*
20,1,$1+$1,$4,$5,$6,$7,0*
20,1,$1+$1,$6,$7,$8,$9,0*
20,1,$1+$1,$8,$9,$2,$3,0*%
G04 Aperture macros list end*
%TA.AperFunction,ComponentPad*%
%ADD10C,3.600000*%
%TD*%
%TA.AperFunction,ConnectorPad*%
%ADD11C,5.600000*%
%TD*%
%TA.AperFunction,SMDPad,CuDef*%
%ADD12RoundRect,0.250000X-0.475000X0.337500X-0.475000X-0.337500X0.475000X-0.337500X0.475000X0.337500X0*%
%TD*%
%TA.AperFunction,SMDPad,CuDef*%
%ADD13RoundRect,0.250000X0.350000X0.450000X-0.350000X0.450000X-0.350000X-0.450000X0.350000X-0.450000X0*%
%TD*%
%TA.AperFunction,SMDPad,CuDef*%
%ADD14RoundRect,0.250000X-0.350000X-0.450000X0.350000X-0.450000X0.350000X0.450000X-0.350000X0.450000X0*%
%TD*%
%TA.AperFunction,SMDPad,CuDef*%
%ADD15RoundRect,0.250000X0.450000X-0.350000X0.450000X0.350000X-0.450000X0.350000X-0.450000X-0.350000X0*%
%TD*%
%TA.AperFunction,ComponentPad*%
%ADD16C,1.998980*%
%TD*%
%TA.AperFunction,ComponentPad*%
%ADD17C,2.499360*%
%TD*%
%TA.AperFunction,SMDPad,CuDef*%
%ADD18RoundRect,0.250000X-0.450000X0.350000X-0.450000X-0.350000X0.450000X-0.350000X0.450000X0.350000X0*%
%TD*%
%TA.AperFunction,SMDPad,CuDef*%
%ADD19RoundRect,0.250000X-0.337500X-0.475000X0.337500X-0.475000X0.337500X0.475000X-0.337500X0.475000X0*%
%TD*%
%TA.AperFunction,SMDPad,CuDef*%
%ADD20RoundRect,0.250001X-0.872499X-0.944999X0.872499X-0.944999X0.872499X0.944999X-0.872499X0.944999X0*%
%TD*%
%TA.AperFunction,SMDPad,CuDef*%
%ADD21RoundRect,0.150000X-0.150000X0.825000X-0.150000X-0.825000X0.150000X-0.825000X0.150000X0.825000X0*%
%TD*%
%TA.AperFunction,SMDPad,CuDef*%
%ADD22RoundRect,0.250000X0.337500X0.475000X-0.337500X0.475000X-0.337500X-0.475000X0.337500X-0.475000X0*%
%TD*%
%TA.AperFunction,SMDPad,CuDef*%
%ADD23R,2.540000X1.650000*%
%TD*%
%TA.AperFunction,SMDPad,CuDef*%
%ADD24R,0.001000X0.001000*%
%TD*%
%TA.AperFunction,ComponentPad*%
%ADD25RoundRect,0.250000X0.620000X0.845000X-0.620000X0.845000X-0.620000X-0.845000X0.620000X-0.845000X0*%
%TD*%
%TA.AperFunction,ComponentPad*%
%ADD26O,1.740000X2.190000*%
%TD*%
%TA.AperFunction,SMDPad,CuDef*%
%ADD27RoundRect,0.250000X0.475000X-0.337500X0.475000X0.337500X-0.475000X0.337500X-0.475000X-0.337500X0*%
%TD*%
%TA.AperFunction,ViaPad*%
%ADD28C,0.600000*%
%TD*%
%TA.AperFunction,Conductor*%
%ADD29C,1.000000*%
%TD*%
%TA.AperFunction,Conductor*%
%ADD30C,0.600000*%
%TD*%
%TA.AperFunction,Conductor*%
%ADD31C,2.000000*%
%TD*%
%TA.AperFunction,Conductor*%
%ADD32C,0.300000*%
%TD*%
%TA.AperFunction,Conductor*%
%ADD33C,1.450000*%
%TD*%
G04 APERTURE END LIST*
D10*
%TO.P,H1,1,1*%
%TO.N,GND*%
X34250000Y-54250000D03*
D11*
X34250000Y-54250000D03*
%TD*%
D12*
%TO.P,C13,1*%
%TO.N,Net-(C13-Pad1)*%
X70420000Y-62000000D03*
%TO.P,C13,2*%
%TO.N,Net-(C13-Pad2)*%
X70420000Y-64075000D03*
%TD*%
D13*
%TO.P,FB3,1*%
%TO.N,Net-(U2A-V+)*%
X64420000Y-55500000D03*
%TO.P,FB3,2*%
%TO.N,+12V*%
X62420000Y-55500000D03*
%TD*%
D14*
%TO.P,R10,1*%
%TO.N,Net-(R10-Pad1)*%
X60000000Y-69500000D03*
%TO.P,R10,2*%
%TO.N,Net-(U2B-+)*%
X62000000Y-69500000D03*
%TD*%
D15*
%TO.P,R4,1*%
%TO.N,Net-(R3-Pad2)*%
X52500000Y-67500000D03*
%TO.P,R4,2*%
%TO.N,Net-(U1B-+)*%
X52500000Y-65500000D03*
%TD*%
%TO.P,R15,1*%
%TO.N,Net-(C14-Pad2)*%
X72500000Y-69000000D03*
%TO.P,R15,2*%
%TO.N,Net-(R15-Pad2)*%
X72500000Y-67000000D03*
%TD*%
D13*
%TO.P,R1,1*%
%TO.N,Net-(C4-Pad1)*%
X44500000Y-58000000D03*
%TO.P,R1,2*%
%TO.N,Net-(FB1-Pad2)*%
X42500000Y-58000000D03*
%TD*%
D16*
%TO.P,P1,1,In*%
%TO.N,Net-(P1-In)*%
X34460000Y-64040000D03*
D17*
%TO.P,P1,2,Ext*%
%TO.N,GND*%
X31920000Y-61500000D03*
X31920000Y-66580000D03*
X37000000Y-61500000D03*
X37000000Y-66580000D03*
%TD*%
D14*
%TO.P,R5,1*%
%TO.N,Net-(R3-Pad1)*%
X51500000Y-60000000D03*
%TO.P,R5,2*%
%TO.N,Net-(U1A-+)*%
X53500000Y-60000000D03*
%TD*%
%TO.P,R11,1*%
%TO.N,Net-(U2A--)*%
X66920000Y-57500000D03*
%TO.P,R11,2*%
%TO.N,Net-(C9-Pad2)*%
X68920000Y-57500000D03*
%TD*%
D18*
%TO.P,R3,1*%
%TO.N,Net-(R3-Pad1)*%
X50500000Y-63500000D03*
%TO.P,R3,2*%
%TO.N,Net-(R3-Pad2)*%
X50500000Y-65500000D03*
%TD*%
D19*
%TO.P,C9,1*%
%TO.N,Net-(U2B--)*%
X65882500Y-71500000D03*
%TO.P,C9,2*%
%TO.N,Net-(C9-Pad2)*%
X67957500Y-71500000D03*
%TD*%
D14*
%TO.P,R2,1*%
%TO.N,Net-(C4-Pad1)*%
X46500000Y-58000000D03*
%TO.P,R2,2*%
%TO.N,GND*%
X48500000Y-58000000D03*
%TD*%
D19*
%TO.P,C4,1*%
%TO.N,Net-(C4-Pad1)*%
X46425000Y-56000000D03*
%TO.P,C4,2*%
%TO.N,GND*%
X48500000Y-56000000D03*
%TD*%
D20*
%TO.P,C1,1*%
%TO.N,+12V*%
X71500000Y-57000000D03*
%TO.P,C1,2*%
%TO.N,GND*%
X76615000Y-57000000D03*
%TD*%
D14*
%TO.P,R13,1*%
%TO.N,Net-(U2B--)*%
X65920000Y-69500000D03*
%TO.P,R13,2*%
%TO.N,Net-(C14-Pad1)*%
X67920000Y-69500000D03*
%TD*%
D10*
%TO.P,H3,1,1*%
%TO.N,GND*%
X89000000Y-54000000D03*
D11*
X89000000Y-54000000D03*
%TD*%
D14*
%TO.P,R9,1*%
%TO.N,Net-(R7-Pad2)*%
X62420000Y-59500000D03*
%TO.P,R9,2*%
%TO.N,Net-(U2A-+)*%
X64420000Y-59500000D03*
%TD*%
D21*
%TO.P,U2,1*%
%TO.N,Net-(C13-Pad1)*%
X68425000Y-61825000D03*
%TO.P,U2,2,-*%
%TO.N,Net-(U2A--)*%
X67155000Y-61825000D03*
%TO.P,U2,3,+*%
%TO.N,Net-(U2A-+)*%
X65885000Y-61825000D03*
%TO.P,U2,4,V-*%
%TO.N,GND*%
X64615000Y-61825000D03*
%TO.P,U2,5,+*%
%TO.N,Net-(U2B-+)*%
X64615000Y-66775000D03*
%TO.P,U2,6,-*%
%TO.N,Net-(U2B--)*%
X65885000Y-66775000D03*
%TO.P,U2,7*%
%TO.N,Net-(C14-Pad1)*%
X67155000Y-66775000D03*
%TO.P,U2,8,V+*%
%TO.N,Net-(U2A-V+)*%
X68425000Y-66775000D03*
%TD*%
D22*
%TO.P,C10,1*%
%TO.N,+12V*%
X59037500Y-55500000D03*
%TO.P,C10,2*%
%TO.N,GND*%
X56962500Y-55500000D03*
%TD*%
D16*
%TO.P,P2,1,In*%
%TO.N,Net-(P2-In)*%
X88500000Y-64000000D03*
D17*
%TO.P,P2,2,Ext*%
%TO.N,GND*%
X91040000Y-66540000D03*
X91040000Y-61460000D03*
X85960000Y-66540000D03*
X85960000Y-61460000D03*
%TD*%
D14*
%TO.P,R8,1*%
%TO.N,Net-(U1B--)*%
X55925000Y-69500000D03*
%TO.P,R8,2*%
%TO.N,Net-(R10-Pad1)*%
X57925000Y-69500000D03*
%TD*%
D23*
%TO.P,TR2,1*%
%TO.N,Net-(R14-Pad2)*%
X75460000Y-61460000D03*
D24*
%TO.P,TR2,2*%
%TO.N,unconnected-(TR2-Pad2)*%
X75460000Y-64000000D03*
D23*
%TO.P,TR2,3*%
%TO.N,Net-(R15-Pad2)*%
X75460000Y-66540000D03*
%TO.P,TR2,4*%
%TO.N,Net-(P2-In)*%
X80540000Y-66540000D03*
%TO.P,TR2,5*%
%TO.N,unconnected-(TR2-Pad5)*%
X80540000Y-64000000D03*
%TO.P,TR2,6*%
%TO.N,GND*%
X80540000Y-61460000D03*
%TD*%
D14*
%TO.P,R6,1*%
%TO.N,Net-(U1A--)*%
X56925000Y-57500000D03*
%TO.P,R6,2*%
%TO.N,Net-(C5-Pad2)*%
X58925000Y-57500000D03*
%TD*%
D12*
%TO.P,C6,1*%
%TO.N,+12V*%
X54500000Y-55962500D03*
%TO.P,C6,2*%
%TO.N,GND*%
X54500000Y-58037500D03*
%TD*%
D10*
%TO.P,H2,1,1*%
%TO.N,GND*%
X34000000Y-71000000D03*
D11*
X34000000Y-71000000D03*
%TD*%
D13*
%TO.P,FB1,1*%
%TO.N,+12V*%
X44500000Y-56000000D03*
%TO.P,FB1,2*%
%TO.N,Net-(FB1-Pad2)*%
X42500000Y-56000000D03*
%TD*%
D25*
%TO.P,J1,1,Pin_1*%
%TO.N,GND*%
X85000000Y-56000000D03*
D26*
%TO.P,J1,2,Pin_2*%
%TO.N,+12V*%
X82460000Y-56000000D03*
%TO.P,J1,3,Pin_3*%
X79920000Y-56000000D03*
%TD*%
D10*
%TO.P,H4,1,1*%
%TO.N,GND*%
X89000000Y-71000000D03*
D11*
X89000000Y-71000000D03*
%TD*%
D21*
%TO.P,U1,1*%
%TO.N,Net-(R7-Pad2)*%
X58380000Y-61925000D03*
%TO.P,U1,2,-*%
%TO.N,Net-(U1A--)*%
X57110000Y-61925000D03*
%TO.P,U1,3,+*%
%TO.N,Net-(U1A-+)*%
X55840000Y-61925000D03*
%TO.P,U1,4,V-*%
%TO.N,GND*%
X54570000Y-61925000D03*
%TO.P,U1,5,+*%
%TO.N,Net-(U1B-+)*%
X54570000Y-66875000D03*
%TO.P,U1,6,-*%
%TO.N,Net-(U1B--)*%
X55840000Y-66875000D03*
%TO.P,U1,7*%
%TO.N,Net-(R10-Pad1)*%
X57110000Y-66875000D03*
%TO.P,U1,8,V+*%
%TO.N,Net-(U1A-V+)*%
X58380000Y-66875000D03*
%TD*%
D12*
%TO.P,C2,1*%
%TO.N,Net-(P1-In)*%
X40000000Y-63962500D03*
%TO.P,C2,2*%
%TO.N,Net-(C2-Pad2)*%
X40000000Y-66037500D03*
%TD*%
D13*
%TO.P,FB2,1*%
%TO.N,Net-(U1A-V+)*%
X52500000Y-56000000D03*
%TO.P,FB2,2*%
%TO.N,+12V*%
X50500000Y-56000000D03*
%TD*%
D14*
%TO.P,R12,1*%
%TO.N,Net-(U2A--)*%
X66920000Y-59500000D03*
%TO.P,R12,2*%
%TO.N,Net-(C13-Pad1)*%
X68920000Y-59500000D03*
%TD*%
D27*
%TO.P,C14,1*%
%TO.N,Net-(C14-Pad1)*%
X70420000Y-70037500D03*
%TO.P,C14,2*%
%TO.N,Net-(C14-Pad2)*%
X70420000Y-67962500D03*
%TD*%
D14*
%TO.P,R7,1*%
%TO.N,Net-(U1A--)*%
X56925000Y-59500000D03*
%TO.P,R7,2*%
%TO.N,Net-(R7-Pad2)*%
X58925000Y-59500000D03*
%TD*%
D19*
%TO.P,C5,1*%
%TO.N,Net-(U1B--)*%
X55925000Y-71500000D03*
%TO.P,C5,2*%
%TO.N,Net-(C5-Pad2)*%
X58000000Y-71500000D03*
%TD*%
D15*
%TO.P,R14,1*%
%TO.N,Net-(C13-Pad2)*%
X72420000Y-64000000D03*
%TO.P,R14,2*%
%TO.N,Net-(R14-Pad2)*%
X72420000Y-62000000D03*
%TD*%
D23*
%TO.P,TR1,1*%
%TO.N,GND*%
X42500000Y-61460000D03*
D24*
%TO.P,TR1,2*%
%TO.N,unconnected-(TR1-Pad2)*%
X42500000Y-64000000D03*
D23*
%TO.P,TR1,3*%
%TO.N,Net-(C2-Pad2)*%
X42500000Y-66540000D03*
%TO.P,TR1,4*%
%TO.N,Net-(R3-Pad2)*%
X47580000Y-66540000D03*
%TO.P,TR1,5*%
%TO.N,Net-(C4-Pad1)*%
X47580000Y-64000000D03*
%TO.P,TR1,6*%
%TO.N,Net-(R3-Pad1)*%
X47580000Y-61460000D03*
%TD*%
D28*
%TO.N,GND*%
X50600000Y-57500000D03*
X43680000Y-69600000D03*
X91960000Y-51000000D03*
X55500000Y-59000000D03*
X91960000Y-61160000D03*
X52000000Y-62000000D03*
X49500000Y-58500000D03*
X61480000Y-51000000D03*
X31000000Y-63700000D03*
X74180000Y-51000000D03*
X33540000Y-74000000D03*
X37920000Y-58500000D03*
X76708000Y-72390000D03*
X31000000Y-51000000D03*
X45000000Y-67500000D03*
X51308000Y-71120000D03*
X53860000Y-74000000D03*
X91960000Y-56080000D03*
X48780000Y-74000000D03*
X56000000Y-56000000D03*
X66560000Y-74000000D03*
X65000000Y-65000000D03*
X76720000Y-74000000D03*
X84328000Y-70866000D03*
X40460000Y-58500000D03*
X46228000Y-72644000D03*
X69100000Y-74000000D03*
X51320000Y-51000000D03*
X48780000Y-51000000D03*
X31000000Y-71320000D03*
X59500000Y-62000000D03*
X84328000Y-72390000D03*
X48768000Y-71120000D03*
X53848000Y-69596000D03*
X53500000Y-63000000D03*
X41160000Y-51000000D03*
X81788000Y-72390000D03*
X74168000Y-69342000D03*
X91960000Y-58620000D03*
X46220000Y-69600000D03*
X86880000Y-74000000D03*
X61480000Y-74000000D03*
X56000000Y-55000000D03*
X49500000Y-57500000D03*
X69100000Y-51000000D03*
X38620000Y-74000000D03*
X38608000Y-72644000D03*
X43688000Y-71120000D03*
X50600000Y-58500000D03*
X41148000Y-71120000D03*
X91960000Y-63700000D03*
X56400000Y-51000000D03*
X76708000Y-70866000D03*
X63800000Y-62000000D03*
X41148000Y-72644000D03*
X58940000Y-51000000D03*
X71640000Y-74000000D03*
X51308000Y-69596000D03*
X71640000Y-51000000D03*
X81788000Y-70866000D03*
X56400000Y-74000000D03*
X31000000Y-58620000D03*
X87460000Y-59000000D03*
X48760000Y-69600000D03*
X61000000Y-64000000D03*
X55000000Y-64000000D03*
X66560000Y-51000000D03*
X65000000Y-64000000D03*
X36080000Y-74000000D03*
X78000000Y-66500000D03*
X36080000Y-51000000D03*
X45000000Y-66500000D03*
X91960000Y-53540000D03*
X38600000Y-69600000D03*
X64020000Y-74000000D03*
X84920000Y-59000000D03*
X31000000Y-73860000D03*
X63800000Y-63000000D03*
X48500000Y-59000000D03*
X63800000Y-65000000D03*
X65000000Y-63000000D03*
X74168000Y-72390000D03*
X78000000Y-61500000D03*
X41160000Y-74000000D03*
X43700000Y-51000000D03*
X46240000Y-51000000D03*
X74180000Y-74000000D03*
X76720000Y-51000000D03*
X49500000Y-59500000D03*
X63800000Y-64000000D03*
X79260000Y-51000000D03*
X82380000Y-59000000D03*
X38620000Y-51000000D03*
X43700000Y-74000000D03*
X91960000Y-71320000D03*
X45000000Y-65500000D03*
X74168000Y-70866000D03*
X78000000Y-65500000D03*
X58940000Y-74000000D03*
X31000000Y-74000000D03*
X84340000Y-74000000D03*
X31000000Y-56080000D03*
X38608000Y-71120000D03*
X31000000Y-68780000D03*
X52000000Y-64000000D03*
X48500000Y-57000000D03*
X90000000Y-59000000D03*
X51308000Y-72644000D03*
X78000000Y-63500000D03*
X79260000Y-74000000D03*
X78000000Y-67500000D03*
X81800000Y-74000000D03*
X60000000Y-63000000D03*
X84340000Y-51000000D03*
X91960000Y-66240000D03*
X55500000Y-58000000D03*
X45000000Y-64500000D03*
X81800000Y-51000000D03*
X53860000Y-51000000D03*
X31000000Y-53540000D03*
X91960000Y-74000000D03*
X78000000Y-62500000D03*
X91960000Y-68780000D03*
X53848000Y-72644000D03*
X43688000Y-72644000D03*
X55000000Y-65000000D03*
X33540000Y-51000000D03*
X51320000Y-74000000D03*
X48768000Y-72644000D03*
X41140000Y-69600000D03*
X60000000Y-64000000D03*
X89420000Y-51000000D03*
X46240000Y-74000000D03*
X79248000Y-70866000D03*
X53848000Y-71120000D03*
X52000000Y-63000000D03*
X79248000Y-72390000D03*
X32840000Y-58500000D03*
X53500000Y-64000000D03*
X89420000Y-74000000D03*
X78000000Y-64500000D03*
X86880000Y-51000000D03*
X55500000Y-57000000D03*
X78000000Y-60500000D03*
X46228000Y-71120000D03*
X64020000Y-51000000D03*
X35380000Y-58500000D03*
%TO.N,Net-(C5-Pad2)*%
X59000000Y-57000000D03*
X59000000Y-57500000D03*
X58000000Y-72000000D03*
X58000000Y-71000000D03*
X58000000Y-71500000D03*
X59000000Y-58000000D03*
%TO.N,Net-(U1A-V+)*%
X52537500Y-56500000D03*
X52500000Y-55500000D03*
X60500000Y-66875000D03*
X52537500Y-57500000D03*
X59700000Y-66875000D03*
X61300000Y-66900000D03*
X52500000Y-58500000D03*
%TO.N,Net-(C9-Pad2)*%
X67600000Y-71000000D03*
X69000000Y-56800000D03*
X69000000Y-58200000D03*
X68600000Y-71000000D03*
X68600000Y-72100000D03*
X67700000Y-72100000D03*
X69000000Y-57500000D03*
%TO.N,Net-(U2A-V+)*%
X64420000Y-55500000D03*
X64420000Y-56500000D03*
X64420000Y-57500000D03*
X68425000Y-66000000D03*
X68425000Y-67000000D03*
%TD*%
D29*
%TO.N,Net-(C9-Pad2)*%
X67700000Y-72100000D02*
X68600000Y-72100000D01*
X67600000Y-71000000D02*
X68600000Y-71000000D01*
X67600000Y-72000000D02*
X67700000Y-72100000D01*
X67600000Y-71000000D02*
X67600000Y-72000000D01*
X68600000Y-71000000D02*
X68600000Y-72100000D01*
%TO.N,Net-(FB1-Pad2)*%
X42500000Y-56000000D02*
X42500000Y-57584372D01*
%TO.N,+12V*%
X44500000Y-55300000D02*
X44500000Y-56000000D01*
X45800000Y-54000000D02*
X44500000Y-55300000D01*
X49200000Y-54000000D02*
X45800000Y-54000000D01*
%TO.N,Net-(C4-Pad1)*%
X45000000Y-58500000D02*
X45500000Y-58000000D01*
X45000000Y-62500000D02*
X45000000Y-58500000D01*
X44500000Y-58000000D02*
X45500000Y-58000000D01*
X45500000Y-58000000D02*
X46500000Y-58000000D01*
%TO.N,+12V*%
X71500000Y-54500000D02*
X71500000Y-57000000D01*
X71000000Y-54000000D02*
X71500000Y-54500000D01*
X71000000Y-54000000D02*
X79000000Y-54000000D01*
D30*
%TO.N,Net-(U1A-V+)*%
X61275002Y-66875000D02*
X61300002Y-66900000D01*
X61325002Y-66875000D02*
X61300002Y-66900000D01*
D29*
X61275002Y-66875000D02*
X61300002Y-66900000D01*
X58380000Y-66875000D02*
X61275002Y-66875000D01*
D30*
X60500000Y-66875000D02*
X61275002Y-66875000D01*
D29*
%TO.N,+12V*%
X50500000Y-55300000D02*
X50500000Y-56000000D01*
X79000000Y-54000000D02*
X81000000Y-56000000D01*
X54500000Y-55375000D02*
X54500000Y-55962500D01*
X58262500Y-54000000D02*
X59037500Y-54775000D01*
D31*
X82460000Y-56000000D02*
X81000000Y-56000000D01*
D29*
X49200000Y-54000000D02*
X50500000Y-55300000D01*
X49200000Y-54000000D02*
X53125000Y-54000000D01*
D31*
X81000000Y-56000000D02*
X79920000Y-56000000D01*
D29*
X58262500Y-54000000D02*
X71000000Y-54000000D01*
X53125000Y-54000000D02*
X58262500Y-54000000D01*
X59037500Y-54775000D02*
X59037500Y-55500000D01*
X53125000Y-54000000D02*
X54500000Y-55375000D01*
X59037500Y-55500000D02*
X62420000Y-55500000D01*
D32*
%TO.N,GND*%
X55576000Y-56724000D02*
X55800000Y-56500000D01*
X56462500Y-56000000D02*
X56962500Y-55500000D01*
X55500000Y-58000000D02*
X54537500Y-58000000D01*
X55500000Y-58000000D02*
X55500000Y-59000000D01*
X56000000Y-55500000D02*
X56962500Y-55500000D01*
X56000000Y-56000000D02*
X56462500Y-56000000D01*
D30*
X55500000Y-57000000D02*
X55500000Y-58000000D01*
D32*
X55500000Y-58500000D02*
X54962500Y-58500000D01*
X55037500Y-57500000D02*
X55500000Y-57500000D01*
X54962500Y-58500000D02*
X54500000Y-58037500D01*
X56000000Y-55000000D02*
X56000000Y-56000000D01*
X55800000Y-56200000D02*
X56000000Y-56000000D01*
X54537500Y-58000000D02*
X54500000Y-58037500D01*
X55576000Y-57424000D02*
X55576000Y-56724000D01*
X55500000Y-57500000D02*
X55576000Y-57424000D01*
X56462500Y-55000000D02*
X56962500Y-55500000D01*
X55800000Y-56500000D02*
X55800000Y-56200000D01*
X54500000Y-58037500D02*
X55037500Y-57500000D01*
X56000000Y-55000000D02*
X56462500Y-55000000D01*
D33*
%TO.N,Net-(P1-In)*%
X40000000Y-63962500D02*
X34497500Y-63962500D01*
X34497500Y-63962500D02*
X34460000Y-64000000D01*
%TO.N,Net-(C2-Pad2)*%
X41997500Y-66037500D02*
X42500000Y-66540000D01*
X40000000Y-66037500D02*
X41997500Y-66037500D01*
D29*
%TO.N,Net-(C4-Pad1)*%
X45000000Y-62500000D02*
X46500000Y-64000000D01*
X46425000Y-56000000D02*
X46425000Y-57925000D01*
X46500000Y-64000000D02*
X47580000Y-64000000D01*
X46425000Y-57925000D02*
X46500000Y-58000000D01*
D30*
%TO.N,Net-(U1B--)*%
X55925000Y-69500000D02*
X55925000Y-71500000D01*
X55840000Y-66875000D02*
X55840000Y-69415000D01*
X55840000Y-69415000D02*
X55925000Y-69500000D01*
%TO.N,Net-(C5-Pad2)*%
X58000000Y-71000000D02*
X58000000Y-71500000D01*
X58000000Y-71500000D02*
X58000000Y-72000000D01*
D29*
%TO.N,Net-(U1A-V+)*%
X61275000Y-66875000D02*
X61300000Y-66900000D01*
X52500000Y-55500000D02*
X52500000Y-56462500D01*
X52537500Y-56500000D02*
X52537500Y-57500000D01*
X52537500Y-58462500D02*
X52500000Y-58500000D01*
X59700000Y-66875000D02*
X61275000Y-66875000D01*
X52500000Y-56462500D02*
X52537500Y-56500000D01*
X52537500Y-57500000D02*
X52537500Y-58462500D01*
D30*
%TO.N,Net-(U2B--)*%
X65885000Y-66775000D02*
X65885000Y-69465000D01*
X65885000Y-69465000D02*
X65920000Y-69500000D01*
X65920000Y-71462500D02*
X65882500Y-71500000D01*
X65920000Y-69500000D02*
X65920000Y-71462500D01*
%TO.N,Net-(C9-Pad2)*%
X69000000Y-57500000D02*
X69000000Y-58200000D01*
X69000000Y-56800000D02*
X69000000Y-57500000D01*
D29*
%TO.N,Net-(U2A-V+)*%
X64420000Y-55500000D02*
X64420000Y-56500000D01*
X64420000Y-57500000D02*
X64420000Y-56500000D01*
%TO.N,Net-(C13-Pad2)*%
X72345000Y-64075000D02*
X72420000Y-64000000D01*
X70420000Y-64075000D02*
X72345000Y-64075000D01*
D30*
%TO.N,Net-(C13-Pad1)*%
X68425000Y-59995000D02*
X68920000Y-59500000D01*
D29*
X70420000Y-61000000D02*
X68920000Y-59500000D01*
D30*
X68425000Y-61825000D02*
X68425000Y-59995000D01*
D29*
X70420000Y-62000000D02*
X70420000Y-61000000D01*
%TO.N,Net-(C14-Pad1)*%
X69882500Y-69500000D02*
X67920000Y-69500000D01*
D30*
X67155000Y-68735000D02*
X67920000Y-69500000D01*
D29*
X70420000Y-70037500D02*
X69882500Y-69500000D01*
D30*
X67155000Y-66775000D02*
X67155000Y-68735000D01*
D29*
%TO.N,Net-(C14-Pad2)*%
X72462500Y-69037500D02*
X72500000Y-69000000D01*
X71800000Y-69000000D02*
X70762500Y-67962500D01*
X70762500Y-67962500D02*
X70420000Y-67962500D01*
X72500000Y-69000000D02*
X71800000Y-69000000D01*
D33*
%TO.N,Net-(P2-In)*%
X84460000Y-64040000D02*
X81960000Y-66540000D01*
X88460000Y-64040000D02*
X84460000Y-64040000D01*
X81960000Y-66540000D02*
X80540000Y-66540000D01*
D29*
%TO.N,Net-(R3-Pad2)*%
X50500000Y-65500000D02*
X50500000Y-67500000D01*
X48540000Y-67500000D02*
X47580000Y-66540000D01*
X52500000Y-67500000D02*
X50500000Y-67500000D01*
X50500000Y-67500000D02*
X48540000Y-67500000D01*
%TO.N,Net-(R3-Pad1)*%
X50000000Y-61500000D02*
X47620000Y-61500000D01*
D33*
X47580000Y-61460000D02*
X48040000Y-61460000D01*
D29*
X50500000Y-63500000D02*
X50500000Y-61500000D01*
X47620000Y-61500000D02*
X47580000Y-61460000D01*
X50000000Y-61500000D02*
X51500000Y-60000000D01*
X50500000Y-61500000D02*
X50000000Y-61500000D01*
D30*
%TO.N,Net-(U1A-+)*%
X55840000Y-61925000D02*
X55840000Y-60840000D01*
X55840000Y-60840000D02*
X55000000Y-60000000D01*
X55000000Y-60000000D02*
X53500000Y-60000000D01*
%TO.N,Net-(U1B-+)*%
X53500000Y-65500000D02*
X52500000Y-65500000D01*
X54570000Y-66875000D02*
X54570000Y-66570000D01*
X54570000Y-66570000D02*
X53500000Y-65500000D01*
D29*
%TO.N,Net-(U1A--)*%
X56925000Y-57500000D02*
X56925000Y-59500000D01*
D30*
X57110000Y-59685000D02*
X56925000Y-59500000D01*
X57110000Y-61925000D02*
X57110000Y-59685000D01*
%TO.N,Net-(R7-Pad2)*%
X58380000Y-61925000D02*
X58380000Y-60045000D01*
X58925000Y-59500000D02*
X62420000Y-59500000D01*
X58380000Y-60045000D02*
X58925000Y-59500000D01*
%TO.N,Net-(R10-Pad1)*%
X57110000Y-68685000D02*
X57925000Y-69500000D01*
D29*
X60000000Y-69500000D02*
X57925000Y-69500000D01*
D30*
X57110000Y-66875000D02*
X57110000Y-68685000D01*
%TO.N,Net-(U2A-+)*%
X65885000Y-60965000D02*
X64420000Y-59500000D01*
X65885000Y-61825000D02*
X65885000Y-60965000D01*
%TO.N,Net-(U2B-+)*%
X64615000Y-66775000D02*
X64615000Y-66885000D01*
X64615000Y-66885000D02*
X62000000Y-69500000D01*
%TO.N,Net-(U2A--)*%
X66920000Y-59500000D02*
X66920000Y-57500000D01*
X67155000Y-61825000D02*
X67155000Y-59735000D01*
X67155000Y-59735000D02*
X66920000Y-59500000D01*
D29*
%TO.N,Net-(R14-Pad2)*%
X75460000Y-61460000D02*
X72960000Y-61460000D01*
X72960000Y-61460000D02*
X72420000Y-62000000D01*
%TO.N,Net-(R15-Pad2)*%
X75460000Y-66540000D02*
X72960000Y-66540000D01*
X72960000Y-66540000D02*
X72500000Y-67000000D01*
%TD*%
%TA.AperFunction,Conductor*%
%TO.N,GND*%
G36*
X48801257Y-55020185D02*
G01*
X48821899Y-55036819D01*
X49363181Y-55578101D01*
X49396666Y-55639424D01*
X49399500Y-55665782D01*
X49399500Y-56500001D01*
X49399501Y-56500019D01*
X49410000Y-56602796D01*
X49410001Y-56602799D01*
X49452372Y-56730663D01*
X49465186Y-56769334D01*
X49557288Y-56918656D01*
X49681344Y-57042712D01*
X49830666Y-57134814D01*
X49997203Y-57189999D01*
X50099991Y-57200500D01*
X50900008Y-57200499D01*
X50900016Y-57200498D01*
X50900019Y-57200498D01*
X50956302Y-57194748D01*
X51002797Y-57189999D01*
X51169334Y-57134814D01*
X51318656Y-57042712D01*
X51325319Y-57036049D01*
X51386642Y-57002564D01*
X51456334Y-57007548D01*
X51512267Y-57049420D01*
X51536684Y-57114884D01*
X51537000Y-57123730D01*
X51537000Y-58200723D01*
X51534617Y-58224914D01*
X51499500Y-58401456D01*
X51499500Y-58401460D01*
X51499500Y-58598540D01*
X51500347Y-58602796D01*
X51509996Y-58651310D01*
X51503767Y-58720902D01*
X51460904Y-58776079D01*
X51395014Y-58799322D01*
X51388378Y-58799500D01*
X51099999Y-58799500D01*
X51099980Y-58799501D01*
X50997203Y-58810000D01*
X50997200Y-58810001D01*
X50830668Y-58865185D01*
X50830663Y-58865187D01*
X50681342Y-58957289D01*
X50557289Y-59081342D01*
X50465187Y-59230663D01*
X50465186Y-59230666D01*
X50410001Y-59397203D01*
X50410001Y-59397204D01*
X50410000Y-59397204D01*
X50399500Y-59499983D01*
X50399500Y-59634217D01*
X50379815Y-59701256D01*
X50363181Y-59721898D01*
X49621899Y-60463181D01*
X49594971Y-60477884D01*
X49569153Y-60494477D01*
X49562952Y-60495368D01*
X49560576Y-60496666D01*
X49534218Y-60499500D01*
X49419737Y-60499500D01*
X49352698Y-60479815D01*
X49306943Y-60427011D01*
X49303555Y-60418833D01*
X49293797Y-60392671D01*
X49293793Y-60392664D01*
X49207547Y-60277455D01*
X49207544Y-60277452D01*
X49092335Y-60191206D01*
X49092328Y-60191202D01*
X48957482Y-60140908D01*
X48957483Y-60140908D01*
X48897883Y-60134501D01*
X48897881Y-60134500D01*
X48897873Y-60134500D01*
X48897864Y-60134500D01*
X46262129Y-60134500D01*
X46262123Y-60134501D01*
X46202516Y-60140908D01*
X46167833Y-60153845D01*
X46098141Y-60158829D01*
X46036818Y-60125344D01*
X46003334Y-60064020D01*
X46000500Y-60037663D01*
X46000500Y-59324499D01*
X46020185Y-59257460D01*
X46072989Y-59211705D01*
X46124495Y-59200499D01*
X46900008Y-59200499D01*
X46900016Y-59200498D01*
X46900019Y-59200498D01*
X46956302Y-59194748D01*
X47002797Y-59189999D01*
X47169334Y-59134814D01*
X47318656Y-59042712D01*
X47442712Y-58918656D01*
X47534814Y-58769334D01*
X47589999Y-58602797D01*
X47600500Y-58500009D01*
X47600499Y-57499992D01*
X47599998Y-57495092D01*
X47589999Y-57397203D01*
X47589998Y-57397200D01*
X47589983Y-57397156D01*
X47534814Y-57230666D01*
X47516207Y-57200499D01*
X47443961Y-57083368D01*
X47439265Y-57066810D01*
X47430523Y-57053207D01*
X47425500Y-57018272D01*
X47425500Y-56864866D01*
X47443962Y-56799768D01*
X47447314Y-56794334D01*
X47502499Y-56627797D01*
X47513000Y-56525009D01*
X47512999Y-55474992D01*
X47511701Y-55462289D01*
X47502499Y-55372203D01*
X47502498Y-55372200D01*
X47490154Y-55334949D01*
X47447314Y-55205666D01*
X47437401Y-55189595D01*
X47418962Y-55122205D01*
X47439884Y-55055541D01*
X47493526Y-55010771D01*
X47542941Y-55000500D01*
X48734218Y-55000500D01*
X48801257Y-55020185D01*
G37*
%TD.AperFunction*%
%TA.AperFunction,Conductor*%
G36*
X57863757Y-55020185D02*
G01*
X57884399Y-55036819D01*
X57913181Y-55065601D01*
X57946666Y-55126924D01*
X57949500Y-55153282D01*
X57949500Y-56025001D01*
X57949501Y-56025019D01*
X57960000Y-56127796D01*
X57960001Y-56127799D01*
X58015185Y-56294331D01*
X58015189Y-56294340D01*
X58060657Y-56368055D01*
X58068464Y-56396587D01*
X58078802Y-56424303D01*
X58077582Y-56429910D01*
X58079097Y-56435447D01*
X58070238Y-56463672D01*
X58063951Y-56492576D01*
X58059156Y-56498981D01*
X58058174Y-56502111D01*
X58042801Y-56520831D01*
X58012680Y-56550951D01*
X57951360Y-56584436D01*
X57881668Y-56579452D01*
X57837319Y-56550951D01*
X57743657Y-56457289D01*
X57743656Y-56457288D01*
X57611349Y-56375681D01*
X57594336Y-56365187D01*
X57594331Y-56365185D01*
X57548554Y-56350016D01*
X57427797Y-56310001D01*
X57427795Y-56310000D01*
X57325010Y-56299500D01*
X56524998Y-56299500D01*
X56524980Y-56299501D01*
X56422203Y-56310000D01*
X56422200Y-56310001D01*
X56255668Y-56365185D01*
X56255663Y-56365187D01*
X56106342Y-56457289D01*
X55982289Y-56581342D01*
X55890187Y-56730663D01*
X55890185Y-56730668D01*
X55869089Y-56794331D01*
X55835001Y-56897203D01*
X55835001Y-56897204D01*
X55835000Y-56897204D01*
X55824500Y-56999983D01*
X55824500Y-58000001D01*
X55824501Y-58000019D01*
X55835000Y-58102796D01*
X55835001Y-58102799D01*
X55888529Y-58264334D01*
X55890186Y-58269334D01*
X55906039Y-58295036D01*
X55924500Y-58360132D01*
X55924500Y-58639867D01*
X55906040Y-58704961D01*
X55890187Y-58730663D01*
X55890186Y-58730665D01*
X55872540Y-58783917D01*
X55835001Y-58897203D01*
X55835001Y-58897204D01*
X55835000Y-58897204D01*
X55824500Y-58999983D01*
X55824500Y-59393059D01*
X55804815Y-59460098D01*
X55752011Y-59505853D01*
X55682853Y-59515797D01*
X55619297Y-59486772D01*
X55612819Y-59480740D01*
X55510292Y-59378213D01*
X55510288Y-59378210D01*
X55379185Y-59290609D01*
X55379172Y-59290602D01*
X55233501Y-59230264D01*
X55233489Y-59230261D01*
X55078845Y-59199500D01*
X55078842Y-59199500D01*
X54584798Y-59199500D01*
X54517759Y-59179815D01*
X54479259Y-59140597D01*
X54475691Y-59134812D01*
X54442712Y-59081344D01*
X54318656Y-58957288D01*
X54169334Y-58865186D01*
X54002797Y-58810001D01*
X54002795Y-58810000D01*
X53900016Y-58799500D01*
X53900009Y-58799500D01*
X53641662Y-58799500D01*
X53621447Y-58793564D01*
X53600410Y-58792437D01*
X53588595Y-58783917D01*
X53574623Y-58779815D01*
X53560828Y-58763895D01*
X53543737Y-58751571D01*
X53538403Y-58738015D01*
X53528868Y-58727011D01*
X53525869Y-58706158D01*
X53518156Y-58686553D01*
X53519485Y-58661755D01*
X53518924Y-58657853D01*
X53520045Y-58651309D01*
X53534932Y-58576465D01*
X53538000Y-58561041D01*
X53538000Y-57401459D01*
X53538000Y-57100974D01*
X53557685Y-57033935D01*
X53610489Y-56988180D01*
X53679647Y-56978236D01*
X53701004Y-56983268D01*
X53705662Y-56984811D01*
X53705666Y-56984814D01*
X53872203Y-57039999D01*
X53974991Y-57050500D01*
X55025008Y-57050499D01*
X55025016Y-57050498D01*
X55025019Y-57050498D01*
X55101238Y-57042712D01*
X55127797Y-57039999D01*
X55294334Y-56984814D01*
X55443656Y-56892712D01*
X55567712Y-56768656D01*
X55659814Y-56619334D01*
X55714999Y-56452797D01*
X55725500Y-56350009D01*
X55725499Y-55574992D01*
X55714999Y-55472203D01*
X55659814Y-55305666D01*
X55588221Y-55189595D01*
X55569782Y-55122204D01*
X55590705Y-55055541D01*
X55644347Y-55010771D01*
X55693761Y-55000500D01*
X57796718Y-55000500D01*
X57863757Y-55020185D01*
G37*
%TD.AperFunction*%
%TA.AperFunction,Conductor*%
G36*
X92942539Y-50520185D02*
G01*
X92988294Y-50572989D01*
X92999500Y-50624500D01*
X92999500Y-74375500D01*
X92979815Y-74442539D01*
X92927011Y-74488294D01*
X92875500Y-74499500D01*
X29624500Y-74499500D01*
X29557461Y-74479815D01*
X29511706Y-74427011D01*
X29500500Y-74375500D01*
X29500500Y-63903546D01*
X33234501Y-63903546D01*
X33234501Y-64096453D01*
X33264676Y-64286972D01*
X33324285Y-64470428D01*
X33324288Y-64470435D01*
X33400154Y-64619331D01*
X33411858Y-64642302D01*
X33525241Y-64798360D01*
X33661640Y-64934759D01*
X33817698Y-65048142D01*
X33989572Y-65135715D01*
X34173028Y-65195324D01*
X34281725Y-65212539D01*
X34363547Y-65225499D01*
X34363551Y-65225499D01*
X34556453Y-65225499D01*
X34630340Y-65213795D01*
X34746972Y-65195324D01*
X34748539Y-65194815D01*
X34750833Y-65194070D01*
X34789153Y-65188000D01*
X38736849Y-65188000D01*
X38803888Y-65207685D01*
X38849643Y-65260489D01*
X38859587Y-65329647D01*
X38842387Y-65377098D01*
X38840188Y-65380661D01*
X38840185Y-65380668D01*
X38817789Y-65448255D01*
X38785001Y-65547203D01*
X38785001Y-65547204D01*
X38785000Y-65547204D01*
X38774500Y-65649983D01*
X38774500Y-66425000D01*
X38774501Y-66425019D01*
X38785000Y-66527796D01*
X38785001Y-66527799D01*
X38840185Y-66694331D01*
X38840186Y-66694334D01*
X38932288Y-66843656D01*
X39056344Y-66967712D01*
X39205666Y-67059814D01*
X39372203Y-67114999D01*
X39403077Y-67118153D01*
X39446770Y-67131025D01*
X39529571Y-67173215D01*
X39713028Y-67232824D01*
X39903551Y-67263000D01*
X40605501Y-67263000D01*
X40672540Y-67282685D01*
X40718295Y-67335489D01*
X40729501Y-67387000D01*
X40729501Y-67412876D01*
X40735908Y-67472483D01*
X40786202Y-67607328D01*
X40786206Y-67607335D01*
X40872452Y-67722544D01*
X40872455Y-67722547D01*
X40987664Y-67808793D01*
X40987671Y-67808797D01*
X41122517Y-67859091D01*
X41122516Y-67859091D01*
X41129444Y-67859835D01*
X41182127Y-67865500D01*
X43817872Y-67865499D01*
X43877483Y-67859091D01*
X44012331Y-67808796D01*
X44127546Y-67722546D01*
X44213796Y-67607331D01*
X44264091Y-67472483D01*
X44270500Y-67412873D01*
X44270499Y-65667128D01*
X44264091Y-65607517D01*
X44261301Y-65600037D01*
X44213797Y-65472671D01*
X44213793Y-65472664D01*
X44127547Y-65357455D01*
X44127544Y-65357452D01*
X44012335Y-65271206D01*
X44012328Y-65271202D01*
X43877482Y-65220908D01*
X43877483Y-65220908D01*
X43817883Y-65214501D01*
X43817881Y-65214500D01*
X43817873Y-65214500D01*
X43817865Y-65214500D01*
X42958981Y-65214500D01*
X42891942Y-65194815D01*
X42871300Y-65178181D01*
X42795862Y-65102743D01*
X42795860Y-65102741D01*
X42639802Y-64989358D01*
X42525942Y-64931344D01*
X42525939Y-64931342D01*
X42467931Y-64901786D01*
X42467930Y-64901785D01*
X42467929Y-64901785D01*
X42284472Y-64842176D01*
X42284470Y-64842175D01*
X42284469Y-64842175D01*
X42135973Y-64818656D01*
X42093949Y-64812000D01*
X42093948Y-64812000D01*
X41263151Y-64812000D01*
X41196112Y-64792315D01*
X41150357Y-64739511D01*
X41140413Y-64670353D01*
X41157613Y-64622902D01*
X41159814Y-64619334D01*
X41214999Y-64452797D01*
X41225500Y-64350009D01*
X41225500Y-63973914D01*
X41225500Y-63951613D01*
X41999000Y-63951613D01*
X41999000Y-64048369D01*
X41999001Y-64048376D01*
X42005408Y-64107983D01*
X42055702Y-64242828D01*
X42055706Y-64242835D01*
X42141952Y-64358044D01*
X42141955Y-64358047D01*
X42257164Y-64444293D01*
X42257171Y-64444297D01*
X42392016Y-64494591D01*
X42417919Y-64497375D01*
X42451627Y-64501000D01*
X42548372Y-64500999D01*
X42607983Y-64494591D01*
X42742831Y-64444296D01*
X42858046Y-64358046D01*
X42944296Y-64242831D01*
X42994591Y-64107983D01*
X43001000Y-64048373D01*
X43000999Y-63951628D01*
X42994591Y-63892017D01*
X42984906Y-63866051D01*
X42944297Y-63757171D01*
X42944293Y-63757164D01*
X42858047Y-63641955D01*
X42858044Y-63641952D01*
X42742835Y-63555706D01*
X42742828Y-63555702D01*
X42607983Y-63505408D01*
X42548380Y-63499000D01*
X42451630Y-63499000D01*
X42451623Y-63499001D01*
X42392016Y-63505408D01*
X42257171Y-63555702D01*
X42257164Y-63555706D01*
X42141955Y-63641952D01*
X42141952Y-63641955D01*
X42055706Y-63757164D01*
X42055702Y-63757171D01*
X42005408Y-63892016D01*
X41999000Y-63951613D01*
X41225500Y-63951613D01*
X41225500Y-63866051D01*
X41225499Y-63866047D01*
X41225499Y-63574992D01*
X41220858Y-63529564D01*
X41214999Y-63472203D01*
X41214998Y-63472200D01*
X41159814Y-63305666D01*
X41067712Y-63156344D01*
X40943656Y-63032288D01*
X40837972Y-62967102D01*
X40794336Y-62940187D01*
X40794331Y-62940185D01*
X40771634Y-62932664D01*
X40627797Y-62885001D01*
X40627794Y-62885000D01*
X40627792Y-62885000D01*
X40627789Y-62884999D01*
X40596916Y-62881844D01*
X40553229Y-62868972D01*
X40470434Y-62826787D01*
X40470431Y-62826786D01*
X40470429Y-62826785D01*
X40286972Y-62767176D01*
X40286970Y-62767175D01*
X40286969Y-62767175D01*
X40140614Y-62743995D01*
X40096449Y-62737000D01*
X34401051Y-62737000D01*
X34365197Y-62742678D01*
X34210530Y-62767175D01*
X34027068Y-62826786D01*
X33991958Y-62844676D01*
X33855196Y-62914359D01*
X33855193Y-62914361D01*
X33802012Y-62953000D01*
X33699140Y-63027741D01*
X33699138Y-63027743D01*
X33699137Y-63027743D01*
X33525243Y-63201637D01*
X33525243Y-63201638D01*
X33525241Y-63201640D01*
X33497985Y-63239155D01*
X33411861Y-63357693D01*
X33411856Y-63357701D01*
X33324288Y-63529564D01*
X33324285Y-63529571D01*
X33264676Y-63713027D01*
X33234501Y-63903546D01*
X29500500Y-63903546D01*
X29500500Y-55499983D01*
X41399500Y-55499983D01*
X41399500Y-56500001D01*
X41399501Y-56500019D01*
X41410000Y-56602796D01*
X41410001Y-56602799D01*
X41452372Y-56730663D01*
X41465186Y-56769334D01*
X41481039Y-56795036D01*
X41499500Y-56860132D01*
X41499500Y-57139867D01*
X41481040Y-57204961D01*
X41465187Y-57230663D01*
X41465186Y-57230665D01*
X41465186Y-57230666D01*
X41410001Y-57397203D01*
X41410001Y-57397204D01*
X41410000Y-57397204D01*
X41399500Y-57499983D01*
X41399500Y-58500001D01*
X41399501Y-58500019D01*
X41410000Y-58602796D01*
X41410001Y-58602799D01*
X41465185Y-58769331D01*
X41465187Y-58769336D01*
X41479065Y-58791836D01*
X41557288Y-58918656D01*
X41681344Y-59042712D01*
X41830666Y-59134814D01*
X41997203Y-59189999D01*
X42099991Y-59200500D01*
X42900008Y-59200499D01*
X42900016Y-59200498D01*
X42900019Y-59200498D01*
X42956302Y-59194748D01*
X43002797Y-59189999D01*
X43169334Y-59134814D01*
X43318656Y-59042712D01*
X43412319Y-58949049D01*
X43473642Y-58915564D01*
X43543334Y-58920548D01*
X43587681Y-58949049D01*
X43681344Y-59042712D01*
X43830666Y-59134814D01*
X43914505Y-59162595D01*
X43971948Y-59202366D01*
X43998772Y-59266882D01*
X43999500Y-59280300D01*
X43999500Y-62598541D01*
X44006768Y-62635080D01*
X44006770Y-62635090D01*
X44007306Y-62637782D01*
X44037949Y-62791836D01*
X44052426Y-62826785D01*
X44056030Y-62835485D01*
X44056031Y-62835490D01*
X44113364Y-62973906D01*
X44113371Y-62973919D01*
X44121468Y-62986037D01*
X44222861Y-63137782D01*
X44362218Y-63277139D01*
X44362220Y-63277140D01*
X44369286Y-63284206D01*
X44369285Y-63284206D01*
X44369289Y-63284209D01*
X45722860Y-64637781D01*
X45773181Y-64688102D01*
X45806666Y-64749425D01*
X45809500Y-64775782D01*
X45809500Y-64872869D01*
X45809501Y-64872876D01*
X45815908Y-64932483D01*
X45866202Y-65067328D01*
X45866206Y-65067335D01*
X45957768Y-65189645D01*
X45956674Y-65190463D01*
X45985712Y-65243642D01*
X45980728Y-65313334D01*
X45957205Y-65349934D01*
X45957768Y-65350355D01*
X45866206Y-65472664D01*
X45866202Y-65472671D01*
X45815908Y-65607517D01*
X45810979Y-65653368D01*
X45809501Y-65667123D01*
X45809500Y-65667135D01*
X45809500Y-67412870D01*
X45809501Y-67412876D01*
X45815908Y-67472483D01*
X45866202Y-67607328D01*
X45866206Y-67607335D01*
X45952452Y-67722544D01*
X45952455Y-67722547D01*
X46067664Y-67808793D01*
X46067671Y-67808797D01*
X46202517Y-67859091D01*
X46202516Y-67859091D01*
X46209444Y-67859835D01*
X46262127Y-67865500D01*
X47439217Y-67865499D01*
X47506256Y-67885184D01*
X47526898Y-67901818D01*
X47759735Y-68134655D01*
X47759764Y-68134686D01*
X47902214Y-68277136D01*
X47902218Y-68277139D01*
X48066079Y-68386628D01*
X48066092Y-68386635D01*
X48134068Y-68414791D01*
X48186271Y-68436414D01*
X48248164Y-68462051D01*
X48344812Y-68481275D01*
X48357883Y-68483875D01*
X48441458Y-68500500D01*
X48441459Y-68500500D01*
X48441460Y-68500500D01*
X48638540Y-68500500D01*
X50401459Y-68500500D01*
X51639868Y-68500500D01*
X51704963Y-68518960D01*
X51730666Y-68534814D01*
X51897203Y-68589999D01*
X51999991Y-68600500D01*
X53000008Y-68600499D01*
X53000016Y-68600498D01*
X53000019Y-68600498D01*
X53056302Y-68594748D01*
X53102797Y-68589999D01*
X53269334Y-68534814D01*
X53418656Y-68442712D01*
X53542712Y-68318656D01*
X53634814Y-68169334D01*
X53659342Y-68095310D01*
X53699114Y-68037866D01*
X53763630Y-68011043D01*
X53832406Y-68023358D01*
X53883606Y-68070901D01*
X53883780Y-68071194D01*
X53901916Y-68101861D01*
X53901923Y-68101870D01*
X54018129Y-68218076D01*
X54018133Y-68218079D01*
X54018135Y-68218081D01*
X54159602Y-68301744D01*
X54188019Y-68310000D01*
X54317426Y-68347597D01*
X54317429Y-68347597D01*
X54317431Y-68347598D01*
X54354306Y-68350500D01*
X54354314Y-68350500D01*
X54785686Y-68350500D01*
X54785694Y-68350500D01*
X54822569Y-68347598D01*
X54822571Y-68347597D01*
X54822573Y-68347597D01*
X54880905Y-68330650D01*
X54907158Y-68330724D01*
X54933147Y-68326988D01*
X54941543Y-68330822D01*
X54950774Y-68330849D01*
X54972819Y-68345105D01*
X54996703Y-68356013D01*
X55001693Y-68363778D01*
X55009444Y-68368791D01*
X55020282Y-68392703D01*
X55034477Y-68414791D01*
X55036420Y-68428309D01*
X55038288Y-68432429D01*
X55039500Y-68449726D01*
X55039500Y-68472770D01*
X55019815Y-68539809D01*
X55003181Y-68560451D01*
X54982289Y-68581342D01*
X54890187Y-68730663D01*
X54890186Y-68730666D01*
X54835001Y-68897203D01*
X54835001Y-68897204D01*
X54835000Y-68897204D01*
X54824500Y-68999983D01*
X54824500Y-70000001D01*
X54824501Y-70000019D01*
X54835000Y-70102796D01*
X54835001Y-70102799D01*
X54890185Y-70269331D01*
X54890187Y-70269336D01*
X54982290Y-70418659D01*
X54983164Y-70419764D01*
X54983527Y-70420664D01*
X54986080Y-70424803D01*
X54985372Y-70425239D01*
X55009306Y-70484559D01*
X54996268Y-70553201D01*
X54991439Y-70561773D01*
X54902689Y-70705659D01*
X54902686Y-70705666D01*
X54847501Y-70872203D01*
X54847501Y-70872204D01*
X54847500Y-70872204D01*
X54837000Y-70974983D01*
X54837000Y-72025001D01*
X54837001Y-72025019D01*
X54847500Y-72127796D01*
X54847501Y-72127799D01*
X54870943Y-72198541D01*
X54902686Y-72294334D01*
X54994788Y-72443656D01*
X55118844Y-72567712D01*
X55268166Y-72659814D01*
X55434703Y-72714999D01*
X55537491Y-72725500D01*
X56312508Y-72725499D01*
X56312516Y-72725498D01*
X56312519Y-72725498D01*
X56368802Y-72719748D01*
X56415297Y-72714999D01*
X56581834Y-72659814D01*
X56731156Y-72567712D01*
X56855212Y-72443656D01*
X56856961Y-72440819D01*
X56858669Y-72439283D01*
X56859693Y-72437989D01*
X56859914Y-72438163D01*
X56908906Y-72394096D01*
X56977868Y-72382872D01*
X57041951Y-72410713D01*
X57068037Y-72440817D01*
X57069788Y-72443656D01*
X57193844Y-72567712D01*
X57343166Y-72659814D01*
X57509703Y-72714999D01*
X57612491Y-72725500D01*
X57635036Y-72725499D01*
X57682491Y-72734937D01*
X57766503Y-72769737D01*
X57921153Y-72800499D01*
X57921156Y-72800500D01*
X57921158Y-72800500D01*
X58078844Y-72800500D01*
X58078845Y-72800499D01*
X58233497Y-72769737D01*
X58317509Y-72734937D01*
X58364962Y-72725499D01*
X58387502Y-72725499D01*
X58387508Y-72725499D01*
X58490297Y-72714999D01*
X58656834Y-72659814D01*
X58806156Y-72567712D01*
X58930212Y-72443656D01*
X59022314Y-72294334D01*
X59077499Y-72127797D01*
X59088000Y-72025009D01*
X59087999Y-70974992D01*
X59087255Y-70967712D01*
X59077499Y-70872203D01*
X59077498Y-70872200D01*
X59037500Y-70751494D01*
X59022314Y-70705666D01*
X59022312Y-70705663D01*
X59020752Y-70700954D01*
X59018350Y-70631126D01*
X59054082Y-70571084D01*
X59116602Y-70539891D01*
X59186061Y-70547451D01*
X59203547Y-70556407D01*
X59330666Y-70634814D01*
X59497203Y-70689999D01*
X59599991Y-70700500D01*
X60400008Y-70700499D01*
X60400016Y-70700498D01*
X60400019Y-70700498D01*
X60460389Y-70694331D01*
X60502797Y-70689999D01*
X60669334Y-70634814D01*
X60818656Y-70542712D01*
X60912319Y-70449049D01*
X60973642Y-70415564D01*
X61043334Y-70420548D01*
X61087681Y-70449049D01*
X61181344Y-70542712D01*
X61330666Y-70634814D01*
X61497203Y-70689999D01*
X61599991Y-70700500D01*
X62400008Y-70700499D01*
X62400016Y-70700498D01*
X62400019Y-70700498D01*
X62460389Y-70694331D01*
X62502797Y-70689999D01*
X62669334Y-70634814D01*
X62818656Y-70542712D01*
X62942712Y-70418656D01*
X63034814Y-70269334D01*
X63089999Y-70102797D01*
X63100500Y-70000009D01*
X63100499Y-69582938D01*
X63120183Y-69515900D01*
X63136813Y-69495263D01*
X64345258Y-68286819D01*
X64406581Y-68253334D01*
X64432939Y-68250500D01*
X64830686Y-68250500D01*
X64830694Y-68250500D01*
X64867569Y-68247598D01*
X64867571Y-68247597D01*
X64867573Y-68247597D01*
X64925905Y-68230650D01*
X64952158Y-68230724D01*
X64978147Y-68226988D01*
X64986543Y-68230822D01*
X64995774Y-68230849D01*
X65017819Y-68245105D01*
X65041703Y-68256013D01*
X65046693Y-68263778D01*
X65054444Y-68268791D01*
X65065282Y-68292703D01*
X65079477Y-68314791D01*
X65081420Y-68328309D01*
X65083288Y-68332429D01*
X65084500Y-68349726D01*
X65084500Y-68422770D01*
X65064815Y-68489809D01*
X65048181Y-68510451D01*
X64977289Y-68581342D01*
X64885187Y-68730663D01*
X64885186Y-68730666D01*
X64830001Y-68897203D01*
X64830001Y-68897204D01*
X64830000Y-68897204D01*
X64819500Y-68999983D01*
X64819500Y-70000001D01*
X64819501Y-70000019D01*
X64830000Y-70102796D01*
X64830001Y-70102799D01*
X64885185Y-70269331D01*
X64885189Y-70269340D01*
X64968806Y-70404906D01*
X64987246Y-70472298D01*
X64966323Y-70538962D01*
X64956726Y-70550649D01*
X64956766Y-70550681D01*
X64952290Y-70556341D01*
X64860187Y-70705663D01*
X64860186Y-70705666D01*
X64805001Y-70872203D01*
X64805001Y-70872204D01*
X64805000Y-70872204D01*
X64794500Y-70974983D01*
X64794500Y-72025001D01*
X64794501Y-72025019D01*
X64805000Y-72127796D01*
X64805001Y-72127799D01*
X64828443Y-72198541D01*
X64860186Y-72294334D01*
X64952288Y-72443656D01*
X65076344Y-72567712D01*
X65225666Y-72659814D01*
X65392203Y-72714999D01*
X65494991Y-72725500D01*
X66270008Y-72725499D01*
X66270016Y-72725498D01*
X66270019Y-72725498D01*
X66326302Y-72719748D01*
X66372797Y-72714999D01*
X66539334Y-72659814D01*
X66648770Y-72592313D01*
X66716161Y-72573874D01*
X66782824Y-72594797D01*
X66803735Y-72612416D01*
X66811060Y-72620121D01*
X66822861Y-72637782D01*
X66922860Y-72737781D01*
X66922861Y-72737782D01*
X67062218Y-72877139D01*
X67226086Y-72986632D01*
X67332745Y-73030811D01*
X67408164Y-73062051D01*
X67601454Y-73100499D01*
X67601457Y-73100500D01*
X67601459Y-73100500D01*
X68698543Y-73100500D01*
X68828582Y-73074632D01*
X68891835Y-73062051D01*
X69073914Y-72986632D01*
X69237782Y-72877139D01*
X69377139Y-72737782D01*
X69377140Y-72737781D01*
X69377141Y-72737780D01*
X69486628Y-72573920D01*
X69486628Y-72573919D01*
X69486632Y-72573914D01*
X69562051Y-72391835D01*
X69581446Y-72294331D01*
X69600500Y-72198543D01*
X69600500Y-71223194D01*
X69620185Y-71156155D01*
X69672989Y-71110400D01*
X69742147Y-71100456D01*
X69763498Y-71105487D01*
X69792203Y-71114999D01*
X69894991Y-71125500D01*
X70945008Y-71125499D01*
X70945016Y-71125498D01*
X70945019Y-71125498D01*
X71001302Y-71119748D01*
X71047797Y-71114999D01*
X71214334Y-71059814D01*
X71363656Y-70967712D01*
X71487712Y-70843656D01*
X71579814Y-70694334D01*
X71634999Y-70527797D01*
X71645500Y-70425009D01*
X71645499Y-70178310D01*
X71665183Y-70111273D01*
X71717987Y-70065518D01*
X71787146Y-70055574D01*
X71808495Y-70060604D01*
X71897203Y-70089999D01*
X71999991Y-70100500D01*
X73000008Y-70100499D01*
X73000016Y-70100498D01*
X73000019Y-70100498D01*
X73056302Y-70094748D01*
X73102797Y-70089999D01*
X73269334Y-70034814D01*
X73418656Y-69942712D01*
X73542712Y-69818656D01*
X73634814Y-69669334D01*
X73689999Y-69502797D01*
X73700500Y-69400009D01*
X73700499Y-68599992D01*
X73695489Y-68550951D01*
X73689999Y-68497203D01*
X73689998Y-68497200D01*
X73686854Y-68487713D01*
X73634814Y-68330666D01*
X73542712Y-68181344D01*
X73449049Y-68087681D01*
X73415564Y-68026358D01*
X73420548Y-67956666D01*
X73449049Y-67912319D01*
X73495870Y-67865498D01*
X73542712Y-67818656D01*
X73610466Y-67708807D01*
X73662414Y-67662083D01*
X73731376Y-67650860D01*
X73795458Y-67678703D01*
X73815269Y-67699589D01*
X73832454Y-67722546D01*
X73869000Y-67749904D01*
X73947664Y-67808793D01*
X73947671Y-67808797D01*
X74082517Y-67859091D01*
X74082516Y-67859091D01*
X74089444Y-67859835D01*
X74142127Y-67865500D01*
X76777872Y-67865499D01*
X76837483Y-67859091D01*
X76972331Y-67808796D01*
X77087546Y-67722546D01*
X77173796Y-67607331D01*
X77224091Y-67472483D01*
X77230500Y-67412873D01*
X77230499Y-65667128D01*
X77224091Y-65607517D01*
X77221301Y-65600037D01*
X77173797Y-65472671D01*
X77173793Y-65472664D01*
X77087547Y-65357455D01*
X77087544Y-65357452D01*
X76972335Y-65271206D01*
X76972328Y-65271202D01*
X76837482Y-65220908D01*
X76837483Y-65220908D01*
X76777883Y-65214501D01*
X76777881Y-65214500D01*
X76777873Y-65214500D01*
X76777864Y-65214500D01*
X74142129Y-65214500D01*
X74142123Y-65214501D01*
X74082516Y-65220908D01*
X73947671Y-65271202D01*
X73947664Y-65271206D01*
X73832455Y-65357452D01*
X73832452Y-65357455D01*
X73746207Y-65472663D01*
X73744973Y-65474924D01*
X73743150Y-65476746D01*
X73740888Y-65479769D01*
X73740453Y-65479443D01*
X73695569Y-65524331D01*
X73636139Y-65539500D01*
X72861455Y-65539500D01*
X72764812Y-65558724D01*
X72668167Y-65577947D01*
X72668161Y-65577949D01*
X72614834Y-65600037D01*
X72614834Y-65600038D01*
X72578583Y-65615054D01*
X72486089Y-65653366D01*
X72486079Y-65653371D01*
X72322221Y-65762858D01*
X72322216Y-65762862D01*
X72221895Y-65863182D01*
X72160572Y-65896666D01*
X72134216Y-65899500D01*
X71999999Y-65899500D01*
X71999980Y-65899501D01*
X71897203Y-65910000D01*
X71897200Y-65910001D01*
X71730668Y-65965185D01*
X71730663Y-65965187D01*
X71581342Y-66057289D01*
X71457289Y-66181342D01*
X71365187Y-66330663D01*
X71365185Y-66330668D01*
X71337349Y-66414670D01*
X71310001Y-66497203D01*
X71310001Y-66497204D01*
X71310000Y-66497204D01*
X71299500Y-66599983D01*
X71299500Y-66796687D01*
X71279815Y-66863726D01*
X71227011Y-66909481D01*
X71157853Y-66919425D01*
X71136496Y-66914393D01*
X71047797Y-66885001D01*
X71047795Y-66885000D01*
X70945010Y-66874500D01*
X69894998Y-66874500D01*
X69894980Y-66874501D01*
X69792203Y-66885000D01*
X69792200Y-66885001D01*
X69625668Y-66940185D01*
X69625663Y-66940187D01*
X69476342Y-67032289D01*
X69437181Y-67071451D01*
X69375858Y-67104936D01*
X69306166Y-67099952D01*
X69250233Y-67058080D01*
X69225816Y-66992616D01*
X69225500Y-66983770D01*
X69225500Y-65884313D01*
X69225499Y-65884298D01*
X69223837Y-65863182D01*
X69222598Y-65847431D01*
X69207523Y-65795544D01*
X69176745Y-65689606D01*
X69176744Y-65689603D01*
X69176744Y-65689602D01*
X69093081Y-65548135D01*
X69093079Y-65548133D01*
X69093076Y-65548129D01*
X69079855Y-65534908D01*
X69064435Y-65516119D01*
X69046789Y-65489711D01*
X69046784Y-65489705D01*
X68935292Y-65378213D01*
X68935288Y-65378210D01*
X68804185Y-65290609D01*
X68804172Y-65290602D01*
X68658501Y-65230264D01*
X68658489Y-65230261D01*
X68503845Y-65199500D01*
X68503842Y-65199500D01*
X68346158Y-65199500D01*
X68346155Y-65199500D01*
X68191510Y-65230261D01*
X68191498Y-65230264D01*
X68045827Y-65290602D01*
X68045814Y-65290609D01*
X67914711Y-65378210D01*
X67914707Y-65378213D01*
X67870971Y-65421950D01*
X67809648Y-65455435D01*
X67739956Y-65450451D01*
X67713640Y-65435787D01*
X67713580Y-65435890D01*
X67709585Y-65433527D01*
X67707289Y-65432248D01*
X67706863Y-65431917D01*
X67565396Y-65348255D01*
X67565393Y-65348254D01*
X67407573Y-65302402D01*
X67407567Y-65302401D01*
X67370701Y-65299500D01*
X67370694Y-65299500D01*
X66939306Y-65299500D01*
X66939298Y-65299500D01*
X66902432Y-65302401D01*
X66902426Y-65302402D01*
X66744606Y-65348254D01*
X66744603Y-65348255D01*
X66603137Y-65431917D01*
X66596969Y-65436702D01*
X66595072Y-65434256D01*
X66546358Y-65460857D01*
X66476666Y-65455873D01*
X66444296Y-65435069D01*
X66443031Y-65436702D01*
X66436862Y-65431917D01*
X66320635Y-65363181D01*
X66295398Y-65348256D01*
X66295397Y-65348255D01*
X66295396Y-65348255D01*
X66295393Y-65348254D01*
X66137573Y-65302402D01*
X66137567Y-65302401D01*
X66100701Y-65299500D01*
X66100694Y-65299500D01*
X65669306Y-65299500D01*
X65669298Y-65299500D01*
X65632432Y-65302401D01*
X65632426Y-65302402D01*
X65474606Y-65348254D01*
X65474603Y-65348255D01*
X65333137Y-65431917D01*
X65326969Y-65436702D01*
X65325072Y-65434256D01*
X65276358Y-65460857D01*
X65206666Y-65455873D01*
X65174296Y-65435069D01*
X65173031Y-65436702D01*
X65166862Y-65431917D01*
X65050635Y-65363181D01*
X65025398Y-65348256D01*
X65025397Y-65348255D01*
X65025396Y-65348255D01*
X65025393Y-65348254D01*
X64867573Y-65302402D01*
X64867567Y-65302401D01*
X64830701Y-65299500D01*
X64830694Y-65299500D01*
X64399306Y-65299500D01*
X64399298Y-65299500D01*
X64362432Y-65302401D01*
X64362426Y-65302402D01*
X64204606Y-65348254D01*
X64204603Y-65348255D01*
X64063137Y-65431917D01*
X64063129Y-65431923D01*
X63946923Y-65548129D01*
X63946917Y-65548137D01*
X63863255Y-65689603D01*
X63863254Y-65689606D01*
X63817402Y-65847426D01*
X63817401Y-65847432D01*
X63814500Y-65884298D01*
X63814500Y-66502059D01*
X63794815Y-66569098D01*
X63778181Y-66589740D01*
X62104739Y-68263181D01*
X62043416Y-68296666D01*
X62017058Y-68299500D01*
X61599998Y-68299500D01*
X61599980Y-68299501D01*
X61497203Y-68310000D01*
X61497200Y-68310001D01*
X61330668Y-68365185D01*
X61330663Y-68365187D01*
X61181342Y-68457289D01*
X61087681Y-68550951D01*
X61026358Y-68584436D01*
X60956666Y-68579452D01*
X60912319Y-68550951D01*
X60818657Y-68457289D01*
X60818656Y-68457288D01*
X60721555Y-68397396D01*
X60669336Y-68365187D01*
X60669331Y-68365185D01*
X60665085Y-68363778D01*
X60502797Y-68310001D01*
X60502795Y-68310000D01*
X60400010Y-68299500D01*
X59599998Y-68299500D01*
X59599980Y-68299501D01*
X59497203Y-68310000D01*
X59497200Y-68310001D01*
X59330668Y-68365185D01*
X59330663Y-68365187D01*
X59181342Y-68457289D01*
X59175451Y-68463181D01*
X59148523Y-68477884D01*
X59122705Y-68494477D01*
X59116504Y-68495368D01*
X59114128Y-68496666D01*
X59087770Y-68499500D01*
X58909279Y-68499500D01*
X58842240Y-68479815D01*
X58796485Y-68427011D01*
X58786541Y-68357853D01*
X58815566Y-68294297D01*
X58846158Y-68268768D01*
X58910321Y-68230822D01*
X58931865Y-68218081D01*
X59048081Y-68101865D01*
X59131744Y-67960398D01*
X59131745Y-67960394D01*
X59134843Y-67953236D01*
X59137227Y-67954267D01*
X59168043Y-67906018D01*
X59231516Y-67876813D01*
X59249511Y-67875500D01*
X59601459Y-67875500D01*
X61063565Y-67875500D01*
X61087755Y-67877882D01*
X61113915Y-67883086D01*
X61201456Y-67900500D01*
X61201459Y-67900500D01*
X61398544Y-67900500D01*
X61398545Y-67900499D01*
X61591837Y-67862051D01*
X61773916Y-67786631D01*
X61937783Y-67677139D01*
X62077141Y-67537781D01*
X62186633Y-67373914D01*
X62262053Y-67191835D01*
X62300502Y-66998540D01*
X62300502Y-66801459D01*
X62300502Y-66801456D01*
X62300501Y-66801454D01*
X62262054Y-66608171D01*
X62262053Y-66608164D01*
X62186633Y-66426085D01*
X62186632Y-66426084D01*
X62186629Y-66426078D01*
X62077142Y-66262219D01*
X62077141Y-66262218D01*
X61996267Y-66181344D01*
X61912784Y-66097861D01*
X61912783Y-66097860D01*
X61912782Y-66097859D01*
X61748922Y-65988371D01*
X61748913Y-65988366D01*
X61676317Y-65958296D01*
X61620167Y-65935038D01*
X61566838Y-65912949D01*
X61566834Y-65912948D01*
X61566830Y-65912946D01*
X61470190Y-65893724D01*
X61373546Y-65874500D01*
X61373543Y-65874500D01*
X59249511Y-65874500D01*
X59182472Y-65854815D01*
X59136717Y-65802011D01*
X59134315Y-65795544D01*
X59131743Y-65789600D01*
X59072604Y-65689602D01*
X59048081Y-65648135D01*
X59048079Y-65648133D01*
X59048076Y-65648129D01*
X58931870Y-65531923D01*
X58931862Y-65531917D01*
X58811705Y-65460857D01*
X58790398Y-65448256D01*
X58790397Y-65448255D01*
X58790396Y-65448255D01*
X58790393Y-65448254D01*
X58632573Y-65402402D01*
X58632567Y-65402401D01*
X58595701Y-65399500D01*
X58595694Y-65399500D01*
X58164306Y-65399500D01*
X58164298Y-65399500D01*
X58127432Y-65402401D01*
X58127426Y-65402402D01*
X57969606Y-65448254D01*
X57969603Y-65448255D01*
X57828137Y-65531917D01*
X57821969Y-65536702D01*
X57820072Y-65534256D01*
X57771358Y-65560857D01*
X57701666Y-65555873D01*
X57669296Y-65535069D01*
X57668031Y-65536702D01*
X57661862Y-65531917D01*
X57541705Y-65460857D01*
X57520398Y-65448256D01*
X57520397Y-65448255D01*
X57520396Y-65448255D01*
X57520393Y-65448254D01*
X57362573Y-65402402D01*
X57362567Y-65402401D01*
X57325701Y-65399500D01*
X57325694Y-65399500D01*
X56894306Y-65399500D01*
X56894298Y-65399500D01*
X56857432Y-65402401D01*
X56857426Y-65402402D01*
X56699606Y-65448254D01*
X56699603Y-65448255D01*
X56558137Y-65531917D01*
X56551969Y-65536702D01*
X56550072Y-65534256D01*
X56501358Y-65560857D01*
X56431666Y-65555873D01*
X56399296Y-65535069D01*
X56398031Y-65536702D01*
X56391862Y-65531917D01*
X56271705Y-65460857D01*
X56250398Y-65448256D01*
X56250397Y-65448255D01*
X56250396Y-65448255D01*
X56250393Y-65448254D01*
X56092573Y-65402402D01*
X56092567Y-65402401D01*
X56055701Y-65399500D01*
X56055694Y-65399500D01*
X55624306Y-65399500D01*
X55624298Y-65399500D01*
X55587432Y-65402401D01*
X55587426Y-65402402D01*
X55429606Y-65448254D01*
X55429603Y-65448255D01*
X55288137Y-65531917D01*
X55281969Y-65536702D01*
X55280072Y-65534256D01*
X55231358Y-65560857D01*
X55161666Y-65555873D01*
X55129296Y-65535069D01*
X55128031Y-65536702D01*
X55121862Y-65531917D01*
X55001705Y-65460857D01*
X54980398Y-65448256D01*
X54980397Y-65448255D01*
X54980396Y-65448255D01*
X54980393Y-65448254D01*
X54822573Y-65402402D01*
X54822567Y-65402401D01*
X54785701Y-65399500D01*
X54785694Y-65399500D01*
X54582940Y-65399500D01*
X54515901Y-65379815D01*
X54495259Y-65363181D01*
X54010292Y-64878213D01*
X54010288Y-64878210D01*
X53879185Y-64790609D01*
X53879172Y-64790602D01*
X53733501Y-64730264D01*
X53733491Y-64730261D01*
X53593296Y-64702374D01*
X53531385Y-64669989D01*
X53529807Y-64668439D01*
X53480699Y-64619331D01*
X53418656Y-64557288D01*
X53327398Y-64501000D01*
X53269336Y-64465187D01*
X53269331Y-64465185D01*
X53267862Y-64464698D01*
X53102797Y-64410001D01*
X53102795Y-64410000D01*
X53000010Y-64399500D01*
X51999998Y-64399500D01*
X51999980Y-64399501D01*
X51897203Y-64410000D01*
X51897200Y-64410001D01*
X51730668Y-64465185D01*
X51730653Y-64465192D01*
X51726703Y-64467629D01*
X51659310Y-64486065D01*
X51592648Y-64465138D01*
X51547882Y-64411493D01*
X51539225Y-64342161D01*
X51556073Y-64296994D01*
X51634814Y-64169334D01*
X51689999Y-64002797D01*
X51700500Y-63900009D01*
X51700499Y-63099992D01*
X51698229Y-63077774D01*
X51689999Y-62997203D01*
X51689998Y-62997200D01*
X51676566Y-62956666D01*
X51634814Y-62830666D01*
X51542712Y-62681344D01*
X51536819Y-62675451D01*
X51503334Y-62614128D01*
X51500500Y-62587770D01*
X51500500Y-61465782D01*
X51509144Y-61436341D01*
X51515668Y-61406355D01*
X51519422Y-61401339D01*
X51520185Y-61398743D01*
X51536819Y-61378101D01*
X51678102Y-61236818D01*
X51739425Y-61203333D01*
X51765783Y-61200499D01*
X51900002Y-61200499D01*
X51900008Y-61200499D01*
X52002797Y-61189999D01*
X52169334Y-61134814D01*
X52318656Y-61042712D01*
X52412319Y-60949049D01*
X52473642Y-60915564D01*
X52543334Y-60920548D01*
X52587681Y-60949049D01*
X52681344Y-61042712D01*
X52830666Y-61134814D01*
X52997203Y-61189999D01*
X53099991Y-61200500D01*
X53900008Y-61200499D01*
X53900016Y-61200498D01*
X53900019Y-61200498D01*
X53956302Y-61194748D01*
X54002797Y-61189999D01*
X54169334Y-61134814D01*
X54318656Y-61042712D01*
X54442712Y-60918656D01*
X54479259Y-60859402D01*
X54486846Y-60852578D01*
X54491085Y-60843297D01*
X54512384Y-60829608D01*
X54531207Y-60812679D01*
X54542842Y-60810034D01*
X54549863Y-60805523D01*
X54584798Y-60800500D01*
X54617060Y-60800500D01*
X54684099Y-60820185D01*
X54704741Y-60836819D01*
X55003181Y-61135259D01*
X55036666Y-61196582D01*
X55039500Y-61222940D01*
X55039500Y-62815701D01*
X55042401Y-62852567D01*
X55042402Y-62852573D01*
X55088254Y-63010393D01*
X55088255Y-63010396D01*
X55171917Y-63151862D01*
X55171923Y-63151870D01*
X55288129Y-63268076D01*
X55288133Y-63268079D01*
X55288135Y-63268081D01*
X55429602Y-63351744D01*
X55450096Y-63357698D01*
X55587426Y-63397597D01*
X55587429Y-63397597D01*
X55587431Y-63397598D01*
X55624306Y-63400500D01*
X55624314Y-63400500D01*
X56055686Y-63400500D01*
X56055694Y-63400500D01*
X56092569Y-63397598D01*
X56092571Y-63397597D01*
X56092573Y-63397597D01*
X56134191Y-63385505D01*
X56250398Y-63351744D01*
X56391865Y-63268081D01*
X56391870Y-63268075D01*
X56398031Y-63263298D01*
X56399933Y-63265750D01*
X56448579Y-63239155D01*
X56518274Y-63244104D01*
X56550695Y-63264940D01*
X56551969Y-63263298D01*
X56558132Y-63268078D01*
X56558135Y-63268081D01*
X56699602Y-63351744D01*
X56720096Y-63357698D01*
X56857426Y-63397597D01*
X56857429Y-63397597D01*
X56857431Y-63397598D01*
X56894306Y-63400500D01*
X56894314Y-63400500D01*
X57325686Y-63400500D01*
X57325694Y-63400500D01*
X57362569Y-63397598D01*
X57362571Y-63397597D01*
X57362573Y-63397597D01*
X57404191Y-63385505D01*
X57520398Y-63351744D01*
X57661865Y-63268081D01*
X57661870Y-63268075D01*
X57668031Y-63263298D01*
X57669933Y-63265750D01*
X57718579Y-63239155D01*
X57788274Y-63244104D01*
X57820695Y-63264940D01*
X57821969Y-63263298D01*
X57828132Y-63268078D01*
X57828135Y-63268081D01*
X57969602Y-63351744D01*
X57990096Y-63357698D01*
X58127426Y-63397597D01*
X58127429Y-63397597D01*
X58127431Y-63397598D01*
X58164306Y-63400500D01*
X58164314Y-63400500D01*
X58595686Y-63400500D01*
X58595694Y-63400500D01*
X58632569Y-63397598D01*
X58632571Y-63397597D01*
X58632573Y-63397597D01*
X58674191Y-63385505D01*
X58790398Y-63351744D01*
X58931865Y-63268081D01*
X59048081Y-63151865D01*
X59131744Y-63010398D01*
X59169776Y-62879491D01*
X59177597Y-62852573D01*
X59177598Y-62852567D01*
X59178942Y-62835490D01*
X59180500Y-62815694D01*
X59180500Y-61034306D01*
X59180500Y-60824499D01*
X59200185Y-60757460D01*
X59252989Y-60711705D01*
X59304500Y-60700499D01*
X59325002Y-60700499D01*
X59325008Y-60700499D01*
X59427797Y-60689999D01*
X59594334Y-60634814D01*
X59743656Y-60542712D01*
X59867712Y-60418656D01*
X59904259Y-60359402D01*
X59956207Y-60312679D01*
X60009798Y-60300500D01*
X61335202Y-60300500D01*
X61402241Y-60320185D01*
X61440739Y-60359401D01*
X61477288Y-60418656D01*
X61601344Y-60542712D01*
X61750666Y-60634814D01*
X61917203Y-60689999D01*
X62019991Y-60700500D01*
X62820008Y-60700499D01*
X62820016Y-60700498D01*
X62820019Y-60700498D01*
X62876302Y-60694748D01*
X62922797Y-60689999D01*
X63089334Y-60634814D01*
X63238656Y-60542712D01*
X63332319Y-60449049D01*
X63393642Y-60415564D01*
X63463334Y-60420548D01*
X63507681Y-60449049D01*
X63601344Y-60542712D01*
X63750666Y-60634814D01*
X63917203Y-60689999D01*
X64019991Y-60700500D01*
X64437059Y-60700499D01*
X64504098Y-60720183D01*
X64524740Y-60736818D01*
X65048181Y-61260259D01*
X65081666Y-61321582D01*
X65084500Y-61347940D01*
X65084500Y-62715701D01*
X65087401Y-62752567D01*
X65087402Y-62752573D01*
X65133254Y-62910393D01*
X65133255Y-62910396D01*
X65216917Y-63051862D01*
X65216923Y-63051870D01*
X65333129Y-63168076D01*
X65333133Y-63168079D01*
X65333135Y-63168081D01*
X65474602Y-63251744D01*
X65514371Y-63263298D01*
X65632426Y-63297597D01*
X65632429Y-63297597D01*
X65632431Y-63297598D01*
X65669306Y-63300500D01*
X65669314Y-63300500D01*
X66100686Y-63300500D01*
X66100694Y-63300500D01*
X66137569Y-63297598D01*
X66137571Y-63297597D01*
X66137573Y-63297597D01*
X66207985Y-63277140D01*
X66295398Y-63251744D01*
X66436865Y-63168081D01*
X66436870Y-63168075D01*
X66443031Y-63163298D01*
X66444933Y-63165750D01*
X66493579Y-63139155D01*
X66563274Y-63144104D01*
X66595695Y-63164940D01*
X66596969Y-63163298D01*
X66603132Y-63168078D01*
X66603135Y-63168081D01*
X66744602Y-63251744D01*
X66784371Y-63263298D01*
X66902426Y-63297597D01*
X66902429Y-63297597D01*
X66902431Y-63297598D01*
X66939306Y-63300500D01*
X66939314Y-63300500D01*
X67370686Y-63300500D01*
X67370694Y-63300500D01*
X67407569Y-63297598D01*
X67407571Y-63297597D01*
X67407573Y-63297597D01*
X67477985Y-63277140D01*
X67565398Y-63251744D01*
X67706865Y-63168081D01*
X67706870Y-63168075D01*
X67713031Y-63163298D01*
X67714933Y-63165750D01*
X67763579Y-63139155D01*
X67833274Y-63144104D01*
X67865695Y-63164940D01*
X67866969Y-63163298D01*
X67873132Y-63168078D01*
X67873135Y-63168081D01*
X68014602Y-63251744D01*
X68054371Y-63263298D01*
X68172426Y-63297597D01*
X68172429Y-63297597D01*
X68172431Y-63297598D01*
X68209306Y-63300500D01*
X68209314Y-63300500D01*
X68640686Y-63300500D01*
X68640694Y-63300500D01*
X68677569Y-63297598D01*
X68677571Y-63297597D01*
X68677573Y-63297597D01*
X68747985Y-63277140D01*
X68835398Y-63251744D01*
X68976865Y-63168081D01*
X69093081Y-63051865D01*
X69176744Y-62910398D01*
X69181233Y-62894945D01*
X69182892Y-62892347D01*
X69183032Y-62889266D01*
X69201574Y-62863093D01*
X69218839Y-62836060D01*
X69221640Y-62834770D01*
X69223424Y-62832254D01*
X69253175Y-62820260D01*
X69282312Y-62806853D01*
X69285365Y-62807283D01*
X69288226Y-62806130D01*
X69319739Y-62812125D01*
X69351498Y-62816599D01*
X69354746Y-62818785D01*
X69356864Y-62819188D01*
X69375324Y-62832633D01*
X69385663Y-62839591D01*
X69386837Y-62840705D01*
X69476344Y-62930212D01*
X69490114Y-62938705D01*
X69499436Y-62947551D01*
X69510786Y-62967102D01*
X69525905Y-62983911D01*
X69527991Y-62996736D01*
X69534517Y-63007976D01*
X69533495Y-63030562D01*
X69537126Y-63052874D01*
X69531948Y-63064790D01*
X69531361Y-63077774D01*
X69518291Y-63096221D01*
X69509282Y-63116956D01*
X69494569Y-63129704D01*
X69490969Y-63134786D01*
X69486734Y-63136493D01*
X69479182Y-63143037D01*
X69476346Y-63144785D01*
X69352289Y-63268842D01*
X69260187Y-63418163D01*
X69260186Y-63418166D01*
X69205001Y-63584703D01*
X69205001Y-63584704D01*
X69205000Y-63584704D01*
X69194500Y-63687483D01*
X69194500Y-64462501D01*
X69194501Y-64462519D01*
X69205000Y-64565296D01*
X69205001Y-64565299D01*
X69250424Y-64702374D01*
X69260186Y-64731834D01*
X69352288Y-64881156D01*
X69476344Y-65005212D01*
X69625666Y-65097314D01*
X69792203Y-65152499D01*
X69894991Y-65163000D01*
X70945008Y-65162999D01*
X70945016Y-65162998D01*
X70945019Y-65162998D01*
X71001302Y-65157248D01*
X71047797Y-65152499D01*
X71214334Y-65097314D01*
X71219768Y-65093961D01*
X71284866Y-65075500D01*
X71753438Y-65075500D01*
X71792441Y-65081794D01*
X71811593Y-65088140D01*
X71817203Y-65089999D01*
X71919991Y-65100500D01*
X72920008Y-65100499D01*
X72920016Y-65100498D01*
X72920019Y-65100498D01*
X72984001Y-65093962D01*
X73022797Y-65089999D01*
X73189334Y-65034814D01*
X73338656Y-64942712D01*
X73462712Y-64818656D01*
X73554814Y-64669334D01*
X73609999Y-64502797D01*
X73620500Y-64400009D01*
X73620499Y-63951613D01*
X74959000Y-63951613D01*
X74959000Y-64048369D01*
X74959001Y-64048376D01*
X74965408Y-64107983D01*
X75015702Y-64242828D01*
X75015706Y-64242835D01*
X75101952Y-64358044D01*
X75101955Y-64358047D01*
X75217164Y-64444293D01*
X75217171Y-64444297D01*
X75352016Y-64494591D01*
X75377919Y-64497375D01*
X75411627Y-64501000D01*
X75508372Y-64500999D01*
X75567983Y-64494591D01*
X75702831Y-64444296D01*
X75818046Y-64358046D01*
X75904296Y-64242831D01*
X75954591Y-64107983D01*
X75961000Y-64048373D01*
X75960999Y-63951628D01*
X75954591Y-63892017D01*
X75944906Y-63866051D01*
X75904297Y-63757171D01*
X75904293Y-63757164D01*
X75818047Y-63641955D01*
X75818044Y-63641952D01*
X75702835Y-63555706D01*
X75702828Y-63555702D01*
X75567983Y-63505408D01*
X75508380Y-63499000D01*
X75411630Y-63499000D01*
X75411623Y-63499001D01*
X75352016Y-63505408D01*
X75217171Y-63555702D01*
X75217164Y-63555706D01*
X75101955Y-63641952D01*
X75101952Y-63641955D01*
X75015706Y-63757164D01*
X75015702Y-63757171D01*
X74965408Y-63892016D01*
X74959000Y-63951613D01*
X73620499Y-63951613D01*
X73620499Y-63599992D01*
X73618937Y-63584704D01*
X73609999Y-63497203D01*
X73609998Y-63497200D01*
X73583809Y-63418168D01*
X73554814Y-63330666D01*
X73526157Y-63284206D01*
X73498370Y-63239155D01*
X73462712Y-63181344D01*
X73408503Y-63127135D01*
X78769500Y-63127135D01*
X78769500Y-64872870D01*
X78769501Y-64872876D01*
X78775908Y-64932483D01*
X78826202Y-65067328D01*
X78826206Y-65067335D01*
X78917768Y-65189645D01*
X78916674Y-65190463D01*
X78945712Y-65243642D01*
X78940728Y-65313334D01*
X78917205Y-65349934D01*
X78917768Y-65350355D01*
X78826206Y-65472664D01*
X78826202Y-65472671D01*
X78775908Y-65607517D01*
X78770979Y-65653368D01*
X78769501Y-65667123D01*
X78769500Y-65667135D01*
X78769500Y-67412870D01*
X78769501Y-67412876D01*
X78775908Y-67472483D01*
X78826202Y-67607328D01*
X78826206Y-67607335D01*
X78912452Y-67722544D01*
X78912455Y-67722547D01*
X79027664Y-67808793D01*
X79027671Y-67808797D01*
X79162517Y-67859091D01*
X79162516Y-67859091D01*
X79169444Y-67859835D01*
X79222127Y-67865500D01*
X81857872Y-67865499D01*
X81917483Y-67859091D01*
X82025898Y-67818655D01*
X82052329Y-67808797D01*
X82052329Y-67808796D01*
X82052331Y-67808796D01*
X82099999Y-67773110D01*
X82154914Y-67749904D01*
X82246972Y-67735324D01*
X82430429Y-67675715D01*
X82491227Y-67644737D01*
X82602302Y-67588142D01*
X82758360Y-67474759D01*
X84931300Y-65301819D01*
X84992623Y-65268334D01*
X85018981Y-65265500D01*
X88556448Y-65265500D01*
X88556449Y-65265500D01*
X88746972Y-65235324D01*
X88930429Y-65175715D01*
X89102302Y-65088141D01*
X89258359Y-64974759D01*
X89394759Y-64838359D01*
X89508141Y-64682302D01*
X89595715Y-64510429D01*
X89655324Y-64326972D01*
X89685500Y-64136449D01*
X89685500Y-63943551D01*
X89655324Y-63753028D01*
X89595715Y-63569571D01*
X89508141Y-63397698D01*
X89394759Y-63241641D01*
X89258359Y-63105241D01*
X89102302Y-62991859D01*
X88942424Y-62910397D01*
X88930431Y-62904286D01*
X88930430Y-62904285D01*
X88930429Y-62904285D01*
X88746972Y-62844676D01*
X88746970Y-62844675D01*
X88746969Y-62844675D01*
X88592816Y-62820260D01*
X88556449Y-62814500D01*
X84363551Y-62814500D01*
X84344894Y-62817455D01*
X84173030Y-62844675D01*
X83989571Y-62904284D01*
X83931557Y-62933843D01*
X83931557Y-62933844D01*
X83890609Y-62954708D01*
X83817697Y-62991858D01*
X83754877Y-63037500D01*
X83661640Y-63105241D01*
X83661638Y-63105243D01*
X83661637Y-63105243D01*
X82522180Y-64244700D01*
X82460857Y-64278185D01*
X82391165Y-64273201D01*
X82335232Y-64231329D01*
X82310815Y-64165865D01*
X82310499Y-64157019D01*
X82310499Y-63127129D01*
X82310498Y-63127123D01*
X82310497Y-63127116D01*
X82304091Y-63067517D01*
X82298559Y-63052686D01*
X82253797Y-62932671D01*
X82253793Y-62932664D01*
X82167547Y-62817455D01*
X82167544Y-62817452D01*
X82052335Y-62731206D01*
X82052328Y-62731202D01*
X81917482Y-62680908D01*
X81917483Y-62680908D01*
X81857883Y-62674501D01*
X81857881Y-62674500D01*
X81857873Y-62674500D01*
X81857864Y-62674500D01*
X79222129Y-62674500D01*
X79222123Y-62674501D01*
X79162516Y-62680908D01*
X79027671Y-62731202D01*
X79027664Y-62731206D01*
X78912455Y-62817452D01*
X78912452Y-62817455D01*
X78826206Y-62932664D01*
X78826202Y-62932671D01*
X78775908Y-63067517D01*
X78769501Y-63127116D01*
X78769501Y-63127123D01*
X78769500Y-63127135D01*
X73408503Y-63127135D01*
X73367650Y-63086282D01*
X73366309Y-63084853D01*
X73351396Y-63055352D01*
X73335564Y-63026358D01*
X73335709Y-63024321D01*
X73334788Y-63022498D01*
X73338190Y-62989635D01*
X73340548Y-62956666D01*
X73341806Y-62954708D01*
X73341983Y-62953000D01*
X73346682Y-62947121D01*
X73369049Y-62912319D01*
X73413750Y-62867618D01*
X73462712Y-62818656D01*
X73554814Y-62669334D01*
X73571472Y-62619061D01*
X73611242Y-62561619D01*
X73675758Y-62534795D01*
X73744534Y-62547109D01*
X73788443Y-62583755D01*
X73829898Y-62639132D01*
X73832455Y-62642547D01*
X73947664Y-62728793D01*
X73947671Y-62728797D01*
X74082517Y-62779091D01*
X74082516Y-62779091D01*
X74089444Y-62779835D01*
X74142127Y-62785500D01*
X76777872Y-62785499D01*
X76837483Y-62779091D01*
X76972331Y-62728796D01*
X77087546Y-62642546D01*
X77173796Y-62527331D01*
X77224091Y-62392483D01*
X77230500Y-62332873D01*
X77230499Y-60587128D01*
X77224091Y-60527517D01*
X77223558Y-60526089D01*
X77173797Y-60392671D01*
X77173793Y-60392664D01*
X77087547Y-60277455D01*
X77087544Y-60277452D01*
X76972335Y-60191206D01*
X76972328Y-60191202D01*
X76837482Y-60140908D01*
X76837483Y-60140908D01*
X76777883Y-60134501D01*
X76777881Y-60134500D01*
X76777873Y-60134500D01*
X76777864Y-60134500D01*
X74142129Y-60134500D01*
X74142123Y-60134501D01*
X74082516Y-60140908D01*
X73947671Y-60191202D01*
X73947664Y-60191206D01*
X73832455Y-60277452D01*
X73832452Y-60277455D01*
X73746207Y-60392663D01*
X73744973Y-60394924D01*
X73743150Y-60396746D01*
X73740888Y-60399769D01*
X73740453Y-60399443D01*
X73695569Y-60444331D01*
X73636139Y-60459500D01*
X72861456Y-60459500D01*
X72668171Y-60497947D01*
X72668163Y-60497949D01*
X72638373Y-60510289D01*
X72638372Y-60510289D01*
X72486092Y-60573364D01*
X72486079Y-60573371D01*
X72322218Y-60682860D01*
X72322214Y-60682863D01*
X72141896Y-60863181D01*
X72080573Y-60896666D01*
X72054216Y-60899500D01*
X71919999Y-60899500D01*
X71919980Y-60899501D01*
X71817203Y-60910000D01*
X71817200Y-60910001D01*
X71650668Y-60965185D01*
X71650661Y-60965189D01*
X71608630Y-60991113D01*
X71578977Y-60999226D01*
X71549973Y-61009406D01*
X71545586Y-61008361D01*
X71541237Y-61009552D01*
X71511904Y-61000345D01*
X71482002Y-60993228D01*
X71478876Y-60989978D01*
X71474574Y-60988628D01*
X71454876Y-60965026D01*
X71433567Y-60942871D01*
X71432005Y-60937621D01*
X71429805Y-60934985D01*
X71421879Y-60909569D01*
X71420500Y-60902577D01*
X71420500Y-60901459D01*
X71394299Y-60769737D01*
X71382051Y-60708164D01*
X71342785Y-60613368D01*
X71306632Y-60526086D01*
X71288868Y-60499500D01*
X71197140Y-60362219D01*
X71135421Y-60300500D01*
X71057782Y-60222861D01*
X71057781Y-60222860D01*
X70056818Y-59221897D01*
X70023333Y-59160574D01*
X70020499Y-59134216D01*
X70020499Y-58999998D01*
X70020498Y-58999981D01*
X70009999Y-58897203D01*
X70009998Y-58897200D01*
X69999390Y-58865187D01*
X69954814Y-58730666D01*
X69872740Y-58597602D01*
X69854301Y-58530212D01*
X69875224Y-58463549D01*
X69928866Y-58418779D01*
X69998196Y-58410118D01*
X70061204Y-58440315D01*
X70065961Y-58444827D01*
X70158844Y-58537710D01*
X70158848Y-58537713D01*
X70308162Y-58629812D01*
X70308164Y-58629813D01*
X70308166Y-58629814D01*
X70474703Y-58684999D01*
X70577492Y-58695500D01*
X70577497Y-58695500D01*
X72422503Y-58695500D01*
X72422508Y-58695500D01*
X72525297Y-58684999D01*
X72691834Y-58629814D01*
X72841155Y-58537711D01*
X72965211Y-58413655D01*
X73057314Y-58264334D01*
X73112499Y-58097797D01*
X73123000Y-57995008D01*
X73123000Y-56004992D01*
X73112499Y-55902203D01*
X73057314Y-55735666D01*
X73003630Y-55648632D01*
X72965213Y-55586348D01*
X72965210Y-55586344D01*
X72841155Y-55462289D01*
X72841151Y-55462286D01*
X72691837Y-55370187D01*
X72691834Y-55370186D01*
X72585496Y-55334949D01*
X72565463Y-55321078D01*
X72543297Y-55310956D01*
X72537248Y-55301543D01*
X72528051Y-55295176D01*
X72518697Y-55272677D01*
X72505523Y-55252178D01*
X72503064Y-55235076D01*
X72501228Y-55230660D01*
X72500500Y-55217243D01*
X72500500Y-55124500D01*
X72520185Y-55057461D01*
X72572989Y-55011706D01*
X72624500Y-55000500D01*
X78534218Y-55000500D01*
X78601257Y-55020185D01*
X78621899Y-55036819D01*
X78629936Y-55044856D01*
X78663421Y-55106179D01*
X78658437Y-55175871D01*
X78642580Y-55205413D01*
X78636659Y-55213564D01*
X78636656Y-55213568D01*
X78529433Y-55424003D01*
X78456446Y-55648631D01*
X78419500Y-55881902D01*
X78419500Y-56118097D01*
X78456446Y-56351368D01*
X78529433Y-56575996D01*
X78587521Y-56689999D01*
X78636657Y-56786433D01*
X78735571Y-56922577D01*
X78745731Y-56939155D01*
X78747843Y-56943299D01*
X78874641Y-57117821D01*
X79027179Y-57270359D01*
X79201701Y-57397157D01*
X79393911Y-57495092D01*
X79599074Y-57561754D01*
X79678973Y-57574408D01*
X79812134Y-57595500D01*
X79812139Y-57595500D01*
X80027866Y-57595500D01*
X80146230Y-57576752D01*
X80240926Y-57561754D01*
X80410767Y-57506569D01*
X80449085Y-57500500D01*
X80881908Y-57500500D01*
X81930915Y-57500500D01*
X81969233Y-57506569D01*
X82139074Y-57561754D01*
X82218973Y-57574408D01*
X82352134Y-57595500D01*
X82352139Y-57595500D01*
X82567866Y-57595500D01*
X82686230Y-57576752D01*
X82780926Y-57561754D01*
X82986089Y-57495092D01*
X83178299Y-57397157D01*
X83352821Y-57270359D01*
X83505359Y-57117821D01*
X83632157Y-56943299D01*
X83634259Y-56939172D01*
X83644424Y-56922581D01*
X83743343Y-56786433D01*
X83850568Y-56575992D01*
X83923553Y-56351368D01*
X83931768Y-56299500D01*
X83960500Y-56118097D01*
X83960500Y-55881902D01*
X83923553Y-55648631D01*
X83875254Y-55499983D01*
X83850568Y-55424008D01*
X83850566Y-55424005D01*
X83850566Y-55424003D01*
X83745216Y-55217243D01*
X83743343Y-55213567D01*
X83644429Y-55077424D01*
X83634263Y-55060833D01*
X83632159Y-55056704D01*
X83632157Y-55056701D01*
X83505359Y-54882179D01*
X83352821Y-54729641D01*
X83178299Y-54602843D01*
X82986089Y-54504908D01*
X82780926Y-54438246D01*
X82780924Y-54438245D01*
X82780922Y-54438245D01*
X82567866Y-54404500D01*
X82567861Y-54404500D01*
X82352139Y-54404500D01*
X82352134Y-54404500D01*
X82139077Y-54438245D01*
X82139076Y-54438245D01*
X81969233Y-54493431D01*
X81930915Y-54499500D01*
X80965782Y-54499500D01*
X80898743Y-54479815D01*
X80878101Y-54463181D01*
X79781479Y-53366559D01*
X79781459Y-53366537D01*
X79637785Y-53222863D01*
X79637781Y-53222860D01*
X79473920Y-53113371D01*
X79473911Y-53113366D01*
X79401315Y-53083296D01*
X79345165Y-53060038D01*
X79291836Y-53037949D01*
X79291832Y-53037948D01*
X79291828Y-53037946D01*
X79195188Y-53018724D01*
X79098544Y-52999500D01*
X79098541Y-52999500D01*
X71098541Y-52999500D01*
X58361041Y-52999500D01*
X53223541Y-52999500D01*
X49298541Y-52999500D01*
X45701459Y-52999500D01*
X45701454Y-52999500D01*
X45669391Y-53005876D01*
X45669392Y-53005877D01*
X45508170Y-53037946D01*
X45508164Y-53037948D01*
X45326088Y-53113366D01*
X45326079Y-53113371D01*
X45162219Y-53222859D01*
X45162215Y-53222862D01*
X43980579Y-54404500D01*
X43862220Y-54522859D01*
X43862218Y-54522861D01*
X43792538Y-54592540D01*
X43722859Y-54662219D01*
X43613371Y-54826080D01*
X43613364Y-54826093D01*
X43573004Y-54923534D01*
X43573002Y-54923539D01*
X43559636Y-54955804D01*
X43515793Y-55010206D01*
X43449498Y-55032268D01*
X43381800Y-55014986D01*
X43357396Y-54996028D01*
X43318657Y-54957289D01*
X43318656Y-54957288D01*
X43196881Y-54882177D01*
X43169336Y-54865187D01*
X43169331Y-54865185D01*
X43167862Y-54864698D01*
X43002797Y-54810001D01*
X43002795Y-54810000D01*
X42900010Y-54799500D01*
X42099998Y-54799500D01*
X42099980Y-54799501D01*
X41997203Y-54810000D01*
X41997200Y-54810001D01*
X41830668Y-54865185D01*
X41830663Y-54865187D01*
X41681342Y-54957289D01*
X41557289Y-55081342D01*
X41532085Y-55122204D01*
X41473466Y-55217243D01*
X41465190Y-55230660D01*
X41465185Y-55230668D01*
X41451265Y-55272677D01*
X41410001Y-55397203D01*
X41410001Y-55397204D01*
X41410000Y-55397204D01*
X41399500Y-55499983D01*
X29500500Y-55499983D01*
X29500500Y-50624500D01*
X29520185Y-50557461D01*
X29572989Y-50511706D01*
X29624500Y-50500500D01*
X92875500Y-50500500D01*
X92942539Y-50520185D01*
G37*
%TD.AperFunction*%
%TD*%
M02*
