%TF.GenerationSoftware,KiCad,Pcbnew,9.0.7*%
%TF.CreationDate,2026-03-14T09:39:47+01:00*%
%TF.ProjectId,2W_Amp,32575f41-6d70-42e6-9b69-6361645f7063,rev?*%
%TF.SameCoordinates,Original*%
%TF.FileFunction,Legend,Top*%
%TF.FilePolarity,Positive*%
%FSLAX46Y46*%
G04 Gerber Fmt 4.6, Leading zero omitted, Abs format (unit mm)*
G04 Created by KiCad (PCBNEW 9.0.7) date 2026-03-14 09:39:47*
%MOMM*%
%LPD*%
G01*
G04 APERTURE LIST*
%ADD10C,0.100000*%
%ADD11C,0.150000*%
%ADD12C,0.200000*%
%ADD13C,0.120000*%
%ADD14C,0.381000*%
%ADD15C,0.099060*%
%ADD16C,1.998980*%
%ADD17C,2.499360*%
G04 APERTURE END LIST*
D10*
X75022931Y-54421371D02*
X74680074Y-54421371D01*
X74851503Y-54421371D02*
X74851503Y-53821371D01*
X74851503Y-53821371D02*
X74794360Y-53907085D01*
X74794360Y-53907085D02*
X74737217Y-53964228D01*
X74737217Y-53964228D02*
X74680074Y-53992800D01*
X75251503Y-53878514D02*
X75280075Y-53849942D01*
X75280075Y-53849942D02*
X75337218Y-53821371D01*
X75337218Y-53821371D02*
X75480075Y-53821371D01*
X75480075Y-53821371D02*
X75537218Y-53849942D01*
X75537218Y-53849942D02*
X75565789Y-53878514D01*
X75565789Y-53878514D02*
X75594360Y-53935657D01*
X75594360Y-53935657D02*
X75594360Y-53992800D01*
X75594360Y-53992800D02*
X75565789Y-54078514D01*
X75565789Y-54078514D02*
X75222932Y-54421371D01*
X75222932Y-54421371D02*
X75594360Y-54421371D01*
X75765789Y-53821371D02*
X75965789Y-54421371D01*
X75965789Y-54421371D02*
X76165789Y-53821371D01*
X76365790Y-54192800D02*
X76822933Y-54192800D01*
X77480075Y-54021371D02*
X77708647Y-54021371D01*
X77565790Y-53821371D02*
X77565790Y-54335657D01*
X77565790Y-54335657D02*
X77594361Y-54392800D01*
X77594361Y-54392800D02*
X77651504Y-54421371D01*
X77651504Y-54421371D02*
X77708647Y-54421371D01*
X77851504Y-54421371D02*
X78165790Y-54021371D01*
X77851504Y-54021371D02*
X78165790Y-54421371D01*
D11*
X87784398Y-60318771D02*
X87584398Y-60033057D01*
X87441541Y-60318771D02*
X87441541Y-59718771D01*
X87441541Y-59718771D02*
X87670112Y-59718771D01*
X87670112Y-59718771D02*
X87727255Y-59747342D01*
X87727255Y-59747342D02*
X87755826Y-59775914D01*
X87755826Y-59775914D02*
X87784398Y-59833057D01*
X87784398Y-59833057D02*
X87784398Y-59918771D01*
X87784398Y-59918771D02*
X87755826Y-59975914D01*
X87755826Y-59975914D02*
X87727255Y-60004485D01*
X87727255Y-60004485D02*
X87670112Y-60033057D01*
X87670112Y-60033057D02*
X87441541Y-60033057D01*
X88241541Y-60004485D02*
X88041541Y-60004485D01*
X88041541Y-60318771D02*
X88041541Y-59718771D01*
X88041541Y-59718771D02*
X88327255Y-59718771D01*
X89127255Y-59718771D02*
X89241541Y-59718771D01*
X89241541Y-59718771D02*
X89298684Y-59747342D01*
X89298684Y-59747342D02*
X89355827Y-59804485D01*
X89355827Y-59804485D02*
X89384398Y-59918771D01*
X89384398Y-59918771D02*
X89384398Y-60118771D01*
X89384398Y-60118771D02*
X89355827Y-60233057D01*
X89355827Y-60233057D02*
X89298684Y-60290200D01*
X89298684Y-60290200D02*
X89241541Y-60318771D01*
X89241541Y-60318771D02*
X89127255Y-60318771D01*
X89127255Y-60318771D02*
X89070113Y-60290200D01*
X89070113Y-60290200D02*
X89012970Y-60233057D01*
X89012970Y-60233057D02*
X88984398Y-60118771D01*
X88984398Y-60118771D02*
X88984398Y-59918771D01*
X88984398Y-59918771D02*
X89012970Y-59804485D01*
X89012970Y-59804485D02*
X89070113Y-59747342D01*
X89070113Y-59747342D02*
X89127255Y-59718771D01*
X89898684Y-59918771D02*
X89898684Y-60318771D01*
X89641541Y-59918771D02*
X89641541Y-60233057D01*
X89641541Y-60233057D02*
X89670112Y-60290200D01*
X89670112Y-60290200D02*
X89727255Y-60318771D01*
X89727255Y-60318771D02*
X89812969Y-60318771D01*
X89812969Y-60318771D02*
X89870112Y-60290200D01*
X89870112Y-60290200D02*
X89898684Y-60261628D01*
X90098683Y-59918771D02*
X90327255Y-59918771D01*
X90184398Y-59718771D02*
X90184398Y-60233057D01*
X90184398Y-60233057D02*
X90212969Y-60290200D01*
X90212969Y-60290200D02*
X90270112Y-60318771D01*
X90270112Y-60318771D02*
X90327255Y-60318771D01*
D10*
X32551503Y-59921371D02*
X32351503Y-59635657D01*
X32208646Y-59921371D02*
X32208646Y-59321371D01*
X32208646Y-59321371D02*
X32437217Y-59321371D01*
X32437217Y-59321371D02*
X32494360Y-59349942D01*
X32494360Y-59349942D02*
X32522931Y-59378514D01*
X32522931Y-59378514D02*
X32551503Y-59435657D01*
X32551503Y-59435657D02*
X32551503Y-59521371D01*
X32551503Y-59521371D02*
X32522931Y-59578514D01*
X32522931Y-59578514D02*
X32494360Y-59607085D01*
X32494360Y-59607085D02*
X32437217Y-59635657D01*
X32437217Y-59635657D02*
X32208646Y-59635657D01*
X33008646Y-59607085D02*
X32808646Y-59607085D01*
X32808646Y-59921371D02*
X32808646Y-59321371D01*
X32808646Y-59321371D02*
X33094360Y-59321371D01*
X33780075Y-59921371D02*
X33780075Y-59321371D01*
X34065789Y-59521371D02*
X34065789Y-59921371D01*
X34065789Y-59578514D02*
X34094360Y-59549942D01*
X34094360Y-59549942D02*
X34151503Y-59521371D01*
X34151503Y-59521371D02*
X34237217Y-59521371D01*
X34237217Y-59521371D02*
X34294360Y-59549942D01*
X34294360Y-59549942D02*
X34322932Y-59607085D01*
X34322932Y-59607085D02*
X34322932Y-59921371D01*
X35380074Y-59921371D02*
X35037217Y-59921371D01*
X35208646Y-59921371D02*
X35208646Y-59321371D01*
X35208646Y-59321371D02*
X35151503Y-59407085D01*
X35151503Y-59407085D02*
X35094360Y-59464228D01*
X35094360Y-59464228D02*
X35037217Y-59492800D01*
X35751503Y-59321371D02*
X35808646Y-59321371D01*
X35808646Y-59321371D02*
X35865789Y-59349942D01*
X35865789Y-59349942D02*
X35894361Y-59378514D01*
X35894361Y-59378514D02*
X35922932Y-59435657D01*
X35922932Y-59435657D02*
X35951503Y-59549942D01*
X35951503Y-59549942D02*
X35951503Y-59692800D01*
X35951503Y-59692800D02*
X35922932Y-59807085D01*
X35922932Y-59807085D02*
X35894361Y-59864228D01*
X35894361Y-59864228D02*
X35865789Y-59892800D01*
X35865789Y-59892800D02*
X35808646Y-59921371D01*
X35808646Y-59921371D02*
X35751503Y-59921371D01*
X35751503Y-59921371D02*
X35694361Y-59892800D01*
X35694361Y-59892800D02*
X35665789Y-59864228D01*
X35665789Y-59864228D02*
X35637218Y-59807085D01*
X35637218Y-59807085D02*
X35608646Y-59692800D01*
X35608646Y-59692800D02*
X35608646Y-59549942D01*
X35608646Y-59549942D02*
X35637218Y-59435657D01*
X35637218Y-59435657D02*
X35665789Y-59378514D01*
X35665789Y-59378514D02*
X35694361Y-59349942D01*
X35694361Y-59349942D02*
X35751503Y-59321371D01*
X36922933Y-59921371D02*
X36922933Y-59321371D01*
X36922933Y-59892800D02*
X36865790Y-59921371D01*
X36865790Y-59921371D02*
X36751504Y-59921371D01*
X36751504Y-59921371D02*
X36694361Y-59892800D01*
X36694361Y-59892800D02*
X36665790Y-59864228D01*
X36665790Y-59864228D02*
X36637218Y-59807085D01*
X36637218Y-59807085D02*
X36637218Y-59635657D01*
X36637218Y-59635657D02*
X36665790Y-59578514D01*
X36665790Y-59578514D02*
X36694361Y-59549942D01*
X36694361Y-59549942D02*
X36751504Y-59521371D01*
X36751504Y-59521371D02*
X36865790Y-59521371D01*
X36865790Y-59521371D02*
X36922933Y-59549942D01*
X37408647Y-59607085D02*
X37494361Y-59635657D01*
X37494361Y-59635657D02*
X37522932Y-59664228D01*
X37522932Y-59664228D02*
X37551504Y-59721371D01*
X37551504Y-59721371D02*
X37551504Y-59807085D01*
X37551504Y-59807085D02*
X37522932Y-59864228D01*
X37522932Y-59864228D02*
X37494361Y-59892800D01*
X37494361Y-59892800D02*
X37437218Y-59921371D01*
X37437218Y-59921371D02*
X37208647Y-59921371D01*
X37208647Y-59921371D02*
X37208647Y-59321371D01*
X37208647Y-59321371D02*
X37408647Y-59321371D01*
X37408647Y-59321371D02*
X37465790Y-59349942D01*
X37465790Y-59349942D02*
X37494361Y-59378514D01*
X37494361Y-59378514D02*
X37522932Y-59435657D01*
X37522932Y-59435657D02*
X37522932Y-59492800D01*
X37522932Y-59492800D02*
X37494361Y-59549942D01*
X37494361Y-59549942D02*
X37465790Y-59578514D01*
X37465790Y-59578514D02*
X37408647Y-59607085D01*
X37408647Y-59607085D02*
X37208647Y-59607085D01*
X37808647Y-59921371D02*
X37808647Y-59521371D01*
X37808647Y-59578514D02*
X37837218Y-59549942D01*
X37837218Y-59549942D02*
X37894361Y-59521371D01*
X37894361Y-59521371D02*
X37980075Y-59521371D01*
X37980075Y-59521371D02*
X38037218Y-59549942D01*
X38037218Y-59549942D02*
X38065790Y-59607085D01*
X38065790Y-59607085D02*
X38065790Y-59921371D01*
X38065790Y-59607085D02*
X38094361Y-59549942D01*
X38094361Y-59549942D02*
X38151504Y-59521371D01*
X38151504Y-59521371D02*
X38237218Y-59521371D01*
X38237218Y-59521371D02*
X38294361Y-59549942D01*
X38294361Y-59549942D02*
X38322932Y-59607085D01*
X38322932Y-59607085D02*
X38322932Y-59921371D01*
X39065790Y-59921371D02*
X39065790Y-59521371D01*
X39065790Y-59578514D02*
X39094361Y-59549942D01*
X39094361Y-59549942D02*
X39151504Y-59521371D01*
X39151504Y-59521371D02*
X39237218Y-59521371D01*
X39237218Y-59521371D02*
X39294361Y-59549942D01*
X39294361Y-59549942D02*
X39322933Y-59607085D01*
X39322933Y-59607085D02*
X39322933Y-59921371D01*
X39322933Y-59607085D02*
X39351504Y-59549942D01*
X39351504Y-59549942D02*
X39408647Y-59521371D01*
X39408647Y-59521371D02*
X39494361Y-59521371D01*
X39494361Y-59521371D02*
X39551504Y-59549942D01*
X39551504Y-59549942D02*
X39580075Y-59607085D01*
X39580075Y-59607085D02*
X39580075Y-59921371D01*
X40122933Y-59921371D02*
X40122933Y-59607085D01*
X40122933Y-59607085D02*
X40094361Y-59549942D01*
X40094361Y-59549942D02*
X40037218Y-59521371D01*
X40037218Y-59521371D02*
X39922933Y-59521371D01*
X39922933Y-59521371D02*
X39865790Y-59549942D01*
X40122933Y-59892800D02*
X40065790Y-59921371D01*
X40065790Y-59921371D02*
X39922933Y-59921371D01*
X39922933Y-59921371D02*
X39865790Y-59892800D01*
X39865790Y-59892800D02*
X39837218Y-59835657D01*
X39837218Y-59835657D02*
X39837218Y-59778514D01*
X39837218Y-59778514D02*
X39865790Y-59721371D01*
X39865790Y-59721371D02*
X39922933Y-59692800D01*
X39922933Y-59692800D02*
X40065790Y-59692800D01*
X40065790Y-59692800D02*
X40122933Y-59664228D01*
X40351504Y-59921371D02*
X40665790Y-59521371D01*
X40351504Y-59521371D02*
X40665790Y-59921371D01*
D12*
X38822054Y-70081504D02*
X39298244Y-70081504D01*
X38726816Y-70367219D02*
X39060149Y-69367219D01*
X39060149Y-69367219D02*
X39393482Y-70367219D01*
X39726816Y-69700552D02*
X39726816Y-70224361D01*
X39726816Y-70224361D02*
X39774435Y-70319600D01*
X39774435Y-70319600D02*
X39869673Y-70367219D01*
X40012530Y-69319600D02*
X39869673Y-69462457D01*
X39488721Y-69462457D02*
X39536340Y-69462457D01*
X39536340Y-69462457D02*
X39583959Y-69414838D01*
X39583959Y-69414838D02*
X39583959Y-69319600D01*
X40822054Y-69700552D02*
X40679197Y-70176742D01*
X40679197Y-70176742D02*
X40631578Y-70271980D01*
X40631578Y-70271980D02*
X40583959Y-70319600D01*
X40583959Y-70319600D02*
X40488721Y-70367219D01*
X40488721Y-70367219D02*
X40393483Y-70367219D01*
X40393483Y-70367219D02*
X40298245Y-70319600D01*
X40298245Y-70319600D02*
X40250626Y-70271980D01*
X40250626Y-70271980D02*
X40203007Y-70129123D01*
X40203007Y-70129123D02*
X40203007Y-69938647D01*
X40203007Y-69938647D02*
X40250626Y-69795790D01*
X40250626Y-69795790D02*
X40298245Y-69748171D01*
X40298245Y-69748171D02*
X40393483Y-69700552D01*
X40393483Y-69700552D02*
X40488721Y-69700552D01*
X40488721Y-69700552D02*
X40583959Y-69748171D01*
X40583959Y-69748171D02*
X40631578Y-69795790D01*
X40631578Y-69795790D02*
X40679197Y-69891028D01*
X40679197Y-69891028D02*
X40726816Y-70224361D01*
X40726816Y-70224361D02*
X40774435Y-70319600D01*
X40774435Y-70319600D02*
X40869673Y-70367219D01*
X41679197Y-69748171D02*
X41583959Y-69700552D01*
X41583959Y-69700552D02*
X41393483Y-69700552D01*
X41393483Y-69700552D02*
X41298245Y-69748171D01*
X41298245Y-69748171D02*
X41250626Y-69795790D01*
X41250626Y-69795790D02*
X41203007Y-69891028D01*
X41203007Y-69891028D02*
X41203007Y-70176742D01*
X41203007Y-70176742D02*
X41250626Y-70271980D01*
X41250626Y-70271980D02*
X41298245Y-70319600D01*
X41298245Y-70319600D02*
X41393483Y-70367219D01*
X41393483Y-70367219D02*
X41536340Y-70367219D01*
X41536340Y-70367219D02*
X41631578Y-70414838D01*
X41631578Y-70414838D02*
X41679197Y-70510076D01*
X41679197Y-70510076D02*
X41679197Y-70557695D01*
X41679197Y-70557695D02*
X41631578Y-70652933D01*
X41631578Y-70652933D02*
X41536340Y-70700552D01*
X42726817Y-69367219D02*
X43298245Y-69367219D01*
X43012531Y-70367219D02*
X43012531Y-69367219D01*
X43726817Y-70033885D02*
X43631579Y-70081504D01*
X43631579Y-70081504D02*
X43583960Y-70176742D01*
X43583960Y-70176742D02*
X43583960Y-70224361D01*
X43583960Y-70224361D02*
X43631579Y-70319600D01*
X43631579Y-70319600D02*
X43726817Y-70367219D01*
X43726817Y-70367219D02*
X43917293Y-70367219D01*
X43917293Y-70367219D02*
X44012531Y-70319600D01*
X43822055Y-70033885D02*
X43726817Y-70033885D01*
X43726817Y-70033885D02*
X43631579Y-69986266D01*
X43631579Y-69986266D02*
X43583960Y-69891028D01*
X43583960Y-69891028D02*
X43583960Y-69843409D01*
X43583960Y-69843409D02*
X43631579Y-69748171D01*
X43631579Y-69748171D02*
X43726817Y-69700552D01*
X43726817Y-69700552D02*
X43917293Y-69700552D01*
X43917293Y-69700552D02*
X44012531Y-69748171D01*
X44583960Y-69700552D02*
X44345865Y-70367219D01*
X44345865Y-69367219D02*
X44441103Y-69367219D01*
X44441103Y-69367219D02*
X44488722Y-69414838D01*
X44488722Y-69414838D02*
X44583960Y-69700552D01*
X44583960Y-69700552D02*
X44822055Y-70367219D01*
X45774436Y-69700552D02*
X45631579Y-70176742D01*
X45631579Y-70176742D02*
X45583960Y-70271980D01*
X45583960Y-70271980D02*
X45536341Y-70319600D01*
X45536341Y-70319600D02*
X45441103Y-70367219D01*
X45441103Y-70367219D02*
X45345865Y-70367219D01*
X45345865Y-70367219D02*
X45250627Y-70319600D01*
X45250627Y-70319600D02*
X45203008Y-70271980D01*
X45203008Y-70271980D02*
X45155389Y-70129123D01*
X45155389Y-70129123D02*
X45155389Y-69938647D01*
X45155389Y-69938647D02*
X45203008Y-69795790D01*
X45203008Y-69795790D02*
X45250627Y-69748171D01*
X45250627Y-69748171D02*
X45345865Y-69700552D01*
X45345865Y-69700552D02*
X45441103Y-69700552D01*
X45441103Y-69700552D02*
X45536341Y-69748171D01*
X45536341Y-69748171D02*
X45583960Y-69795790D01*
X45583960Y-69795790D02*
X45631579Y-69891028D01*
X45631579Y-69891028D02*
X45679198Y-70224361D01*
X45679198Y-70224361D02*
X45726817Y-70319600D01*
X45726817Y-70319600D02*
X45822055Y-70367219D01*
X46203008Y-69700552D02*
X46203008Y-70700552D01*
X46679198Y-70224361D02*
X46726817Y-70319600D01*
X46726817Y-70319600D02*
X46822055Y-70367219D01*
X46203008Y-70224361D02*
X46250627Y-70319600D01*
X46250627Y-70319600D02*
X46345865Y-70367219D01*
X46345865Y-70367219D02*
X46536341Y-70367219D01*
X46536341Y-70367219D02*
X46631579Y-70319600D01*
X46631579Y-70319600D02*
X46679198Y-70224361D01*
X46679198Y-70224361D02*
X46679198Y-69700552D01*
X47536341Y-70033885D02*
X47536341Y-70224361D01*
X47298246Y-69700552D02*
X47250627Y-69748171D01*
X47250627Y-69748171D02*
X47203008Y-69843409D01*
X47203008Y-69843409D02*
X47203008Y-70224361D01*
X47203008Y-70224361D02*
X47250627Y-70319600D01*
X47250627Y-70319600D02*
X47345865Y-70367219D01*
X47345865Y-70367219D02*
X47393484Y-70367219D01*
X47393484Y-70367219D02*
X47488722Y-70319600D01*
X47488722Y-70319600D02*
X47536341Y-70224361D01*
X47536341Y-70224361D02*
X47583960Y-70319600D01*
X47583960Y-70319600D02*
X47679198Y-70367219D01*
X47679198Y-70367219D02*
X47726817Y-70367219D01*
X47726817Y-70367219D02*
X47822055Y-70319600D01*
X47822055Y-70319600D02*
X47869674Y-70224361D01*
X47869674Y-70224361D02*
X47869674Y-69843409D01*
X47869674Y-69843409D02*
X47822055Y-69748171D01*
X47822055Y-69748171D02*
X47774436Y-69700552D01*
X47631579Y-69319600D02*
X47488722Y-69462457D01*
X48203008Y-69700552D02*
X48441103Y-70367219D01*
X48441103Y-70367219D02*
X48679198Y-69843409D01*
X48679198Y-69843409D02*
X48679198Y-69795790D01*
X48679198Y-69795790D02*
X48631579Y-69700552D01*
X49107770Y-69700552D02*
X49107770Y-70224361D01*
X49107770Y-70224361D02*
X49155389Y-70319600D01*
X49155389Y-70319600D02*
X49250627Y-70367219D01*
X49774437Y-70367219D02*
X49679199Y-70319600D01*
X49679199Y-70319600D02*
X49631580Y-70271980D01*
X49631580Y-70271980D02*
X49583961Y-70176742D01*
X49583961Y-70176742D02*
X49583961Y-69891028D01*
X49583961Y-69891028D02*
X49631580Y-69795790D01*
X49631580Y-69795790D02*
X49679199Y-69748171D01*
X49679199Y-69748171D02*
X49774437Y-69700552D01*
X49774437Y-69700552D02*
X49917294Y-69700552D01*
X49917294Y-69700552D02*
X50012532Y-69748171D01*
X50012532Y-69748171D02*
X50060151Y-69795790D01*
X50060151Y-69795790D02*
X50107770Y-69891028D01*
X50107770Y-69891028D02*
X50107770Y-70176742D01*
X50107770Y-70176742D02*
X50060151Y-70271980D01*
X50060151Y-70271980D02*
X50012532Y-70319600D01*
X50012532Y-70319600D02*
X49917294Y-70367219D01*
X49917294Y-70367219D02*
X49774437Y-70367219D01*
X50964913Y-69748171D02*
X50869675Y-69700552D01*
X50869675Y-69700552D02*
X50679199Y-69700552D01*
X50679199Y-69700552D02*
X50583961Y-69748171D01*
X50583961Y-69748171D02*
X50536342Y-69795790D01*
X50536342Y-69795790D02*
X50488723Y-69891028D01*
X50488723Y-69891028D02*
X50488723Y-70176742D01*
X50488723Y-70176742D02*
X50536342Y-70271980D01*
X50536342Y-70271980D02*
X50583961Y-70319600D01*
X50583961Y-70319600D02*
X50679199Y-70367219D01*
X50679199Y-70367219D02*
X50822056Y-70367219D01*
X50822056Y-70367219D02*
X50917294Y-70414838D01*
X50917294Y-70414838D02*
X50964913Y-70510076D01*
X50964913Y-70510076D02*
X50964913Y-70557695D01*
X50964913Y-70557695D02*
X50917294Y-70652933D01*
X50917294Y-70652933D02*
X50822056Y-70700552D01*
D10*
X66303884Y-53991466D02*
X67065789Y-53991466D01*
X66684836Y-54372419D02*
X66684836Y-53610514D01*
X68303884Y-53991466D02*
X69065789Y-53991466D01*
X68684836Y-54372419D02*
X68684836Y-53610514D01*
X70303884Y-53991466D02*
X71065789Y-53991466D01*
X70684836Y-54372419D02*
X70684836Y-53610514D01*
X72303884Y-53991466D02*
X73065789Y-53991466D01*
X72684836Y-54372419D02*
X72684836Y-53610514D01*
D11*
X70712628Y-66135714D02*
X70741200Y-66164286D01*
X70741200Y-66164286D02*
X70769771Y-66250000D01*
X70769771Y-66250000D02*
X70769771Y-66307143D01*
X70769771Y-66307143D02*
X70741200Y-66392857D01*
X70741200Y-66392857D02*
X70684057Y-66450000D01*
X70684057Y-66450000D02*
X70626914Y-66478571D01*
X70626914Y-66478571D02*
X70512628Y-66507143D01*
X70512628Y-66507143D02*
X70426914Y-66507143D01*
X70426914Y-66507143D02*
X70312628Y-66478571D01*
X70312628Y-66478571D02*
X70255485Y-66450000D01*
X70255485Y-66450000D02*
X70198342Y-66392857D01*
X70198342Y-66392857D02*
X70169771Y-66307143D01*
X70169771Y-66307143D02*
X70169771Y-66250000D01*
X70169771Y-66250000D02*
X70198342Y-66164286D01*
X70198342Y-66164286D02*
X70226914Y-66135714D01*
X70769771Y-65564286D02*
X70769771Y-65907143D01*
X70769771Y-65735714D02*
X70169771Y-65735714D01*
X70169771Y-65735714D02*
X70255485Y-65792857D01*
X70255485Y-65792857D02*
X70312628Y-65850000D01*
X70312628Y-65850000D02*
X70341200Y-65907143D01*
X70169771Y-65364285D02*
X70169771Y-64992857D01*
X70169771Y-64992857D02*
X70398342Y-65192857D01*
X70398342Y-65192857D02*
X70398342Y-65107142D01*
X70398342Y-65107142D02*
X70426914Y-65050000D01*
X70426914Y-65050000D02*
X70455485Y-65021428D01*
X70455485Y-65021428D02*
X70512628Y-64992857D01*
X70512628Y-64992857D02*
X70655485Y-64992857D01*
X70655485Y-64992857D02*
X70712628Y-65021428D01*
X70712628Y-65021428D02*
X70741200Y-65050000D01*
X70741200Y-65050000D02*
X70769771Y-65107142D01*
X70769771Y-65107142D02*
X70769771Y-65278571D01*
X70769771Y-65278571D02*
X70741200Y-65335714D01*
X70741200Y-65335714D02*
X70712628Y-65364285D01*
X62920000Y-53955485D02*
X62720000Y-53955485D01*
X62720000Y-54269771D02*
X62720000Y-53669771D01*
X62720000Y-53669771D02*
X63005714Y-53669771D01*
X63434286Y-53955485D02*
X63520000Y-53984057D01*
X63520000Y-53984057D02*
X63548571Y-54012628D01*
X63548571Y-54012628D02*
X63577143Y-54069771D01*
X63577143Y-54069771D02*
X63577143Y-54155485D01*
X63577143Y-54155485D02*
X63548571Y-54212628D01*
X63548571Y-54212628D02*
X63520000Y-54241200D01*
X63520000Y-54241200D02*
X63462857Y-54269771D01*
X63462857Y-54269771D02*
X63234286Y-54269771D01*
X63234286Y-54269771D02*
X63234286Y-53669771D01*
X63234286Y-53669771D02*
X63434286Y-53669771D01*
X63434286Y-53669771D02*
X63491429Y-53698342D01*
X63491429Y-53698342D02*
X63520000Y-53726914D01*
X63520000Y-53726914D02*
X63548571Y-53784057D01*
X63548571Y-53784057D02*
X63548571Y-53841200D01*
X63548571Y-53841200D02*
X63520000Y-53898342D01*
X63520000Y-53898342D02*
X63491429Y-53926914D01*
X63491429Y-53926914D02*
X63434286Y-53955485D01*
X63434286Y-53955485D02*
X63234286Y-53955485D01*
X63777143Y-53669771D02*
X64148571Y-53669771D01*
X64148571Y-53669771D02*
X63948571Y-53898342D01*
X63948571Y-53898342D02*
X64034286Y-53898342D01*
X64034286Y-53898342D02*
X64091429Y-53926914D01*
X64091429Y-53926914D02*
X64120000Y-53955485D01*
X64120000Y-53955485D02*
X64148571Y-54012628D01*
X64148571Y-54012628D02*
X64148571Y-54155485D01*
X64148571Y-54155485D02*
X64120000Y-54212628D01*
X64120000Y-54212628D02*
X64091429Y-54241200D01*
X64091429Y-54241200D02*
X64034286Y-54269771D01*
X64034286Y-54269771D02*
X63862857Y-54269771D01*
X63862857Y-54269771D02*
X63805714Y-54241200D01*
X63805714Y-54241200D02*
X63777143Y-54212628D01*
X60614285Y-71269771D02*
X60414285Y-70984057D01*
X60271428Y-71269771D02*
X60271428Y-70669771D01*
X60271428Y-70669771D02*
X60499999Y-70669771D01*
X60499999Y-70669771D02*
X60557142Y-70698342D01*
X60557142Y-70698342D02*
X60585713Y-70726914D01*
X60585713Y-70726914D02*
X60614285Y-70784057D01*
X60614285Y-70784057D02*
X60614285Y-70869771D01*
X60614285Y-70869771D02*
X60585713Y-70926914D01*
X60585713Y-70926914D02*
X60557142Y-70955485D01*
X60557142Y-70955485D02*
X60499999Y-70984057D01*
X60499999Y-70984057D02*
X60271428Y-70984057D01*
X61185713Y-71269771D02*
X60842856Y-71269771D01*
X61014285Y-71269771D02*
X61014285Y-70669771D01*
X61014285Y-70669771D02*
X60957142Y-70755485D01*
X60957142Y-70755485D02*
X60899999Y-70812628D01*
X60899999Y-70812628D02*
X60842856Y-70841200D01*
X61557142Y-70669771D02*
X61614285Y-70669771D01*
X61614285Y-70669771D02*
X61671428Y-70698342D01*
X61671428Y-70698342D02*
X61700000Y-70726914D01*
X61700000Y-70726914D02*
X61728571Y-70784057D01*
X61728571Y-70784057D02*
X61757142Y-70898342D01*
X61757142Y-70898342D02*
X61757142Y-71041200D01*
X61757142Y-71041200D02*
X61728571Y-71155485D01*
X61728571Y-71155485D02*
X61700000Y-71212628D01*
X61700000Y-71212628D02*
X61671428Y-71241200D01*
X61671428Y-71241200D02*
X61614285Y-71269771D01*
X61614285Y-71269771D02*
X61557142Y-71269771D01*
X61557142Y-71269771D02*
X61500000Y-71241200D01*
X61500000Y-71241200D02*
X61471428Y-71212628D01*
X61471428Y-71212628D02*
X61442857Y-71155485D01*
X61442857Y-71155485D02*
X61414285Y-71041200D01*
X61414285Y-71041200D02*
X61414285Y-70898342D01*
X61414285Y-70898342D02*
X61442857Y-70784057D01*
X61442857Y-70784057D02*
X61471428Y-70726914D01*
X61471428Y-70726914D02*
X61500000Y-70698342D01*
X61500000Y-70698342D02*
X61557142Y-70669771D01*
X53019771Y-64099999D02*
X52734057Y-64299999D01*
X53019771Y-64442856D02*
X52419771Y-64442856D01*
X52419771Y-64442856D02*
X52419771Y-64214285D01*
X52419771Y-64214285D02*
X52448342Y-64157142D01*
X52448342Y-64157142D02*
X52476914Y-64128571D01*
X52476914Y-64128571D02*
X52534057Y-64099999D01*
X52534057Y-64099999D02*
X52619771Y-64099999D01*
X52619771Y-64099999D02*
X52676914Y-64128571D01*
X52676914Y-64128571D02*
X52705485Y-64157142D01*
X52705485Y-64157142D02*
X52734057Y-64214285D01*
X52734057Y-64214285D02*
X52734057Y-64442856D01*
X52619771Y-63585714D02*
X53019771Y-63585714D01*
X52391200Y-63728571D02*
X52819771Y-63871428D01*
X52819771Y-63871428D02*
X52819771Y-63499999D01*
X72769771Y-71135714D02*
X72484057Y-71335714D01*
X72769771Y-71478571D02*
X72169771Y-71478571D01*
X72169771Y-71478571D02*
X72169771Y-71250000D01*
X72169771Y-71250000D02*
X72198342Y-71192857D01*
X72198342Y-71192857D02*
X72226914Y-71164286D01*
X72226914Y-71164286D02*
X72284057Y-71135714D01*
X72284057Y-71135714D02*
X72369771Y-71135714D01*
X72369771Y-71135714D02*
X72426914Y-71164286D01*
X72426914Y-71164286D02*
X72455485Y-71192857D01*
X72455485Y-71192857D02*
X72484057Y-71250000D01*
X72484057Y-71250000D02*
X72484057Y-71478571D01*
X72769771Y-70564286D02*
X72769771Y-70907143D01*
X72769771Y-70735714D02*
X72169771Y-70735714D01*
X72169771Y-70735714D02*
X72255485Y-70792857D01*
X72255485Y-70792857D02*
X72312628Y-70850000D01*
X72312628Y-70850000D02*
X72341200Y-70907143D01*
X72169771Y-70021428D02*
X72169771Y-70307142D01*
X72169771Y-70307142D02*
X72455485Y-70335714D01*
X72455485Y-70335714D02*
X72426914Y-70307142D01*
X72426914Y-70307142D02*
X72398342Y-70250000D01*
X72398342Y-70250000D02*
X72398342Y-70107142D01*
X72398342Y-70107142D02*
X72426914Y-70050000D01*
X72426914Y-70050000D02*
X72455485Y-70021428D01*
X72455485Y-70021428D02*
X72512628Y-69992857D01*
X72512628Y-69992857D02*
X72655485Y-69992857D01*
X72655485Y-69992857D02*
X72712628Y-70021428D01*
X72712628Y-70021428D02*
X72741200Y-70050000D01*
X72741200Y-70050000D02*
X72769771Y-70107142D01*
X72769771Y-70107142D02*
X72769771Y-70250000D01*
X72769771Y-70250000D02*
X72741200Y-70307142D01*
X72741200Y-70307142D02*
X72712628Y-70335714D01*
X43400000Y-59769771D02*
X43200000Y-59484057D01*
X43057143Y-59769771D02*
X43057143Y-59169771D01*
X43057143Y-59169771D02*
X43285714Y-59169771D01*
X43285714Y-59169771D02*
X43342857Y-59198342D01*
X43342857Y-59198342D02*
X43371428Y-59226914D01*
X43371428Y-59226914D02*
X43400000Y-59284057D01*
X43400000Y-59284057D02*
X43400000Y-59369771D01*
X43400000Y-59369771D02*
X43371428Y-59426914D01*
X43371428Y-59426914D02*
X43342857Y-59455485D01*
X43342857Y-59455485D02*
X43285714Y-59484057D01*
X43285714Y-59484057D02*
X43057143Y-59484057D01*
X43971428Y-59769771D02*
X43628571Y-59769771D01*
X43800000Y-59769771D02*
X43800000Y-59169771D01*
X43800000Y-59169771D02*
X43742857Y-59255485D01*
X43742857Y-59255485D02*
X43685714Y-59312628D01*
X43685714Y-59312628D02*
X43628571Y-59341200D01*
D10*
X34090952Y-69016109D02*
X34090952Y-68516109D01*
X34090952Y-68516109D02*
X34281428Y-68516109D01*
X34281428Y-68516109D02*
X34329047Y-68539919D01*
X34329047Y-68539919D02*
X34352857Y-68563728D01*
X34352857Y-68563728D02*
X34376666Y-68611347D01*
X34376666Y-68611347D02*
X34376666Y-68682776D01*
X34376666Y-68682776D02*
X34352857Y-68730395D01*
X34352857Y-68730395D02*
X34329047Y-68754204D01*
X34329047Y-68754204D02*
X34281428Y-68778014D01*
X34281428Y-68778014D02*
X34090952Y-68778014D01*
X34852857Y-69016109D02*
X34567143Y-69016109D01*
X34710000Y-69016109D02*
X34710000Y-68516109D01*
X34710000Y-68516109D02*
X34662381Y-68587538D01*
X34662381Y-68587538D02*
X34614762Y-68635157D01*
X34614762Y-68635157D02*
X34567143Y-68658966D01*
D11*
X50150000Y-60269771D02*
X49950000Y-59984057D01*
X49807143Y-60269771D02*
X49807143Y-59669771D01*
X49807143Y-59669771D02*
X50035714Y-59669771D01*
X50035714Y-59669771D02*
X50092857Y-59698342D01*
X50092857Y-59698342D02*
X50121428Y-59726914D01*
X50121428Y-59726914D02*
X50150000Y-59784057D01*
X50150000Y-59784057D02*
X50150000Y-59869771D01*
X50150000Y-59869771D02*
X50121428Y-59926914D01*
X50121428Y-59926914D02*
X50092857Y-59955485D01*
X50092857Y-59955485D02*
X50035714Y-59984057D01*
X50035714Y-59984057D02*
X49807143Y-59984057D01*
X50692857Y-59669771D02*
X50407143Y-59669771D01*
X50407143Y-59669771D02*
X50378571Y-59955485D01*
X50378571Y-59955485D02*
X50407143Y-59926914D01*
X50407143Y-59926914D02*
X50464286Y-59898342D01*
X50464286Y-59898342D02*
X50607143Y-59898342D01*
X50607143Y-59898342D02*
X50664286Y-59926914D01*
X50664286Y-59926914D02*
X50692857Y-59955485D01*
X50692857Y-59955485D02*
X50721428Y-60012628D01*
X50721428Y-60012628D02*
X50721428Y-60155485D01*
X50721428Y-60155485D02*
X50692857Y-60212628D01*
X50692857Y-60212628D02*
X50664286Y-60241200D01*
X50664286Y-60241200D02*
X50607143Y-60269771D01*
X50607143Y-60269771D02*
X50464286Y-60269771D01*
X50464286Y-60269771D02*
X50407143Y-60241200D01*
X50407143Y-60241200D02*
X50378571Y-60212628D01*
X67534285Y-56269771D02*
X67334285Y-55984057D01*
X67191428Y-56269771D02*
X67191428Y-55669771D01*
X67191428Y-55669771D02*
X67419999Y-55669771D01*
X67419999Y-55669771D02*
X67477142Y-55698342D01*
X67477142Y-55698342D02*
X67505713Y-55726914D01*
X67505713Y-55726914D02*
X67534285Y-55784057D01*
X67534285Y-55784057D02*
X67534285Y-55869771D01*
X67534285Y-55869771D02*
X67505713Y-55926914D01*
X67505713Y-55926914D02*
X67477142Y-55955485D01*
X67477142Y-55955485D02*
X67419999Y-55984057D01*
X67419999Y-55984057D02*
X67191428Y-55984057D01*
X68105713Y-56269771D02*
X67762856Y-56269771D01*
X67934285Y-56269771D02*
X67934285Y-55669771D01*
X67934285Y-55669771D02*
X67877142Y-55755485D01*
X67877142Y-55755485D02*
X67819999Y-55812628D01*
X67819999Y-55812628D02*
X67762856Y-55841200D01*
X68677142Y-56269771D02*
X68334285Y-56269771D01*
X68505714Y-56269771D02*
X68505714Y-55669771D01*
X68505714Y-55669771D02*
X68448571Y-55755485D01*
X68448571Y-55755485D02*
X68391428Y-55812628D01*
X68391428Y-55812628D02*
X68334285Y-55841200D01*
X50769771Y-62099999D02*
X50484057Y-62299999D01*
X50769771Y-62442856D02*
X50169771Y-62442856D01*
X50169771Y-62442856D02*
X50169771Y-62214285D01*
X50169771Y-62214285D02*
X50198342Y-62157142D01*
X50198342Y-62157142D02*
X50226914Y-62128571D01*
X50226914Y-62128571D02*
X50284057Y-62099999D01*
X50284057Y-62099999D02*
X50369771Y-62099999D01*
X50369771Y-62099999D02*
X50426914Y-62128571D01*
X50426914Y-62128571D02*
X50455485Y-62157142D01*
X50455485Y-62157142D02*
X50484057Y-62214285D01*
X50484057Y-62214285D02*
X50484057Y-62442856D01*
X50169771Y-61899999D02*
X50169771Y-61528571D01*
X50169771Y-61528571D02*
X50398342Y-61728571D01*
X50398342Y-61728571D02*
X50398342Y-61642856D01*
X50398342Y-61642856D02*
X50426914Y-61585714D01*
X50426914Y-61585714D02*
X50455485Y-61557142D01*
X50455485Y-61557142D02*
X50512628Y-61528571D01*
X50512628Y-61528571D02*
X50655485Y-61528571D01*
X50655485Y-61528571D02*
X50712628Y-61557142D01*
X50712628Y-61557142D02*
X50741200Y-61585714D01*
X50741200Y-61585714D02*
X50769771Y-61642856D01*
X50769771Y-61642856D02*
X50769771Y-61814285D01*
X50769771Y-61814285D02*
X50741200Y-61871428D01*
X50741200Y-61871428D02*
X50712628Y-61899999D01*
X64400000Y-71712628D02*
X64371428Y-71741200D01*
X64371428Y-71741200D02*
X64285714Y-71769771D01*
X64285714Y-71769771D02*
X64228571Y-71769771D01*
X64228571Y-71769771D02*
X64142857Y-71741200D01*
X64142857Y-71741200D02*
X64085714Y-71684057D01*
X64085714Y-71684057D02*
X64057143Y-71626914D01*
X64057143Y-71626914D02*
X64028571Y-71512628D01*
X64028571Y-71512628D02*
X64028571Y-71426914D01*
X64028571Y-71426914D02*
X64057143Y-71312628D01*
X64057143Y-71312628D02*
X64085714Y-71255485D01*
X64085714Y-71255485D02*
X64142857Y-71198342D01*
X64142857Y-71198342D02*
X64228571Y-71169771D01*
X64228571Y-71169771D02*
X64285714Y-71169771D01*
X64285714Y-71169771D02*
X64371428Y-71198342D01*
X64371428Y-71198342D02*
X64400000Y-71226914D01*
X64685714Y-71769771D02*
X64800000Y-71769771D01*
X64800000Y-71769771D02*
X64857143Y-71741200D01*
X64857143Y-71741200D02*
X64885714Y-71712628D01*
X64885714Y-71712628D02*
X64942857Y-71626914D01*
X64942857Y-71626914D02*
X64971428Y-71512628D01*
X64971428Y-71512628D02*
X64971428Y-71284057D01*
X64971428Y-71284057D02*
X64942857Y-71226914D01*
X64942857Y-71226914D02*
X64914286Y-71198342D01*
X64914286Y-71198342D02*
X64857143Y-71169771D01*
X64857143Y-71169771D02*
X64742857Y-71169771D01*
X64742857Y-71169771D02*
X64685714Y-71198342D01*
X64685714Y-71198342D02*
X64657143Y-71226914D01*
X64657143Y-71226914D02*
X64628571Y-71284057D01*
X64628571Y-71284057D02*
X64628571Y-71426914D01*
X64628571Y-71426914D02*
X64657143Y-71484057D01*
X64657143Y-71484057D02*
X64685714Y-71512628D01*
X64685714Y-71512628D02*
X64742857Y-71541200D01*
X64742857Y-71541200D02*
X64857143Y-71541200D01*
X64857143Y-71541200D02*
X64914286Y-71512628D01*
X64914286Y-71512628D02*
X64942857Y-71484057D01*
X64942857Y-71484057D02*
X64971428Y-71426914D01*
X47400000Y-59519771D02*
X47200000Y-59234057D01*
X47057143Y-59519771D02*
X47057143Y-58919771D01*
X47057143Y-58919771D02*
X47285714Y-58919771D01*
X47285714Y-58919771D02*
X47342857Y-58948342D01*
X47342857Y-58948342D02*
X47371428Y-58976914D01*
X47371428Y-58976914D02*
X47400000Y-59034057D01*
X47400000Y-59034057D02*
X47400000Y-59119771D01*
X47400000Y-59119771D02*
X47371428Y-59176914D01*
X47371428Y-59176914D02*
X47342857Y-59205485D01*
X47342857Y-59205485D02*
X47285714Y-59234057D01*
X47285714Y-59234057D02*
X47057143Y-59234057D01*
X47628571Y-58976914D02*
X47657143Y-58948342D01*
X47657143Y-58948342D02*
X47714286Y-58919771D01*
X47714286Y-58919771D02*
X47857143Y-58919771D01*
X47857143Y-58919771D02*
X47914286Y-58948342D01*
X47914286Y-58948342D02*
X47942857Y-58976914D01*
X47942857Y-58976914D02*
X47971428Y-59034057D01*
X47971428Y-59034057D02*
X47971428Y-59091200D01*
X47971428Y-59091200D02*
X47942857Y-59176914D01*
X47942857Y-59176914D02*
X47600000Y-59519771D01*
X47600000Y-59519771D02*
X47971428Y-59519771D01*
X47362500Y-54712628D02*
X47333928Y-54741200D01*
X47333928Y-54741200D02*
X47248214Y-54769771D01*
X47248214Y-54769771D02*
X47191071Y-54769771D01*
X47191071Y-54769771D02*
X47105357Y-54741200D01*
X47105357Y-54741200D02*
X47048214Y-54684057D01*
X47048214Y-54684057D02*
X47019643Y-54626914D01*
X47019643Y-54626914D02*
X46991071Y-54512628D01*
X46991071Y-54512628D02*
X46991071Y-54426914D01*
X46991071Y-54426914D02*
X47019643Y-54312628D01*
X47019643Y-54312628D02*
X47048214Y-54255485D01*
X47048214Y-54255485D02*
X47105357Y-54198342D01*
X47105357Y-54198342D02*
X47191071Y-54169771D01*
X47191071Y-54169771D02*
X47248214Y-54169771D01*
X47248214Y-54169771D02*
X47333928Y-54198342D01*
X47333928Y-54198342D02*
X47362500Y-54226914D01*
X47876786Y-54369771D02*
X47876786Y-54769771D01*
X47733928Y-54141200D02*
X47591071Y-54569771D01*
X47591071Y-54569771D02*
X47962500Y-54569771D01*
X74207500Y-59712628D02*
X74178928Y-59741200D01*
X74178928Y-59741200D02*
X74093214Y-59769771D01*
X74093214Y-59769771D02*
X74036071Y-59769771D01*
X74036071Y-59769771D02*
X73950357Y-59741200D01*
X73950357Y-59741200D02*
X73893214Y-59684057D01*
X73893214Y-59684057D02*
X73864643Y-59626914D01*
X73864643Y-59626914D02*
X73836071Y-59512628D01*
X73836071Y-59512628D02*
X73836071Y-59426914D01*
X73836071Y-59426914D02*
X73864643Y-59312628D01*
X73864643Y-59312628D02*
X73893214Y-59255485D01*
X73893214Y-59255485D02*
X73950357Y-59198342D01*
X73950357Y-59198342D02*
X74036071Y-59169771D01*
X74036071Y-59169771D02*
X74093214Y-59169771D01*
X74093214Y-59169771D02*
X74178928Y-59198342D01*
X74178928Y-59198342D02*
X74207500Y-59226914D01*
X74778928Y-59769771D02*
X74436071Y-59769771D01*
X74607500Y-59769771D02*
X74607500Y-59169771D01*
X74607500Y-59169771D02*
X74550357Y-59255485D01*
X74550357Y-59255485D02*
X74493214Y-59312628D01*
X74493214Y-59312628D02*
X74436071Y-59341200D01*
X63614285Y-69769771D02*
X63414285Y-69484057D01*
X63271428Y-69769771D02*
X63271428Y-69169771D01*
X63271428Y-69169771D02*
X63499999Y-69169771D01*
X63499999Y-69169771D02*
X63557142Y-69198342D01*
X63557142Y-69198342D02*
X63585713Y-69226914D01*
X63585713Y-69226914D02*
X63614285Y-69284057D01*
X63614285Y-69284057D02*
X63614285Y-69369771D01*
X63614285Y-69369771D02*
X63585713Y-69426914D01*
X63585713Y-69426914D02*
X63557142Y-69455485D01*
X63557142Y-69455485D02*
X63499999Y-69484057D01*
X63499999Y-69484057D02*
X63271428Y-69484057D01*
X64185713Y-69769771D02*
X63842856Y-69769771D01*
X64014285Y-69769771D02*
X64014285Y-69169771D01*
X64014285Y-69169771D02*
X63957142Y-69255485D01*
X63957142Y-69255485D02*
X63899999Y-69312628D01*
X63899999Y-69312628D02*
X63842856Y-69341200D01*
X64385714Y-69169771D02*
X64757142Y-69169771D01*
X64757142Y-69169771D02*
X64557142Y-69398342D01*
X64557142Y-69398342D02*
X64642857Y-69398342D01*
X64642857Y-69398342D02*
X64700000Y-69426914D01*
X64700000Y-69426914D02*
X64728571Y-69455485D01*
X64728571Y-69455485D02*
X64757142Y-69512628D01*
X64757142Y-69512628D02*
X64757142Y-69655485D01*
X64757142Y-69655485D02*
X64728571Y-69712628D01*
X64728571Y-69712628D02*
X64700000Y-69741200D01*
X64700000Y-69741200D02*
X64642857Y-69769771D01*
X64642857Y-69769771D02*
X64471428Y-69769771D01*
X64471428Y-69769771D02*
X64414285Y-69741200D01*
X64414285Y-69741200D02*
X64385714Y-69712628D01*
X61150000Y-60269771D02*
X60950000Y-59984057D01*
X60807143Y-60269771D02*
X60807143Y-59669771D01*
X60807143Y-59669771D02*
X61035714Y-59669771D01*
X61035714Y-59669771D02*
X61092857Y-59698342D01*
X61092857Y-59698342D02*
X61121428Y-59726914D01*
X61121428Y-59726914D02*
X61150000Y-59784057D01*
X61150000Y-59784057D02*
X61150000Y-59869771D01*
X61150000Y-59869771D02*
X61121428Y-59926914D01*
X61121428Y-59926914D02*
X61092857Y-59955485D01*
X61092857Y-59955485D02*
X61035714Y-59984057D01*
X61035714Y-59984057D02*
X60807143Y-59984057D01*
X61435714Y-60269771D02*
X61550000Y-60269771D01*
X61550000Y-60269771D02*
X61607143Y-60241200D01*
X61607143Y-60241200D02*
X61635714Y-60212628D01*
X61635714Y-60212628D02*
X61692857Y-60126914D01*
X61692857Y-60126914D02*
X61721428Y-60012628D01*
X61721428Y-60012628D02*
X61721428Y-59784057D01*
X61721428Y-59784057D02*
X61692857Y-59726914D01*
X61692857Y-59726914D02*
X61664286Y-59698342D01*
X61664286Y-59698342D02*
X61607143Y-59669771D01*
X61607143Y-59669771D02*
X61492857Y-59669771D01*
X61492857Y-59669771D02*
X61435714Y-59698342D01*
X61435714Y-59698342D02*
X61407143Y-59726914D01*
X61407143Y-59726914D02*
X61378571Y-59784057D01*
X61378571Y-59784057D02*
X61378571Y-59926914D01*
X61378571Y-59926914D02*
X61407143Y-59984057D01*
X61407143Y-59984057D02*
X61435714Y-60012628D01*
X61435714Y-60012628D02*
X61492857Y-60041200D01*
X61492857Y-60041200D02*
X61607143Y-60041200D01*
X61607143Y-60041200D02*
X61664286Y-60012628D01*
X61664286Y-60012628D02*
X61692857Y-59984057D01*
X61692857Y-59984057D02*
X61721428Y-59926914D01*
X67704819Y-65061904D02*
X68514342Y-65061904D01*
X68514342Y-65061904D02*
X68609580Y-65014285D01*
X68609580Y-65014285D02*
X68657200Y-64966666D01*
X68657200Y-64966666D02*
X68704819Y-64871428D01*
X68704819Y-64871428D02*
X68704819Y-64680952D01*
X68704819Y-64680952D02*
X68657200Y-64585714D01*
X68657200Y-64585714D02*
X68609580Y-64538095D01*
X68609580Y-64538095D02*
X68514342Y-64490476D01*
X68514342Y-64490476D02*
X67704819Y-64490476D01*
X67800057Y-64061904D02*
X67752438Y-64014285D01*
X67752438Y-64014285D02*
X67704819Y-63919047D01*
X67704819Y-63919047D02*
X67704819Y-63680952D01*
X67704819Y-63680952D02*
X67752438Y-63585714D01*
X67752438Y-63585714D02*
X67800057Y-63538095D01*
X67800057Y-63538095D02*
X67895295Y-63490476D01*
X67895295Y-63490476D02*
X67990533Y-63490476D01*
X67990533Y-63490476D02*
X68133390Y-63538095D01*
X68133390Y-63538095D02*
X68704819Y-64109523D01*
X68704819Y-64109523D02*
X68704819Y-63490476D01*
X57614285Y-54212628D02*
X57585713Y-54241200D01*
X57585713Y-54241200D02*
X57499999Y-54269771D01*
X57499999Y-54269771D02*
X57442856Y-54269771D01*
X57442856Y-54269771D02*
X57357142Y-54241200D01*
X57357142Y-54241200D02*
X57299999Y-54184057D01*
X57299999Y-54184057D02*
X57271428Y-54126914D01*
X57271428Y-54126914D02*
X57242856Y-54012628D01*
X57242856Y-54012628D02*
X57242856Y-53926914D01*
X57242856Y-53926914D02*
X57271428Y-53812628D01*
X57271428Y-53812628D02*
X57299999Y-53755485D01*
X57299999Y-53755485D02*
X57357142Y-53698342D01*
X57357142Y-53698342D02*
X57442856Y-53669771D01*
X57442856Y-53669771D02*
X57499999Y-53669771D01*
X57499999Y-53669771D02*
X57585713Y-53698342D01*
X57585713Y-53698342D02*
X57614285Y-53726914D01*
X58185713Y-54269771D02*
X57842856Y-54269771D01*
X58014285Y-54269771D02*
X58014285Y-53669771D01*
X58014285Y-53669771D02*
X57957142Y-53755485D01*
X57957142Y-53755485D02*
X57899999Y-53812628D01*
X57899999Y-53812628D02*
X57842856Y-53841200D01*
X58557142Y-53669771D02*
X58614285Y-53669771D01*
X58614285Y-53669771D02*
X58671428Y-53698342D01*
X58671428Y-53698342D02*
X58700000Y-53726914D01*
X58700000Y-53726914D02*
X58728571Y-53784057D01*
X58728571Y-53784057D02*
X58757142Y-53898342D01*
X58757142Y-53898342D02*
X58757142Y-54041200D01*
X58757142Y-54041200D02*
X58728571Y-54155485D01*
X58728571Y-54155485D02*
X58700000Y-54212628D01*
X58700000Y-54212628D02*
X58671428Y-54241200D01*
X58671428Y-54241200D02*
X58614285Y-54269771D01*
X58614285Y-54269771D02*
X58557142Y-54269771D01*
X58557142Y-54269771D02*
X58500000Y-54241200D01*
X58500000Y-54241200D02*
X58471428Y-54212628D01*
X58471428Y-54212628D02*
X58442857Y-54155485D01*
X58442857Y-54155485D02*
X58414285Y-54041200D01*
X58414285Y-54041200D02*
X58414285Y-53898342D01*
X58414285Y-53898342D02*
X58442857Y-53784057D01*
X58442857Y-53784057D02*
X58471428Y-53726914D01*
X58471428Y-53726914D02*
X58500000Y-53698342D01*
X58500000Y-53698342D02*
X58557142Y-53669771D01*
D10*
X87130952Y-67926109D02*
X87130952Y-67426109D01*
X87130952Y-67426109D02*
X87321428Y-67426109D01*
X87321428Y-67426109D02*
X87369047Y-67449919D01*
X87369047Y-67449919D02*
X87392857Y-67473728D01*
X87392857Y-67473728D02*
X87416666Y-67521347D01*
X87416666Y-67521347D02*
X87416666Y-67592776D01*
X87416666Y-67592776D02*
X87392857Y-67640395D01*
X87392857Y-67640395D02*
X87369047Y-67664204D01*
X87369047Y-67664204D02*
X87321428Y-67688014D01*
X87321428Y-67688014D02*
X87130952Y-67688014D01*
X87607143Y-67473728D02*
X87630952Y-67449919D01*
X87630952Y-67449919D02*
X87678571Y-67426109D01*
X87678571Y-67426109D02*
X87797619Y-67426109D01*
X87797619Y-67426109D02*
X87845238Y-67449919D01*
X87845238Y-67449919D02*
X87869047Y-67473728D01*
X87869047Y-67473728D02*
X87892857Y-67521347D01*
X87892857Y-67521347D02*
X87892857Y-67568966D01*
X87892857Y-67568966D02*
X87869047Y-67640395D01*
X87869047Y-67640395D02*
X87583333Y-67926109D01*
X87583333Y-67926109D02*
X87892857Y-67926109D01*
D11*
X54400000Y-69769771D02*
X54200000Y-69484057D01*
X54057143Y-69769771D02*
X54057143Y-69169771D01*
X54057143Y-69169771D02*
X54285714Y-69169771D01*
X54285714Y-69169771D02*
X54342857Y-69198342D01*
X54342857Y-69198342D02*
X54371428Y-69226914D01*
X54371428Y-69226914D02*
X54400000Y-69284057D01*
X54400000Y-69284057D02*
X54400000Y-69369771D01*
X54400000Y-69369771D02*
X54371428Y-69426914D01*
X54371428Y-69426914D02*
X54342857Y-69455485D01*
X54342857Y-69455485D02*
X54285714Y-69484057D01*
X54285714Y-69484057D02*
X54057143Y-69484057D01*
X54742857Y-69426914D02*
X54685714Y-69398342D01*
X54685714Y-69398342D02*
X54657143Y-69369771D01*
X54657143Y-69369771D02*
X54628571Y-69312628D01*
X54628571Y-69312628D02*
X54628571Y-69284057D01*
X54628571Y-69284057D02*
X54657143Y-69226914D01*
X54657143Y-69226914D02*
X54685714Y-69198342D01*
X54685714Y-69198342D02*
X54742857Y-69169771D01*
X54742857Y-69169771D02*
X54857143Y-69169771D01*
X54857143Y-69169771D02*
X54914286Y-69198342D01*
X54914286Y-69198342D02*
X54942857Y-69226914D01*
X54942857Y-69226914D02*
X54971428Y-69284057D01*
X54971428Y-69284057D02*
X54971428Y-69312628D01*
X54971428Y-69312628D02*
X54942857Y-69369771D01*
X54942857Y-69369771D02*
X54914286Y-69398342D01*
X54914286Y-69398342D02*
X54857143Y-69426914D01*
X54857143Y-69426914D02*
X54742857Y-69426914D01*
X54742857Y-69426914D02*
X54685714Y-69455485D01*
X54685714Y-69455485D02*
X54657143Y-69484057D01*
X54657143Y-69484057D02*
X54628571Y-69541200D01*
X54628571Y-69541200D02*
X54628571Y-69655485D01*
X54628571Y-69655485D02*
X54657143Y-69712628D01*
X54657143Y-69712628D02*
X54685714Y-69741200D01*
X54685714Y-69741200D02*
X54742857Y-69769771D01*
X54742857Y-69769771D02*
X54857143Y-69769771D01*
X54857143Y-69769771D02*
X54914286Y-69741200D01*
X54914286Y-69741200D02*
X54942857Y-69712628D01*
X54942857Y-69712628D02*
X54971428Y-69655485D01*
X54971428Y-69655485D02*
X54971428Y-69541200D01*
X54971428Y-69541200D02*
X54942857Y-69484057D01*
X54942857Y-69484057D02*
X54914286Y-69455485D01*
X54914286Y-69455485D02*
X54857143Y-69426914D01*
X77242856Y-68669771D02*
X77585714Y-68669771D01*
X77414285Y-69269771D02*
X77414285Y-68669771D01*
X78128571Y-69269771D02*
X77928571Y-68984057D01*
X77785714Y-69269771D02*
X77785714Y-68669771D01*
X77785714Y-68669771D02*
X78014285Y-68669771D01*
X78014285Y-68669771D02*
X78071428Y-68698342D01*
X78071428Y-68698342D02*
X78099999Y-68726914D01*
X78099999Y-68726914D02*
X78128571Y-68784057D01*
X78128571Y-68784057D02*
X78128571Y-68869771D01*
X78128571Y-68869771D02*
X78099999Y-68926914D01*
X78099999Y-68926914D02*
X78071428Y-68955485D01*
X78071428Y-68955485D02*
X78014285Y-68984057D01*
X78014285Y-68984057D02*
X77785714Y-68984057D01*
X78357142Y-68726914D02*
X78385714Y-68698342D01*
X78385714Y-68698342D02*
X78442857Y-68669771D01*
X78442857Y-68669771D02*
X78585714Y-68669771D01*
X78585714Y-68669771D02*
X78642857Y-68698342D01*
X78642857Y-68698342D02*
X78671428Y-68726914D01*
X78671428Y-68726914D02*
X78699999Y-68784057D01*
X78699999Y-68784057D02*
X78699999Y-68841200D01*
X78699999Y-68841200D02*
X78671428Y-68926914D01*
X78671428Y-68926914D02*
X78328571Y-69269771D01*
X78328571Y-69269771D02*
X78699999Y-69269771D01*
X60400000Y-57769771D02*
X60200000Y-57484057D01*
X60057143Y-57769771D02*
X60057143Y-57169771D01*
X60057143Y-57169771D02*
X60285714Y-57169771D01*
X60285714Y-57169771D02*
X60342857Y-57198342D01*
X60342857Y-57198342D02*
X60371428Y-57226914D01*
X60371428Y-57226914D02*
X60400000Y-57284057D01*
X60400000Y-57284057D02*
X60400000Y-57369771D01*
X60400000Y-57369771D02*
X60371428Y-57426914D01*
X60371428Y-57426914D02*
X60342857Y-57455485D01*
X60342857Y-57455485D02*
X60285714Y-57484057D01*
X60285714Y-57484057D02*
X60057143Y-57484057D01*
X60914286Y-57169771D02*
X60800000Y-57169771D01*
X60800000Y-57169771D02*
X60742857Y-57198342D01*
X60742857Y-57198342D02*
X60714286Y-57226914D01*
X60714286Y-57226914D02*
X60657143Y-57312628D01*
X60657143Y-57312628D02*
X60628571Y-57426914D01*
X60628571Y-57426914D02*
X60628571Y-57655485D01*
X60628571Y-57655485D02*
X60657143Y-57712628D01*
X60657143Y-57712628D02*
X60685714Y-57741200D01*
X60685714Y-57741200D02*
X60742857Y-57769771D01*
X60742857Y-57769771D02*
X60857143Y-57769771D01*
X60857143Y-57769771D02*
X60914286Y-57741200D01*
X60914286Y-57741200D02*
X60942857Y-57712628D01*
X60942857Y-57712628D02*
X60971428Y-57655485D01*
X60971428Y-57655485D02*
X60971428Y-57512628D01*
X60971428Y-57512628D02*
X60942857Y-57455485D01*
X60942857Y-57455485D02*
X60914286Y-57426914D01*
X60914286Y-57426914D02*
X60857143Y-57398342D01*
X60857143Y-57398342D02*
X60742857Y-57398342D01*
X60742857Y-57398342D02*
X60685714Y-57426914D01*
X60685714Y-57426914D02*
X60657143Y-57455485D01*
X60657143Y-57455485D02*
X60628571Y-57512628D01*
X54962628Y-54599999D02*
X54991200Y-54628571D01*
X54991200Y-54628571D02*
X55019771Y-54714285D01*
X55019771Y-54714285D02*
X55019771Y-54771428D01*
X55019771Y-54771428D02*
X54991200Y-54857142D01*
X54991200Y-54857142D02*
X54934057Y-54914285D01*
X54934057Y-54914285D02*
X54876914Y-54942856D01*
X54876914Y-54942856D02*
X54762628Y-54971428D01*
X54762628Y-54971428D02*
X54676914Y-54971428D01*
X54676914Y-54971428D02*
X54562628Y-54942856D01*
X54562628Y-54942856D02*
X54505485Y-54914285D01*
X54505485Y-54914285D02*
X54448342Y-54857142D01*
X54448342Y-54857142D02*
X54419771Y-54771428D01*
X54419771Y-54771428D02*
X54419771Y-54714285D01*
X54419771Y-54714285D02*
X54448342Y-54628571D01*
X54448342Y-54628571D02*
X54476914Y-54599999D01*
X54419771Y-54085714D02*
X54419771Y-54199999D01*
X54419771Y-54199999D02*
X54448342Y-54257142D01*
X54448342Y-54257142D02*
X54476914Y-54285714D01*
X54476914Y-54285714D02*
X54562628Y-54342856D01*
X54562628Y-54342856D02*
X54676914Y-54371428D01*
X54676914Y-54371428D02*
X54905485Y-54371428D01*
X54905485Y-54371428D02*
X54962628Y-54342856D01*
X54962628Y-54342856D02*
X54991200Y-54314285D01*
X54991200Y-54314285D02*
X55019771Y-54257142D01*
X55019771Y-54257142D02*
X55019771Y-54142856D01*
X55019771Y-54142856D02*
X54991200Y-54085714D01*
X54991200Y-54085714D02*
X54962628Y-54057142D01*
X54962628Y-54057142D02*
X54905485Y-54028571D01*
X54905485Y-54028571D02*
X54762628Y-54028571D01*
X54762628Y-54028571D02*
X54705485Y-54057142D01*
X54705485Y-54057142D02*
X54676914Y-54085714D01*
X54676914Y-54085714D02*
X54648342Y-54142856D01*
X54648342Y-54142856D02*
X54648342Y-54257142D01*
X54648342Y-54257142D02*
X54676914Y-54314285D01*
X54676914Y-54314285D02*
X54705485Y-54342856D01*
X54705485Y-54342856D02*
X54762628Y-54371428D01*
X43000000Y-54455485D02*
X42800000Y-54455485D01*
X42800000Y-54769771D02*
X42800000Y-54169771D01*
X42800000Y-54169771D02*
X43085714Y-54169771D01*
X43514286Y-54455485D02*
X43600000Y-54484057D01*
X43600000Y-54484057D02*
X43628571Y-54512628D01*
X43628571Y-54512628D02*
X43657143Y-54569771D01*
X43657143Y-54569771D02*
X43657143Y-54655485D01*
X43657143Y-54655485D02*
X43628571Y-54712628D01*
X43628571Y-54712628D02*
X43600000Y-54741200D01*
X43600000Y-54741200D02*
X43542857Y-54769771D01*
X43542857Y-54769771D02*
X43314286Y-54769771D01*
X43314286Y-54769771D02*
X43314286Y-54169771D01*
X43314286Y-54169771D02*
X43514286Y-54169771D01*
X43514286Y-54169771D02*
X43571429Y-54198342D01*
X43571429Y-54198342D02*
X43600000Y-54226914D01*
X43600000Y-54226914D02*
X43628571Y-54284057D01*
X43628571Y-54284057D02*
X43628571Y-54341200D01*
X43628571Y-54341200D02*
X43600000Y-54398342D01*
X43600000Y-54398342D02*
X43571429Y-54426914D01*
X43571429Y-54426914D02*
X43514286Y-54455485D01*
X43514286Y-54455485D02*
X43314286Y-54455485D01*
X44228571Y-54769771D02*
X43885714Y-54769771D01*
X44057143Y-54769771D02*
X44057143Y-54169771D01*
X44057143Y-54169771D02*
X44000000Y-54255485D01*
X44000000Y-54255485D02*
X43942857Y-54312628D01*
X43942857Y-54312628D02*
X43885714Y-54341200D01*
X82549999Y-59789771D02*
X82549999Y-60218342D01*
X82549999Y-60218342D02*
X82521428Y-60304057D01*
X82521428Y-60304057D02*
X82464285Y-60361200D01*
X82464285Y-60361200D02*
X82378571Y-60389771D01*
X82378571Y-60389771D02*
X82321428Y-60389771D01*
X83149999Y-60389771D02*
X82807142Y-60389771D01*
X82978571Y-60389771D02*
X82978571Y-59789771D01*
X82978571Y-59789771D02*
X82921428Y-59875485D01*
X82921428Y-59875485D02*
X82864285Y-59932628D01*
X82864285Y-59932628D02*
X82807142Y-59961200D01*
X57204819Y-65011904D02*
X58014342Y-65011904D01*
X58014342Y-65011904D02*
X58109580Y-64964285D01*
X58109580Y-64964285D02*
X58157200Y-64916666D01*
X58157200Y-64916666D02*
X58204819Y-64821428D01*
X58204819Y-64821428D02*
X58204819Y-64630952D01*
X58204819Y-64630952D02*
X58157200Y-64535714D01*
X58157200Y-64535714D02*
X58109580Y-64488095D01*
X58109580Y-64488095D02*
X58014342Y-64440476D01*
X58014342Y-64440476D02*
X57204819Y-64440476D01*
X58204819Y-63440476D02*
X58204819Y-64011904D01*
X58204819Y-63726190D02*
X57204819Y-63726190D01*
X57204819Y-63726190D02*
X57347676Y-63821428D01*
X57347676Y-63821428D02*
X57442914Y-63916666D01*
X57442914Y-63916666D02*
X57490533Y-64011904D01*
X40212628Y-62349999D02*
X40241200Y-62378571D01*
X40241200Y-62378571D02*
X40269771Y-62464285D01*
X40269771Y-62464285D02*
X40269771Y-62521428D01*
X40269771Y-62521428D02*
X40241200Y-62607142D01*
X40241200Y-62607142D02*
X40184057Y-62664285D01*
X40184057Y-62664285D02*
X40126914Y-62692856D01*
X40126914Y-62692856D02*
X40012628Y-62721428D01*
X40012628Y-62721428D02*
X39926914Y-62721428D01*
X39926914Y-62721428D02*
X39812628Y-62692856D01*
X39812628Y-62692856D02*
X39755485Y-62664285D01*
X39755485Y-62664285D02*
X39698342Y-62607142D01*
X39698342Y-62607142D02*
X39669771Y-62521428D01*
X39669771Y-62521428D02*
X39669771Y-62464285D01*
X39669771Y-62464285D02*
X39698342Y-62378571D01*
X39698342Y-62378571D02*
X39726914Y-62349999D01*
X39726914Y-62121428D02*
X39698342Y-62092856D01*
X39698342Y-62092856D02*
X39669771Y-62035714D01*
X39669771Y-62035714D02*
X39669771Y-61892856D01*
X39669771Y-61892856D02*
X39698342Y-61835714D01*
X39698342Y-61835714D02*
X39726914Y-61807142D01*
X39726914Y-61807142D02*
X39784057Y-61778571D01*
X39784057Y-61778571D02*
X39841200Y-61778571D01*
X39841200Y-61778571D02*
X39926914Y-61807142D01*
X39926914Y-61807142D02*
X40269771Y-62149999D01*
X40269771Y-62149999D02*
X40269771Y-61778571D01*
X51000000Y-54455485D02*
X50800000Y-54455485D01*
X50800000Y-54769771D02*
X50800000Y-54169771D01*
X50800000Y-54169771D02*
X51085714Y-54169771D01*
X51514286Y-54455485D02*
X51600000Y-54484057D01*
X51600000Y-54484057D02*
X51628571Y-54512628D01*
X51628571Y-54512628D02*
X51657143Y-54569771D01*
X51657143Y-54569771D02*
X51657143Y-54655485D01*
X51657143Y-54655485D02*
X51628571Y-54712628D01*
X51628571Y-54712628D02*
X51600000Y-54741200D01*
X51600000Y-54741200D02*
X51542857Y-54769771D01*
X51542857Y-54769771D02*
X51314286Y-54769771D01*
X51314286Y-54769771D02*
X51314286Y-54169771D01*
X51314286Y-54169771D02*
X51514286Y-54169771D01*
X51514286Y-54169771D02*
X51571429Y-54198342D01*
X51571429Y-54198342D02*
X51600000Y-54226914D01*
X51600000Y-54226914D02*
X51628571Y-54284057D01*
X51628571Y-54284057D02*
X51628571Y-54341200D01*
X51628571Y-54341200D02*
X51600000Y-54398342D01*
X51600000Y-54398342D02*
X51571429Y-54426914D01*
X51571429Y-54426914D02*
X51514286Y-54455485D01*
X51514286Y-54455485D02*
X51314286Y-54455485D01*
X51885714Y-54226914D02*
X51914286Y-54198342D01*
X51914286Y-54198342D02*
X51971429Y-54169771D01*
X51971429Y-54169771D02*
X52114286Y-54169771D01*
X52114286Y-54169771D02*
X52171429Y-54198342D01*
X52171429Y-54198342D02*
X52200000Y-54226914D01*
X52200000Y-54226914D02*
X52228571Y-54284057D01*
X52228571Y-54284057D02*
X52228571Y-54341200D01*
X52228571Y-54341200D02*
X52200000Y-54426914D01*
X52200000Y-54426914D02*
X51857143Y-54769771D01*
X51857143Y-54769771D02*
X52228571Y-54769771D01*
X69864285Y-60519771D02*
X69664285Y-60234057D01*
X69521428Y-60519771D02*
X69521428Y-59919771D01*
X69521428Y-59919771D02*
X69749999Y-59919771D01*
X69749999Y-59919771D02*
X69807142Y-59948342D01*
X69807142Y-59948342D02*
X69835713Y-59976914D01*
X69835713Y-59976914D02*
X69864285Y-60034057D01*
X69864285Y-60034057D02*
X69864285Y-60119771D01*
X69864285Y-60119771D02*
X69835713Y-60176914D01*
X69835713Y-60176914D02*
X69807142Y-60205485D01*
X69807142Y-60205485D02*
X69749999Y-60234057D01*
X69749999Y-60234057D02*
X69521428Y-60234057D01*
X70435713Y-60519771D02*
X70092856Y-60519771D01*
X70264285Y-60519771D02*
X70264285Y-59919771D01*
X70264285Y-59919771D02*
X70207142Y-60005485D01*
X70207142Y-60005485D02*
X70149999Y-60062628D01*
X70149999Y-60062628D02*
X70092856Y-60091200D01*
X70664285Y-59976914D02*
X70692857Y-59948342D01*
X70692857Y-59948342D02*
X70750000Y-59919771D01*
X70750000Y-59919771D02*
X70892857Y-59919771D01*
X70892857Y-59919771D02*
X70950000Y-59948342D01*
X70950000Y-59948342D02*
X70978571Y-59976914D01*
X70978571Y-59976914D02*
X71007142Y-60034057D01*
X71007142Y-60034057D02*
X71007142Y-60091200D01*
X71007142Y-60091200D02*
X70978571Y-60176914D01*
X70978571Y-60176914D02*
X70635714Y-60519771D01*
X70635714Y-60519771D02*
X71007142Y-60519771D01*
X70712628Y-72135714D02*
X70741200Y-72164286D01*
X70741200Y-72164286D02*
X70769771Y-72250000D01*
X70769771Y-72250000D02*
X70769771Y-72307143D01*
X70769771Y-72307143D02*
X70741200Y-72392857D01*
X70741200Y-72392857D02*
X70684057Y-72450000D01*
X70684057Y-72450000D02*
X70626914Y-72478571D01*
X70626914Y-72478571D02*
X70512628Y-72507143D01*
X70512628Y-72507143D02*
X70426914Y-72507143D01*
X70426914Y-72507143D02*
X70312628Y-72478571D01*
X70312628Y-72478571D02*
X70255485Y-72450000D01*
X70255485Y-72450000D02*
X70198342Y-72392857D01*
X70198342Y-72392857D02*
X70169771Y-72307143D01*
X70169771Y-72307143D02*
X70169771Y-72250000D01*
X70169771Y-72250000D02*
X70198342Y-72164286D01*
X70198342Y-72164286D02*
X70226914Y-72135714D01*
X70769771Y-71564286D02*
X70769771Y-71907143D01*
X70769771Y-71735714D02*
X70169771Y-71735714D01*
X70169771Y-71735714D02*
X70255485Y-71792857D01*
X70255485Y-71792857D02*
X70312628Y-71850000D01*
X70312628Y-71850000D02*
X70341200Y-71907143D01*
X70369771Y-71050000D02*
X70769771Y-71050000D01*
X70141200Y-71192857D02*
X70569771Y-71335714D01*
X70569771Y-71335714D02*
X70569771Y-70964285D01*
X55400000Y-59769771D02*
X55200000Y-59484057D01*
X55057143Y-59769771D02*
X55057143Y-59169771D01*
X55057143Y-59169771D02*
X55285714Y-59169771D01*
X55285714Y-59169771D02*
X55342857Y-59198342D01*
X55342857Y-59198342D02*
X55371428Y-59226914D01*
X55371428Y-59226914D02*
X55400000Y-59284057D01*
X55400000Y-59284057D02*
X55400000Y-59369771D01*
X55400000Y-59369771D02*
X55371428Y-59426914D01*
X55371428Y-59426914D02*
X55342857Y-59455485D01*
X55342857Y-59455485D02*
X55285714Y-59484057D01*
X55285714Y-59484057D02*
X55057143Y-59484057D01*
X55600000Y-59169771D02*
X56000000Y-59169771D01*
X56000000Y-59169771D02*
X55742857Y-59769771D01*
X54400000Y-71712628D02*
X54371428Y-71741200D01*
X54371428Y-71741200D02*
X54285714Y-71769771D01*
X54285714Y-71769771D02*
X54228571Y-71769771D01*
X54228571Y-71769771D02*
X54142857Y-71741200D01*
X54142857Y-71741200D02*
X54085714Y-71684057D01*
X54085714Y-71684057D02*
X54057143Y-71626914D01*
X54057143Y-71626914D02*
X54028571Y-71512628D01*
X54028571Y-71512628D02*
X54028571Y-71426914D01*
X54028571Y-71426914D02*
X54057143Y-71312628D01*
X54057143Y-71312628D02*
X54085714Y-71255485D01*
X54085714Y-71255485D02*
X54142857Y-71198342D01*
X54142857Y-71198342D02*
X54228571Y-71169771D01*
X54228571Y-71169771D02*
X54285714Y-71169771D01*
X54285714Y-71169771D02*
X54371428Y-71198342D01*
X54371428Y-71198342D02*
X54400000Y-71226914D01*
X54942857Y-71169771D02*
X54657143Y-71169771D01*
X54657143Y-71169771D02*
X54628571Y-71455485D01*
X54628571Y-71455485D02*
X54657143Y-71426914D01*
X54657143Y-71426914D02*
X54714286Y-71398342D01*
X54714286Y-71398342D02*
X54857143Y-71398342D01*
X54857143Y-71398342D02*
X54914286Y-71426914D01*
X54914286Y-71426914D02*
X54942857Y-71455485D01*
X54942857Y-71455485D02*
X54971428Y-71512628D01*
X54971428Y-71512628D02*
X54971428Y-71655485D01*
X54971428Y-71655485D02*
X54942857Y-71712628D01*
X54942857Y-71712628D02*
X54914286Y-71741200D01*
X54914286Y-71741200D02*
X54857143Y-71769771D01*
X54857143Y-71769771D02*
X54714286Y-71769771D01*
X54714286Y-71769771D02*
X54657143Y-71741200D01*
X54657143Y-71741200D02*
X54628571Y-71712628D01*
X73769771Y-61385714D02*
X73484057Y-61585714D01*
X73769771Y-61728571D02*
X73169771Y-61728571D01*
X73169771Y-61728571D02*
X73169771Y-61500000D01*
X73169771Y-61500000D02*
X73198342Y-61442857D01*
X73198342Y-61442857D02*
X73226914Y-61414286D01*
X73226914Y-61414286D02*
X73284057Y-61385714D01*
X73284057Y-61385714D02*
X73369771Y-61385714D01*
X73369771Y-61385714D02*
X73426914Y-61414286D01*
X73426914Y-61414286D02*
X73455485Y-61442857D01*
X73455485Y-61442857D02*
X73484057Y-61500000D01*
X73484057Y-61500000D02*
X73484057Y-61728571D01*
X73769771Y-60814286D02*
X73769771Y-61157143D01*
X73769771Y-60985714D02*
X73169771Y-60985714D01*
X73169771Y-60985714D02*
X73255485Y-61042857D01*
X73255485Y-61042857D02*
X73312628Y-61100000D01*
X73312628Y-61100000D02*
X73341200Y-61157143D01*
X73369771Y-60300000D02*
X73769771Y-60300000D01*
X73141200Y-60442857D02*
X73569771Y-60585714D01*
X73569771Y-60585714D02*
X73569771Y-60214285D01*
X44242856Y-68169771D02*
X44585714Y-68169771D01*
X44414285Y-68769771D02*
X44414285Y-68169771D01*
X45128571Y-68769771D02*
X44928571Y-68484057D01*
X44785714Y-68769771D02*
X44785714Y-68169771D01*
X44785714Y-68169771D02*
X45014285Y-68169771D01*
X45014285Y-68169771D02*
X45071428Y-68198342D01*
X45071428Y-68198342D02*
X45099999Y-68226914D01*
X45099999Y-68226914D02*
X45128571Y-68284057D01*
X45128571Y-68284057D02*
X45128571Y-68369771D01*
X45128571Y-68369771D02*
X45099999Y-68426914D01*
X45099999Y-68426914D02*
X45071428Y-68455485D01*
X45071428Y-68455485D02*
X45014285Y-68484057D01*
X45014285Y-68484057D02*
X44785714Y-68484057D01*
X45699999Y-68769771D02*
X45357142Y-68769771D01*
X45528571Y-68769771D02*
X45528571Y-68169771D01*
X45528571Y-68169771D02*
X45471428Y-68255485D01*
X45471428Y-68255485D02*
X45414285Y-68312628D01*
X45414285Y-68312628D02*
X45357142Y-68341200D01*
D13*
%TO.C,C13*%
X69685000Y-62776248D02*
X69685000Y-63298752D01*
X71155000Y-62776248D02*
X71155000Y-63298752D01*
%TO.C,FB3*%
X63647064Y-54765000D02*
X63192936Y-54765000D01*
X63647064Y-56235000D02*
X63192936Y-56235000D01*
%TO.C,R10*%
X60772936Y-68765000D02*
X61227064Y-68765000D01*
X60772936Y-70235000D02*
X61227064Y-70235000D01*
%TO.C,R4*%
X51765000Y-66727064D02*
X51765000Y-66272936D01*
X53235000Y-66727064D02*
X53235000Y-66272936D01*
%TO.C,R15*%
X71765000Y-68227064D02*
X71765000Y-67772936D01*
X73235000Y-68227064D02*
X73235000Y-67772936D01*
%TO.C,R1*%
X43727064Y-58735000D02*
X43272936Y-58735000D01*
X43727064Y-57265000D02*
X43272936Y-57265000D01*
D14*
%TO.C,P1*%
X31460260Y-61040260D02*
X37459740Y-61040260D01*
X31460260Y-67039740D02*
X31460260Y-61040260D01*
X37459740Y-61040260D02*
X37459740Y-67039740D01*
X37459740Y-67039740D02*
X31460260Y-67039740D01*
D15*
X34960380Y-64040000D02*
G75*
G02*
X33959620Y-64040000I-500380J0D01*
G01*
X33959620Y-64040000D02*
G75*
G02*
X34960380Y-64040000I500380J0D01*
G01*
X35961140Y-64040000D02*
G75*
G02*
X32958860Y-64040000I-1501140J0D01*
G01*
X32958860Y-64040000D02*
G75*
G02*
X35961140Y-64040000I1501140J0D01*
G01*
D14*
X36831904Y-64040000D02*
G75*
G02*
X32088096Y-64040000I-2371904J0D01*
G01*
X32088096Y-64040000D02*
G75*
G02*
X36831904Y-64040000I2371904J0D01*
G01*
X37008957Y-64040000D02*
G75*
G02*
X31911043Y-64040000I-2548957J0D01*
G01*
X31911043Y-64040000D02*
G75*
G02*
X37008957Y-64040000I2548957J0D01*
G01*
D13*
%TO.C,R5*%
X52272936Y-59265000D02*
X52727064Y-59265000D01*
X52272936Y-60735000D02*
X52727064Y-60735000D01*
%TO.C,R11*%
X67692936Y-56765000D02*
X68147064Y-56765000D01*
X67692936Y-58235000D02*
X68147064Y-58235000D01*
%TO.C,R3*%
X49765000Y-64272936D02*
X49765000Y-64727064D01*
X51235000Y-64272936D02*
X51235000Y-64727064D01*
%TO.C,C9*%
X66658748Y-70765000D02*
X67181252Y-70765000D01*
X66658748Y-72235000D02*
X67181252Y-72235000D01*
%TO.C,R2*%
X47272936Y-57265000D02*
X47727064Y-57265000D01*
X47272936Y-58735000D02*
X47727064Y-58735000D01*
%TO.C,C4*%
X47201248Y-55265000D02*
X47723752Y-55265000D01*
X47201248Y-56735000D02*
X47723752Y-56735000D01*
%TO.C,C1*%
X77057500Y-55290000D02*
X70117500Y-55290000D01*
X70117500Y-58710000D02*
X77057500Y-58710000D01*
X70117500Y-55290000D02*
X70117500Y-58710000D01*
%TO.C,R13*%
X66692936Y-68765000D02*
X67147064Y-68765000D01*
X66692936Y-70235000D02*
X67147064Y-70235000D01*
%TO.C,R9*%
X63192936Y-58765000D02*
X63647064Y-58765000D01*
X63192936Y-60235000D02*
X63647064Y-60235000D01*
%TO.C,U2*%
X63960000Y-62240000D02*
X64055000Y-62240000D01*
X63960000Y-66360000D02*
X63960000Y-62240000D01*
X64055000Y-66360000D02*
X63960000Y-66360000D01*
X68985000Y-62240000D02*
X69080000Y-62240000D01*
X69080000Y-62240000D02*
X69080000Y-66360000D01*
X69080000Y-66360000D02*
X68985000Y-66360000D01*
X69320000Y-61940000D02*
X68990000Y-61700000D01*
X69320000Y-61460000D01*
X69320000Y-61940000D01*
G36*
X69320000Y-61940000D02*
G01*
X68990000Y-61700000D01*
X69320000Y-61460000D01*
X69320000Y-61940000D01*
G37*
%TO.C,C10*%
X58261252Y-54765000D02*
X57738748Y-54765000D01*
X58261252Y-56235000D02*
X57738748Y-56235000D01*
D14*
%TO.C,P2*%
X85500260Y-61000260D02*
X91499740Y-61000260D01*
X85500260Y-66999740D02*
X85500260Y-61000260D01*
X91499740Y-61000260D02*
X91499740Y-66999740D01*
X91499740Y-66999740D02*
X85500260Y-66999740D01*
X91048957Y-64000000D02*
G75*
G02*
X85951043Y-64000000I-2548957J0D01*
G01*
X85951043Y-64000000D02*
G75*
G02*
X91048957Y-64000000I2548957J0D01*
G01*
X90871904Y-64000000D02*
G75*
G02*
X86128096Y-64000000I-2371904J0D01*
G01*
X86128096Y-64000000D02*
G75*
G02*
X90871904Y-64000000I2371904J0D01*
G01*
D15*
X90001140Y-64000000D02*
G75*
G02*
X86998860Y-64000000I-1501140J0D01*
G01*
X86998860Y-64000000D02*
G75*
G02*
X90001140Y-64000000I1501140J0D01*
G01*
X89000380Y-64000000D02*
G75*
G02*
X87999620Y-64000000I-500380J0D01*
G01*
X87999620Y-64000000D02*
G75*
G02*
X89000380Y-64000000I500380J0D01*
G01*
D13*
%TO.C,R8*%
X56697936Y-68765000D02*
X57152064Y-68765000D01*
X56697936Y-70235000D02*
X57152064Y-70235000D01*
%TO.C,TR2*%
X75079000Y-59936000D02*
X75079000Y-60350000D01*
X75079000Y-67650000D02*
X75079000Y-68064000D01*
X75079000Y-68064000D02*
X80921000Y-68064000D01*
X80921000Y-59936000D02*
X75079000Y-59936000D01*
X80921000Y-59936000D02*
X80921000Y-60350000D01*
X80921000Y-67650000D02*
X80921000Y-68064000D01*
X74634500Y-60370000D02*
X74394500Y-60034000D01*
X74874500Y-60034000D01*
X74634500Y-60370000D01*
G36*
X74634500Y-60370000D02*
G01*
X74394500Y-60034000D01*
X74874500Y-60034000D01*
X74634500Y-60370000D01*
G37*
%TO.C,R6*%
X57697936Y-56765000D02*
X58152064Y-56765000D01*
X57697936Y-58235000D02*
X58152064Y-58235000D01*
%TO.C,C6*%
X53765000Y-56738748D02*
X53765000Y-57261252D01*
X55235000Y-56738748D02*
X55235000Y-57261252D01*
%TO.C,FB1*%
X43727064Y-55265000D02*
X43272936Y-55265000D01*
X43727064Y-56735000D02*
X43272936Y-56735000D01*
%TO.C,J1*%
X79120000Y-58430000D02*
X79120000Y-59030000D01*
X79920000Y-54010000D02*
X79920000Y-53010000D01*
X80170000Y-53010000D02*
X80170000Y-54010000D01*
X80170000Y-54540000D02*
X79920000Y-54010000D01*
X80720000Y-58430000D02*
X79120000Y-58430000D01*
X80720000Y-59030000D02*
X80720000Y-58430000D01*
X81660000Y-58430000D02*
X81660000Y-59030000D01*
X83260000Y-58430000D02*
X81660000Y-58430000D01*
X83260000Y-59030000D02*
X83260000Y-58430000D01*
X84200000Y-58430000D02*
X84200000Y-59030000D01*
X84750000Y-53010000D02*
X84750000Y-54010000D01*
X84750000Y-54540000D02*
X80170000Y-54540000D01*
X85000000Y-53010000D02*
X85000000Y-54010000D01*
X85000000Y-54010000D02*
X79920000Y-54010000D01*
X85000000Y-54010000D02*
X84750000Y-54540000D01*
X85800000Y-58430000D02*
X84200000Y-58430000D01*
X85800000Y-59030000D02*
X85800000Y-58430000D01*
X86670000Y-58000000D02*
X86670000Y-54000000D01*
X86380000Y-59030000D02*
X78540000Y-59030000D01*
X78540000Y-53010000D01*
X86380000Y-53010000D01*
X86380000Y-59030000D01*
%TO.C,U1*%
X53915000Y-62340000D02*
X54010000Y-62340000D01*
X53915000Y-66460000D02*
X53915000Y-62340000D01*
X54010000Y-66460000D02*
X53915000Y-66460000D01*
X58940000Y-62340000D02*
X59035000Y-62340000D01*
X59035000Y-62340000D02*
X59035000Y-66460000D01*
X59035000Y-66460000D02*
X58940000Y-66460000D01*
X59275000Y-62040000D02*
X58945000Y-61800000D01*
X59275000Y-61560000D01*
X59275000Y-62040000D01*
G36*
X59275000Y-62040000D02*
G01*
X58945000Y-61800000D01*
X59275000Y-61560000D01*
X59275000Y-62040000D01*
G37*
%TO.C,C2*%
X39265000Y-64738748D02*
X39265000Y-65261252D01*
X40735000Y-64738748D02*
X40735000Y-65261252D01*
%TO.C,FB2*%
X51727064Y-55265000D02*
X51272936Y-55265000D01*
X51727064Y-56735000D02*
X51272936Y-56735000D01*
%TO.C,R12*%
X67692936Y-58765000D02*
X68147064Y-58765000D01*
X67692936Y-60235000D02*
X68147064Y-60235000D01*
%TO.C,C14*%
X69685000Y-69261252D02*
X69685000Y-68738748D01*
X71155000Y-69261252D02*
X71155000Y-68738748D01*
%TO.C,R7*%
X57697936Y-58765000D02*
X58152064Y-58765000D01*
X57697936Y-60235000D02*
X58152064Y-60235000D01*
%TO.C,C5*%
X56701248Y-70765000D02*
X57223752Y-70765000D01*
X56701248Y-72235000D02*
X57223752Y-72235000D01*
%TO.C,R14*%
X71685000Y-63227064D02*
X71685000Y-62772936D01*
X73155000Y-63227064D02*
X73155000Y-62772936D01*
%TO.C,TR1*%
X42119000Y-59936000D02*
X42119000Y-60350000D01*
X42119000Y-67650000D02*
X42119000Y-68064000D01*
X42119000Y-68064000D02*
X47961000Y-68064000D01*
X47961000Y-59936000D02*
X42119000Y-59936000D01*
X47961000Y-59936000D02*
X47961000Y-60350000D01*
X47961000Y-67650000D02*
X47961000Y-68064000D01*
X41674500Y-60370000D02*
X41434500Y-60034000D01*
X41914500Y-60034000D01*
X41674500Y-60370000D01*
G36*
X41674500Y-60370000D02*
G01*
X41434500Y-60034000D01*
X41914500Y-60034000D01*
X41674500Y-60370000D01*
G37*
%TD*%
D16*
%TO.C,P1*%
X34460000Y-64040000D03*
D17*
X31920000Y-61500000D03*
X31920000Y-66580000D03*
X37000000Y-61500000D03*
X37000000Y-66580000D03*
%TD*%
D16*
%TO.C,P2*%
X88500000Y-64000000D03*
D17*
X91040000Y-66540000D03*
X91040000Y-61460000D03*
X85960000Y-66540000D03*
X85960000Y-61460000D03*
%TD*%
M02*
