%TF.GenerationSoftware,KiCad,Pcbnew,9.0.7*%
%TF.CreationDate,2026-03-14T09:39:47+01:00*%
%TF.ProjectId,2W_Amp,32575f41-6d70-42e6-9b69-6361645f7063,rev?*%
%TF.SameCoordinates,Original*%
%TF.FileFunction,Soldermask,Bot*%
%TF.FilePolarity,Negative*%
%FSLAX46Y46*%
G04 Gerber Fmt 4.6, Leading zero omitted, Abs format (unit mm)*
G04 Created by KiCad (PCBNEW 9.0.7) date 2026-03-14 09:39:47*
%MOMM*%
%LPD*%
G01*
G04 APERTURE LIST*
G04 Aperture macros list*
%AMRoundRect*
0 Rectangle with rounded corners*
0 $1 Rounding radius*
0 $2 $3 $4 $5 $6 $7 $8 $9 X,Y pos of 4 corners*
0 Add a 4 corners polygon primitive as box body*
4,1,4,$2,$3,$4,$5,$6,$7,$8,$9,$2,$3,0*
0 Add four circle primitives for the rounded corners*
1,1,$1+$1,$2,$3*
1,1,$1+$1,$4,$5*
1,1,$1+$1,$6,$7*
1,1,$1+$1,$8,$9*
0 Add four rect primitives between the rounded corners*
20,1,$1+$1,$2,$3,$4,$5,0*
20,1,$1+$1,$4,$5,$6,$7,0*
20,1,$1+$1,$6,$7,$8,$9,0*
20,1,$1+$1,$8,$9,$2,$3,0*%
G04 Aperture macros list end*
%ADD10C,3.600000*%
%ADD11C,5.600000*%
%ADD12RoundRect,0.250001X0.872499X0.944999X-0.872499X0.944999X-0.872499X-0.944999X0.872499X-0.944999X0*%
%ADD13RoundRect,0.250000X0.337500X0.475000X-0.337500X0.475000X-0.337500X-0.475000X0.337500X-0.475000X0*%
%ADD14C,1.998980*%
%ADD15C,2.499360*%
%ADD16RoundRect,0.250001X-0.872499X-0.944999X0.872499X-0.944999X0.872499X0.944999X-0.872499X0.944999X0*%
%ADD17RoundRect,0.250000X0.475000X-0.337500X0.475000X0.337500X-0.475000X0.337500X-0.475000X-0.337500X0*%
%ADD18RoundRect,0.250000X0.620000X0.845000X-0.620000X0.845000X-0.620000X-0.845000X0.620000X-0.845000X0*%
%ADD19O,1.740000X2.190000*%
G04 APERTURE END LIST*
D10*
%TO.C,H1*%
X34250000Y-54250000D03*
D11*
X34250000Y-54250000D03*
%TD*%
D12*
%TO.C,C8*%
X58057500Y-67000000D03*
X52942500Y-67000000D03*
%TD*%
D13*
%TO.C,C11*%
X68337500Y-66500000D03*
X66262500Y-66500000D03*
%TD*%
D14*
%TO.C,P1*%
X34460000Y-64040000D03*
D15*
X31920000Y-61500000D03*
X31920000Y-66580000D03*
X37000000Y-61500000D03*
X37000000Y-66580000D03*
%TD*%
D16*
%TO.C,C12*%
X67024778Y-63500000D03*
X72139778Y-63500000D03*
%TD*%
D17*
%TO.C,C7*%
X60600000Y-64762500D03*
X60600000Y-66837500D03*
%TD*%
D10*
%TO.C,H3*%
X89000000Y-54000000D03*
D11*
X89000000Y-54000000D03*
%TD*%
D14*
%TO.C,P2*%
X88500000Y-64000000D03*
D15*
X91040000Y-66540000D03*
X91040000Y-61460000D03*
X85960000Y-66540000D03*
X85960000Y-61460000D03*
%TD*%
D10*
%TO.C,H2*%
X34000000Y-71000000D03*
D11*
X34000000Y-71000000D03*
%TD*%
D18*
%TO.C,J1*%
X85000000Y-56000000D03*
D19*
X82460000Y-56000000D03*
X79920000Y-56000000D03*
%TD*%
D10*
%TO.C,H4*%
X89000000Y-71000000D03*
D11*
X89000000Y-71000000D03*
%TD*%
D17*
%TO.C,C3*%
X80000000Y-57962500D03*
X80000000Y-60037500D03*
%TD*%
G36*
X92193039Y-50019685D02*
G01*
X92238794Y-50072489D01*
X92250000Y-50124000D01*
X92250000Y-51987789D01*
X92247617Y-52011982D01*
X92245617Y-52022036D01*
X92213231Y-52083946D01*
X92152515Y-52118520D01*
X92082746Y-52114779D01*
X92026074Y-52073912D01*
X92000493Y-52008894D01*
X92000100Y-52000100D01*
X92000000Y-52000000D01*
X32000000Y-52000000D01*
X31999103Y-52000896D01*
X31980315Y-52064882D01*
X31927511Y-52110637D01*
X31858353Y-52120581D01*
X31794797Y-52091556D01*
X31757023Y-52032778D01*
X31754383Y-52022036D01*
X31752383Y-52011982D01*
X31750000Y-51987789D01*
X31750000Y-50124000D01*
X31769685Y-50056961D01*
X31822489Y-50011206D01*
X31874000Y-50000000D01*
X92126000Y-50000000D01*
X92193039Y-50019685D01*
G37*
G36*
X32193039Y-50019685D02*
G01*
X32238794Y-50072489D01*
X32250000Y-50124000D01*
X32250000Y-51876000D01*
X32230315Y-51943039D01*
X32177511Y-51988794D01*
X32126000Y-52000000D01*
X32000000Y-52000000D01*
X32000000Y-73000000D01*
X92000000Y-73000000D01*
X92000000Y-52000000D01*
X91874000Y-52000000D01*
X91806961Y-51980315D01*
X91761206Y-51927511D01*
X91750000Y-51876000D01*
X91750000Y-50124000D01*
X91769685Y-50056961D01*
X91822489Y-50011206D01*
X91874000Y-50000000D01*
X93376000Y-50000000D01*
X93443039Y-50019685D01*
X93488794Y-50072489D01*
X93500000Y-50124000D01*
X93500000Y-74876000D01*
X93480315Y-74943039D01*
X93427511Y-74988794D01*
X93376000Y-75000000D01*
X29124000Y-75000000D01*
X29056961Y-74980315D01*
X29011206Y-74927511D01*
X29000000Y-74876000D01*
X29000000Y-50124000D01*
X29019685Y-50056961D01*
X29072489Y-50011206D01*
X29124000Y-50000000D01*
X32126000Y-50000000D01*
X32193039Y-50019685D01*
G37*
M02*
