%TF.GenerationSoftware,KiCad,Pcbnew,9.0.7*%
%TF.CreationDate,2026-03-13T19:24:57+01:00*%
%TF.ProjectId,2W_Amp,32575f41-6d70-42e6-9b69-6361645f7063,rev?*%
%TF.SameCoordinates,Original*%
%TF.FileFunction,Paste,Top*%
%TF.FilePolarity,Positive*%
%FSLAX46Y46*%
G04 Gerber Fmt 4.6, Leading zero omitted, Abs format (unit mm)*
G04 Created by KiCad (PCBNEW 9.0.7) date 2026-03-13 19:24:57*
%MOMM*%
%LPD*%
G01*
G04 APERTURE LIST*
G04 Aperture macros list*
%AMRoundRect*
0 Rectangle with rounded corners*
0 $1 Rounding radius*
0 $2 $3 $4 $5 $6 $7 $8 $9 X,Y pos of 4 corners*
0 Add a 4 corners polygon primitive as box body*
4,1,4,$2,$3,$4,$5,$6,$7,$8,$9,$2,$3,0*
0 Add four circle primitives for the rounded corners*
1,1,$1+$1,$2,$3*
1,1,$1+$1,$4,$5*
1,1,$1+$1,$6,$7*
1,1,$1+$1,$8,$9*
0 Add four rect primitives between the rounded corners*
20,1,$1+$1,$2,$3,$4,$5,0*
20,1,$1+$1,$4,$5,$6,$7,0*
20,1,$1+$1,$6,$7,$8,$9,0*
20,1,$1+$1,$8,$9,$2,$3,0*%
G04 Aperture macros list end*
%ADD10RoundRect,0.250000X-0.475000X0.337500X-0.475000X-0.337500X0.475000X-0.337500X0.475000X0.337500X0*%
%ADD11RoundRect,0.250000X0.350000X0.450000X-0.350000X0.450000X-0.350000X-0.450000X0.350000X-0.450000X0*%
%ADD12RoundRect,0.250000X-0.350000X-0.450000X0.350000X-0.450000X0.350000X0.450000X-0.350000X0.450000X0*%
%ADD13RoundRect,0.250000X0.450000X-0.350000X0.450000X0.350000X-0.450000X0.350000X-0.450000X-0.350000X0*%
%ADD14RoundRect,0.250001X0.944999X-0.872499X0.944999X0.872499X-0.944999X0.872499X-0.944999X-0.872499X0*%
%ADD15RoundRect,0.250000X0.337500X0.475000X-0.337500X0.475000X-0.337500X-0.475000X0.337500X-0.475000X0*%
%ADD16RoundRect,0.250000X-0.450000X0.350000X-0.450000X-0.350000X0.450000X-0.350000X0.450000X0.350000X0*%
%ADD17RoundRect,0.250000X-0.337500X-0.475000X0.337500X-0.475000X0.337500X0.475000X-0.337500X0.475000X0*%
%ADD18RoundRect,0.250001X-0.872499X-0.944999X0.872499X-0.944999X0.872499X0.944999X-0.872499X0.944999X0*%
%ADD19RoundRect,0.250001X0.872499X0.944999X-0.872499X0.944999X-0.872499X-0.944999X0.872499X-0.944999X0*%
%ADD20RoundRect,0.150000X-0.150000X0.825000X-0.150000X-0.825000X0.150000X-0.825000X0.150000X0.825000X0*%
%ADD21R,2.540000X1.650000*%
%ADD22RoundRect,0.250000X0.475000X-0.337500X0.475000X0.337500X-0.475000X0.337500X-0.475000X-0.337500X0*%
G04 APERTURE END LIST*
D10*
%TO.C,C13*%
X70420000Y-62000000D03*
X70420000Y-64075000D03*
%TD*%
D11*
%TO.C,FB3*%
X64420000Y-55500000D03*
X62420000Y-55500000D03*
%TD*%
D12*
%TO.C,R10*%
X60000000Y-69500000D03*
X62000000Y-69500000D03*
%TD*%
D13*
%TO.C,R4*%
X52500000Y-67500000D03*
X52500000Y-65500000D03*
%TD*%
D14*
%TO.C,C8*%
X61500000Y-67057500D03*
X61500000Y-61942500D03*
%TD*%
D15*
%TO.C,C11*%
X64420000Y-57500000D03*
X62345000Y-57500000D03*
%TD*%
D13*
%TO.C,R15*%
X72500000Y-69000000D03*
X72500000Y-67000000D03*
%TD*%
%TO.C,R1*%
X44500000Y-58000000D03*
X44500000Y-56000000D03*
%TD*%
D12*
%TO.C,R5*%
X51500000Y-60000000D03*
X53500000Y-60000000D03*
%TD*%
%TO.C,R11*%
X66920000Y-57500000D03*
X68920000Y-57500000D03*
%TD*%
D16*
%TO.C,R3*%
X50500000Y-63500000D03*
X50500000Y-65500000D03*
%TD*%
D17*
%TO.C,C9*%
X65882500Y-71500000D03*
X67957500Y-71500000D03*
%TD*%
D18*
%TO.C,C12*%
X71442500Y-58000000D03*
X76557500Y-58000000D03*
%TD*%
D12*
%TO.C,R2*%
X46500000Y-58000000D03*
X48500000Y-58000000D03*
%TD*%
D17*
%TO.C,C4*%
X46425000Y-56000000D03*
X48500000Y-56000000D03*
%TD*%
D19*
%TO.C,C1*%
X37057500Y-56000000D03*
X31942500Y-56000000D03*
%TD*%
D12*
%TO.C,R13*%
X65920000Y-69500000D03*
X67920000Y-69500000D03*
%TD*%
D15*
%TO.C,C7*%
X52537500Y-58000000D03*
X50462500Y-58000000D03*
%TD*%
D12*
%TO.C,R9*%
X62420000Y-59500000D03*
X64420000Y-59500000D03*
%TD*%
D20*
%TO.C,U2*%
X68425000Y-61825000D03*
X67155000Y-61825000D03*
X65885000Y-61825000D03*
X64615000Y-61825000D03*
X64615000Y-66775000D03*
X65885000Y-66775000D03*
X67155000Y-66775000D03*
X68425000Y-66775000D03*
%TD*%
D15*
%TO.C,C10*%
X59037500Y-55500000D03*
X56962500Y-55500000D03*
%TD*%
D12*
%TO.C,R8*%
X55925000Y-69500000D03*
X57925000Y-69500000D03*
%TD*%
D21*
%TO.C,TR2*%
X75460000Y-61460000D03*
X75460000Y-66540000D03*
X80540000Y-66540000D03*
X80540000Y-64000000D03*
X80540000Y-61460000D03*
%TD*%
D12*
%TO.C,R6*%
X56925000Y-57500000D03*
X58925000Y-57500000D03*
%TD*%
D10*
%TO.C,C6*%
X54500000Y-55962500D03*
X54500000Y-58037500D03*
%TD*%
D16*
%TO.C,FB1*%
X42500000Y-55000000D03*
X42500000Y-57000000D03*
%TD*%
D20*
%TO.C,U1*%
X58380000Y-61925000D03*
X57110000Y-61925000D03*
X55840000Y-61925000D03*
X54570000Y-61925000D03*
X54570000Y-66875000D03*
X55840000Y-66875000D03*
X57110000Y-66875000D03*
X58380000Y-66875000D03*
%TD*%
D10*
%TO.C,C2*%
X40000000Y-63962500D03*
X40000000Y-66037500D03*
%TD*%
D22*
%TO.C,C3*%
X40500000Y-57037500D03*
X40500000Y-54962500D03*
%TD*%
D11*
%TO.C,FB2*%
X52500000Y-56000000D03*
X50500000Y-56000000D03*
%TD*%
D12*
%TO.C,R12*%
X66920000Y-59500000D03*
X68920000Y-59500000D03*
%TD*%
D22*
%TO.C,C14*%
X70420000Y-70037500D03*
X70420000Y-67962500D03*
%TD*%
D12*
%TO.C,R7*%
X56925000Y-59500000D03*
X58925000Y-59500000D03*
%TD*%
D17*
%TO.C,C5*%
X55925000Y-71500000D03*
X58000000Y-71500000D03*
%TD*%
D13*
%TO.C,R14*%
X72420000Y-64000000D03*
X72420000Y-62000000D03*
%TD*%
D21*
%TO.C,TR1*%
X42500000Y-61460000D03*
X42500000Y-66540000D03*
X47580000Y-66540000D03*
X47580000Y-64000000D03*
X47580000Y-61460000D03*
%TD*%
M02*
