%TF.GenerationSoftware,KiCad,Pcbnew,9.0.7*%
%TF.CreationDate,2026-03-14T09:39:47+01:00*%
%TF.ProjectId,2W_Amp,32575f41-6d70-42e6-9b69-6361645f7063,rev?*%
%TF.SameCoordinates,Original*%
%TF.FileFunction,Copper,L2,Bot*%
%TF.FilePolarity,Positive*%
%FSLAX46Y46*%
G04 Gerber Fmt 4.6, Leading zero omitted, Abs format (unit mm)*
G04 Created by KiCad (PCBNEW 9.0.7) date 2026-03-14 09:39:47*
%MOMM*%
%LPD*%
G01*
G04 APERTURE LIST*
G04 Aperture macros list*
%AMRoundRect*
0 Rectangle with rounded corners*
0 $1 Rounding radius*
0 $2 $3 $4 $5 $6 $7 $8 $9 X,Y pos of 4 corners*
0 Add a 4 corners polygon primitive as box body*
4,1,4,$2,$3,$4,$5,$6,$7,$8,$9,$2,$3,0*
0 Add four circle primitives for the rounded corners*
1,1,$1+$1,$2,$3*
1,1,$1+$1,$4,$5*
1,1,$1+$1,$6,$7*
1,1,$1+$1,$8,$9*
0 Add four rect primitives between the rounded corners*
20,1,$1+$1,$2,$3,$4,$5,0*
20,1,$1+$1,$4,$5,$6,$7,0*
20,1,$1+$1,$6,$7,$8,$9,0*
20,1,$1+$1,$8,$9,$2,$3,0*%
G04 Aperture macros list end*
%TA.AperFunction,ComponentPad*%
%ADD10C,3.600000*%
%TD*%
%TA.AperFunction,ConnectorPad*%
%ADD11C,5.600000*%
%TD*%
%TA.AperFunction,SMDPad,CuDef*%
%ADD12RoundRect,0.250001X0.872499X0.944999X-0.872499X0.944999X-0.872499X-0.944999X0.872499X-0.944999X0*%
%TD*%
%TA.AperFunction,SMDPad,CuDef*%
%ADD13RoundRect,0.250000X0.337500X0.475000X-0.337500X0.475000X-0.337500X-0.475000X0.337500X-0.475000X0*%
%TD*%
%TA.AperFunction,ComponentPad*%
%ADD14C,1.998980*%
%TD*%
%TA.AperFunction,ComponentPad*%
%ADD15C,2.499360*%
%TD*%
%TA.AperFunction,SMDPad,CuDef*%
%ADD16RoundRect,0.250001X-0.872499X-0.944999X0.872499X-0.944999X0.872499X0.944999X-0.872499X0.944999X0*%
%TD*%
%TA.AperFunction,SMDPad,CuDef*%
%ADD17RoundRect,0.250000X0.475000X-0.337500X0.475000X0.337500X-0.475000X0.337500X-0.475000X-0.337500X0*%
%TD*%
%TA.AperFunction,ComponentPad*%
%ADD18RoundRect,0.250000X0.620000X0.845000X-0.620000X0.845000X-0.620000X-0.845000X0.620000X-0.845000X0*%
%TD*%
%TA.AperFunction,ComponentPad*%
%ADD19O,1.740000X2.190000*%
%TD*%
%TA.AperFunction,ViaPad*%
%ADD20C,0.600000*%
%TD*%
%TA.AperFunction,Conductor*%
%ADD21C,1.000000*%
%TD*%
G04 APERTURE END LIST*
D10*
%TO.P,H1,1,1*%
%TO.N,GND*%
X34250000Y-54250000D03*
D11*
X34250000Y-54250000D03*
%TD*%
D12*
%TO.P,C8,1*%
%TO.N,Net-(U1A-V+)*%
X58057500Y-67000000D03*
%TO.P,C8,2*%
%TO.N,GND*%
X52942500Y-67000000D03*
%TD*%
D13*
%TO.P,C11,1*%
%TO.N,Net-(U2A-V+)*%
X68337500Y-66500000D03*
%TO.P,C11,2*%
%TO.N,GND*%
X66262500Y-66500000D03*
%TD*%
D14*
%TO.P,P1,1,In*%
%TO.N,Net-(P1-In)*%
X34460000Y-64040000D03*
D15*
%TO.P,P1,2,Ext*%
%TO.N,GND*%
X31920000Y-61500000D03*
X31920000Y-66580000D03*
X37000000Y-61500000D03*
X37000000Y-66580000D03*
%TD*%
D16*
%TO.P,C12,1*%
%TO.N,Net-(U2A-V+)*%
X67024778Y-63500000D03*
%TO.P,C12,2*%
%TO.N,GND*%
X72139778Y-63500000D03*
%TD*%
D17*
%TO.P,C7,2*%
%TO.N,GND*%
X60600000Y-64762500D03*
%TO.P,C7,1*%
%TO.N,Net-(U1A-V+)*%
X60600000Y-66837500D03*
%TD*%
D10*
%TO.P,H3,1,1*%
%TO.N,GND*%
X89000000Y-54000000D03*
D11*
X89000000Y-54000000D03*
%TD*%
D14*
%TO.P,P2,1,In*%
%TO.N,Net-(P2-In)*%
X88500000Y-64000000D03*
D15*
%TO.P,P2,2,Ext*%
%TO.N,GND*%
X91040000Y-66540000D03*
X91040000Y-61460000D03*
X85960000Y-66540000D03*
X85960000Y-61460000D03*
%TD*%
D10*
%TO.P,H2,1,1*%
%TO.N,GND*%
X34000000Y-71000000D03*
D11*
X34000000Y-71000000D03*
%TD*%
D18*
%TO.P,J1,1,Pin_1*%
%TO.N,GND*%
X85000000Y-56000000D03*
D19*
%TO.P,J1,2,Pin_2*%
%TO.N,+12V*%
X82460000Y-56000000D03*
%TO.P,J1,3,Pin_3*%
X79920000Y-56000000D03*
%TD*%
D10*
%TO.P,H4,1,1*%
%TO.N,GND*%
X89000000Y-71000000D03*
D11*
X89000000Y-71000000D03*
%TD*%
D17*
%TO.P,C3,2*%
%TO.N,+12V*%
X80000000Y-57962500D03*
%TO.P,C3,1*%
%TO.N,GND*%
X80000000Y-60037500D03*
%TD*%
D20*
%TO.N,GND*%
X50600000Y-57500000D03*
X43680000Y-69600000D03*
X91960000Y-51000000D03*
X55500000Y-59000000D03*
X91960000Y-61160000D03*
X52000000Y-62000000D03*
X49500000Y-58500000D03*
X61480000Y-51000000D03*
X31000000Y-63700000D03*
X74180000Y-51000000D03*
X33540000Y-74000000D03*
X37920000Y-58500000D03*
X76708000Y-72390000D03*
X31000000Y-51000000D03*
X45000000Y-67500000D03*
X51308000Y-71120000D03*
X53860000Y-74000000D03*
X91960000Y-56080000D03*
X48780000Y-74000000D03*
X56000000Y-56000000D03*
X66560000Y-74000000D03*
X65000000Y-65000000D03*
X76720000Y-74000000D03*
X84328000Y-70866000D03*
X40460000Y-58500000D03*
X46228000Y-72644000D03*
X69100000Y-74000000D03*
X51320000Y-51000000D03*
X48780000Y-51000000D03*
X31000000Y-71320000D03*
X59500000Y-62000000D03*
X84328000Y-72390000D03*
X48768000Y-71120000D03*
X53848000Y-69596000D03*
X53500000Y-63000000D03*
X41160000Y-51000000D03*
X81788000Y-72390000D03*
X74168000Y-69342000D03*
X91960000Y-58620000D03*
X46220000Y-69600000D03*
X86880000Y-74000000D03*
X61480000Y-74000000D03*
X56000000Y-55000000D03*
X49500000Y-57500000D03*
X69100000Y-51000000D03*
X38620000Y-74000000D03*
X38608000Y-72644000D03*
X43688000Y-71120000D03*
X50600000Y-58500000D03*
X41148000Y-71120000D03*
X91960000Y-63700000D03*
X56400000Y-51000000D03*
X76708000Y-70866000D03*
X63800000Y-62000000D03*
X41148000Y-72644000D03*
X58940000Y-51000000D03*
X71640000Y-74000000D03*
X51308000Y-69596000D03*
X71640000Y-51000000D03*
X81788000Y-70866000D03*
X56400000Y-74000000D03*
X31000000Y-58620000D03*
X87460000Y-59000000D03*
X48760000Y-69600000D03*
X61000000Y-64000000D03*
X55000000Y-64000000D03*
X66560000Y-51000000D03*
X65000000Y-64000000D03*
X36080000Y-74000000D03*
X78000000Y-66500000D03*
X36080000Y-51000000D03*
X45000000Y-66500000D03*
X91960000Y-53540000D03*
X38600000Y-69600000D03*
X64020000Y-74000000D03*
X84920000Y-59000000D03*
X31000000Y-73860000D03*
X63800000Y-63000000D03*
X48500000Y-59000000D03*
X63800000Y-65000000D03*
X65000000Y-63000000D03*
X74168000Y-72390000D03*
X78000000Y-61500000D03*
X41160000Y-74000000D03*
X43700000Y-51000000D03*
X46240000Y-51000000D03*
X74180000Y-74000000D03*
X76720000Y-51000000D03*
X49500000Y-59500000D03*
X63800000Y-64000000D03*
X79260000Y-51000000D03*
X82380000Y-59000000D03*
X38620000Y-51000000D03*
X43700000Y-74000000D03*
X91960000Y-71320000D03*
X45000000Y-65500000D03*
X74168000Y-70866000D03*
X78000000Y-65500000D03*
X58940000Y-74000000D03*
X31000000Y-74000000D03*
X84340000Y-74000000D03*
X31000000Y-56080000D03*
X38608000Y-71120000D03*
X31000000Y-68780000D03*
X52000000Y-64000000D03*
X48500000Y-57000000D03*
X90000000Y-59000000D03*
X51308000Y-72644000D03*
X78000000Y-63500000D03*
X79260000Y-74000000D03*
X78000000Y-67500000D03*
X81800000Y-74000000D03*
X60000000Y-63000000D03*
X84340000Y-51000000D03*
X91960000Y-66240000D03*
X55500000Y-58000000D03*
X45000000Y-64500000D03*
X81800000Y-51000000D03*
X53860000Y-51000000D03*
X31000000Y-53540000D03*
X91960000Y-74000000D03*
X78000000Y-62500000D03*
X91960000Y-68780000D03*
X53848000Y-72644000D03*
X43688000Y-72644000D03*
X55000000Y-65000000D03*
X33540000Y-51000000D03*
X51320000Y-74000000D03*
X48768000Y-72644000D03*
X41140000Y-69600000D03*
X60000000Y-64000000D03*
X89420000Y-51000000D03*
X46240000Y-74000000D03*
X79248000Y-70866000D03*
X53848000Y-71120000D03*
X52000000Y-63000000D03*
X79248000Y-72390000D03*
X32840000Y-58500000D03*
X53500000Y-64000000D03*
X89420000Y-74000000D03*
X78000000Y-64500000D03*
X86880000Y-51000000D03*
X55500000Y-57000000D03*
X78000000Y-60500000D03*
X46228000Y-71120000D03*
X64020000Y-51000000D03*
X35380000Y-58500000D03*
%TO.N,Net-(C5-Pad2)*%
X59000000Y-57000000D03*
X59000000Y-57500000D03*
X58000000Y-72000000D03*
X58000000Y-71000000D03*
X58000000Y-71500000D03*
X59000000Y-58000000D03*
%TO.N,Net-(U1A-V+)*%
X52537500Y-56500000D03*
X52500000Y-55500000D03*
X60500000Y-66875000D03*
X52537500Y-57500000D03*
X59700000Y-66875000D03*
X61300000Y-66900000D03*
X52500000Y-58500000D03*
%TO.N,Net-(C9-Pad2)*%
X67600000Y-71000000D03*
X69000000Y-56800000D03*
X69000000Y-58200000D03*
X68600000Y-71000000D03*
X68600000Y-72100000D03*
X67700000Y-72100000D03*
X69000000Y-57500000D03*
%TO.N,Net-(U2A-V+)*%
X64420000Y-55500000D03*
X64420000Y-56500000D03*
X64420000Y-57500000D03*
X68425000Y-66000000D03*
X68425000Y-67000000D03*
%TD*%
D21*
%TO.N,Net-(U1A-V+)*%
X58182500Y-66875000D02*
X58057500Y-67000000D01*
X59700000Y-66875000D02*
X58182500Y-66875000D01*
%TO.N,Net-(U2A-V+)*%
X68400000Y-64875222D02*
X67024778Y-63500000D01*
X68400000Y-65500000D02*
X68400000Y-64875222D01*
X68400000Y-65500000D02*
X68400000Y-66275000D01*
%TO.N,+12V*%
X80000000Y-56080000D02*
X79920000Y-56000000D01*
X80000000Y-57962500D02*
X80000000Y-56080000D01*
%TO.N,Net-(C5-Pad2)*%
X62500000Y-69500000D02*
X60000000Y-72000000D01*
X60000000Y-72000000D02*
X58000000Y-72000000D01*
X59000000Y-58000000D02*
X59000000Y-57500000D01*
X59000000Y-58000000D02*
X59000000Y-59500000D01*
X59000000Y-57500000D02*
X59000000Y-57000000D01*
X62500000Y-63000000D02*
X62500000Y-69500000D01*
X59000000Y-59500000D02*
X62500000Y-63000000D01*
X58000000Y-72000000D02*
X58000000Y-71500000D01*
X58000000Y-71500000D02*
X58000000Y-71000000D01*
%TO.N,Net-(U1A-V+)*%
X56914628Y-63999000D02*
X59700000Y-66784372D01*
X52500000Y-56462500D02*
X52537500Y-56500000D01*
X60500000Y-66875000D02*
X59700000Y-66875000D01*
X52537500Y-59712500D02*
X56824000Y-63999000D01*
X52537500Y-57000000D02*
X52537500Y-57500000D01*
X52537500Y-58000000D02*
X52537500Y-55362500D01*
X52537500Y-56500000D02*
X52537500Y-57000000D01*
X60525000Y-66900000D02*
X60500000Y-66875000D01*
X52537500Y-58000000D02*
X52537500Y-59712500D01*
X56824000Y-63999000D02*
X56914628Y-63999000D01*
X52537500Y-57500000D02*
X52537500Y-58000000D01*
X61300000Y-66900000D02*
X60525000Y-66900000D01*
X52500000Y-56000000D02*
X52500000Y-56462500D01*
X59700000Y-66784372D02*
X59700000Y-66875000D01*
%TO.N,Net-(C9-Pad2)*%
X69100000Y-71100000D02*
X70000000Y-70200000D01*
X70000000Y-70200000D02*
X70000000Y-58700000D01*
X70000000Y-58700000D02*
X69500000Y-58200000D01*
X67600000Y-72000000D02*
X67700000Y-72100000D01*
X69100000Y-71600000D02*
X69100000Y-71100000D01*
X68600000Y-71200000D02*
X67700000Y-72100000D01*
X68600000Y-72100000D02*
X69100000Y-71600000D01*
X68600000Y-71000000D02*
X68600000Y-71200000D01*
X67600000Y-71000000D02*
X67600000Y-72000000D01*
X69100000Y-71100000D02*
X69000000Y-71000000D01*
X69500000Y-58200000D02*
X69000000Y-58200000D01*
X69000000Y-57500000D02*
X69000000Y-56800000D01*
X69000000Y-58200000D02*
X69000000Y-57500000D01*
X67700000Y-72100000D02*
X68600000Y-72100000D01*
X68600000Y-71000000D02*
X67600000Y-71000000D01*
X69000000Y-71000000D02*
X68600000Y-71000000D01*
%TO.N,Net-(U2A-V+)*%
X68400000Y-62900000D02*
X68400000Y-65500000D01*
X68400000Y-66275000D02*
X68425000Y-66300000D01*
X64500000Y-57580000D02*
X64500000Y-59000000D01*
X64420000Y-57500000D02*
X64500000Y-57580000D01*
X64500000Y-59000000D02*
X68400000Y-62900000D01*
X64420000Y-56500000D02*
X64420000Y-57500000D01*
X68425000Y-66300000D02*
X68425000Y-66775000D01*
X64420000Y-56500000D02*
X64420000Y-55500000D01*
%TD*%
%TA.AperFunction,Conductor*%
%TO.N,GND*%
G36*
X92942539Y-50520185D02*
G01*
X92988294Y-50572989D01*
X92999500Y-50624500D01*
X92999500Y-74375500D01*
X92979815Y-74442539D01*
X92927011Y-74488294D01*
X92875500Y-74499500D01*
X29624500Y-74499500D01*
X29557461Y-74479815D01*
X29511706Y-74427011D01*
X29500500Y-74375500D01*
X29500500Y-63953504D01*
X33360950Y-63953504D01*
X33360950Y-64126495D01*
X33388013Y-64297362D01*
X33388013Y-64297365D01*
X33441469Y-64461886D01*
X33520008Y-64616026D01*
X33535088Y-64636782D01*
X33621692Y-64755983D01*
X33744017Y-64878308D01*
X33828917Y-64939991D01*
X33883973Y-64979991D01*
X34038113Y-65058530D01*
X34162823Y-65099050D01*
X34202639Y-65111987D01*
X34373503Y-65139050D01*
X34373504Y-65139050D01*
X34546496Y-65139050D01*
X34546497Y-65139050D01*
X34717361Y-65111987D01*
X34717364Y-65111986D01*
X34717365Y-65111986D01*
X34881886Y-65058530D01*
X34881886Y-65058529D01*
X34881889Y-65058529D01*
X35036027Y-64979991D01*
X35175983Y-64878308D01*
X35298308Y-64755983D01*
X35399991Y-64616027D01*
X35478529Y-64461889D01*
X35531987Y-64297361D01*
X35559050Y-64126497D01*
X35559050Y-63953503D01*
X35531987Y-63782639D01*
X35531986Y-63782635D01*
X35531986Y-63782634D01*
X35478530Y-63618113D01*
X35399991Y-63463973D01*
X35298307Y-63324016D01*
X35175983Y-63201692D01*
X35036026Y-63100008D01*
X34881886Y-63021469D01*
X34717363Y-62968013D01*
X34603451Y-62949971D01*
X34546497Y-62940950D01*
X34373503Y-62940950D01*
X34316548Y-62949971D01*
X34202637Y-62968013D01*
X34202634Y-62968013D01*
X34038113Y-63021469D01*
X33883973Y-63100008D01*
X33744016Y-63201692D01*
X33621692Y-63324016D01*
X33520008Y-63463973D01*
X33441469Y-63618113D01*
X33388013Y-63782634D01*
X33388013Y-63782637D01*
X33360950Y-63953504D01*
X29500500Y-63953504D01*
X29500500Y-55901459D01*
X51499500Y-55901459D01*
X51499500Y-56561041D01*
X51502111Y-56574167D01*
X51502111Y-56574168D01*
X51531349Y-56721156D01*
X51534617Y-56737583D01*
X51537000Y-56761778D01*
X51537000Y-57401459D01*
X51537000Y-57901459D01*
X51537000Y-59811041D01*
X51537000Y-59811043D01*
X51536999Y-59811043D01*
X51575447Y-60004329D01*
X51575450Y-60004339D01*
X51650864Y-60186407D01*
X51650871Y-60186420D01*
X51760359Y-60350280D01*
X51760360Y-60350281D01*
X51760361Y-60350282D01*
X51899718Y-60489639D01*
X51899719Y-60489639D01*
X51906786Y-60496706D01*
X51906785Y-60496706D01*
X51906788Y-60496708D01*
X56046860Y-64636781D01*
X56046861Y-64636782D01*
X56126062Y-64715983D01*
X56186219Y-64776140D01*
X56339123Y-64878307D01*
X56350086Y-64885632D01*
X56350092Y-64885634D01*
X56350093Y-64885635D01*
X56389187Y-64901828D01*
X56429416Y-64928708D01*
X56758008Y-65257300D01*
X56791493Y-65318623D01*
X56786509Y-65388315D01*
X56744637Y-65444248D01*
X56735428Y-65450517D01*
X56716347Y-65462286D01*
X56592289Y-65586344D01*
X56592286Y-65586348D01*
X56500187Y-65735662D01*
X56500186Y-65735664D01*
X56445001Y-65902203D01*
X56445000Y-65902204D01*
X56434500Y-66004984D01*
X56434500Y-67995015D01*
X56445000Y-68097795D01*
X56445001Y-68097796D01*
X56500186Y-68264335D01*
X56500187Y-68264337D01*
X56592286Y-68413651D01*
X56592289Y-68413655D01*
X56716344Y-68537710D01*
X56716348Y-68537713D01*
X56865662Y-68629812D01*
X56865664Y-68629813D01*
X56865666Y-68629814D01*
X57032203Y-68684999D01*
X57134992Y-68695500D01*
X57134997Y-68695500D01*
X58980003Y-68695500D01*
X58980008Y-68695500D01*
X59082797Y-68684999D01*
X59249334Y-68629814D01*
X59398655Y-68537711D01*
X59522711Y-68413655D01*
X59614814Y-68264334D01*
X59669999Y-68097797D01*
X59680500Y-67995008D01*
X59680500Y-67994994D01*
X59680592Y-67993196D01*
X59680723Y-67992819D01*
X59680821Y-67991867D01*
X59681048Y-67991890D01*
X59682528Y-67987658D01*
X59681694Y-67981853D01*
X59693933Y-67955051D01*
X59703660Y-67927244D01*
X59708281Y-67923633D01*
X59710719Y-67918297D01*
X59735508Y-67902365D01*
X59758722Y-67884233D01*
X59765840Y-67882873D01*
X59769497Y-67880523D01*
X59804432Y-67875500D01*
X59832993Y-67875500D01*
X59871997Y-67881794D01*
X59972203Y-67914999D01*
X60074991Y-67925500D01*
X61125008Y-67925499D01*
X61125016Y-67925498D01*
X61125019Y-67925498D01*
X61195511Y-67918297D01*
X61227797Y-67914999D01*
X61252558Y-67906793D01*
X61255350Y-67906343D01*
X61256627Y-67905523D01*
X61291562Y-67900500D01*
X61375500Y-67900500D01*
X61442539Y-67920185D01*
X61488294Y-67972989D01*
X61499500Y-68024500D01*
X61499500Y-69034218D01*
X61479815Y-69101257D01*
X61463181Y-69121899D01*
X59621899Y-70963181D01*
X59560576Y-70996666D01*
X59534218Y-70999500D01*
X59121766Y-70999500D01*
X59054727Y-70979815D01*
X59008972Y-70927011D01*
X59000149Y-70899692D01*
X58962052Y-70708170D01*
X58962051Y-70708169D01*
X58962051Y-70708165D01*
X58947864Y-70673914D01*
X58886635Y-70526092D01*
X58886628Y-70526079D01*
X58777139Y-70362218D01*
X58777136Y-70362214D01*
X58637785Y-70222863D01*
X58637781Y-70222860D01*
X58473920Y-70113371D01*
X58473907Y-70113364D01*
X58291839Y-70037950D01*
X58291829Y-70037947D01*
X58098543Y-69999500D01*
X58098541Y-69999500D01*
X57901459Y-69999500D01*
X57901457Y-69999500D01*
X57708170Y-70037947D01*
X57708160Y-70037950D01*
X57526092Y-70113364D01*
X57526079Y-70113371D01*
X57362218Y-70222860D01*
X57362214Y-70222863D01*
X57222863Y-70362214D01*
X57222860Y-70362218D01*
X57113371Y-70526079D01*
X57113364Y-70526092D01*
X57037950Y-70708160D01*
X57037947Y-70708170D01*
X56999500Y-70901456D01*
X56999500Y-70901459D01*
X56999500Y-71401459D01*
X56999500Y-72098541D01*
X56999500Y-72098543D01*
X56999499Y-72098543D01*
X57037947Y-72291829D01*
X57037950Y-72291839D01*
X57113364Y-72473907D01*
X57113371Y-72473920D01*
X57222860Y-72637781D01*
X57222863Y-72637785D01*
X57362214Y-72777136D01*
X57362218Y-72777139D01*
X57526079Y-72886628D01*
X57526092Y-72886635D01*
X57708160Y-72962049D01*
X57708165Y-72962051D01*
X57708169Y-72962051D01*
X57708170Y-72962052D01*
X57901456Y-73000500D01*
X57901459Y-73000500D01*
X60098542Y-73000500D01*
X60129566Y-72994328D01*
X60195188Y-72981275D01*
X60291836Y-72962051D01*
X60345165Y-72939961D01*
X60473914Y-72886632D01*
X60637782Y-72777139D01*
X60777139Y-72637782D01*
X60777140Y-72637779D01*
X60784206Y-72630714D01*
X60784209Y-72630710D01*
X63137778Y-70277141D01*
X63137782Y-70277139D01*
X63277139Y-70137782D01*
X63386632Y-69973914D01*
X63462051Y-69791835D01*
X63475130Y-69726086D01*
X63500500Y-69598540D01*
X63500500Y-69401460D01*
X63500500Y-62901459D01*
X63500500Y-62901456D01*
X63462052Y-62708170D01*
X63462051Y-62708169D01*
X63462051Y-62708165D01*
X63462049Y-62708160D01*
X63386635Y-62526092D01*
X63386628Y-62526079D01*
X63277140Y-62362219D01*
X63277139Y-62362218D01*
X63137782Y-62222861D01*
X63137781Y-62222860D01*
X60036819Y-59121898D01*
X60003334Y-59060575D01*
X60000500Y-59034217D01*
X60000500Y-56901456D01*
X59962052Y-56708170D01*
X59962051Y-56708169D01*
X59962051Y-56708165D01*
X59906548Y-56574167D01*
X59886635Y-56526092D01*
X59886628Y-56526079D01*
X59777139Y-56362218D01*
X59777136Y-56362214D01*
X59637785Y-56222863D01*
X59637781Y-56222860D01*
X59473920Y-56113371D01*
X59473907Y-56113364D01*
X59291839Y-56037950D01*
X59291829Y-56037947D01*
X59098543Y-55999500D01*
X59098541Y-55999500D01*
X58901459Y-55999500D01*
X58901457Y-55999500D01*
X58708170Y-56037947D01*
X58708160Y-56037950D01*
X58526092Y-56113364D01*
X58526079Y-56113371D01*
X58362218Y-56222860D01*
X58362214Y-56222863D01*
X58222863Y-56362214D01*
X58222860Y-56362218D01*
X58113371Y-56526079D01*
X58113364Y-56526092D01*
X58037950Y-56708160D01*
X58037947Y-56708170D01*
X57999500Y-56901456D01*
X57999500Y-56901459D01*
X57999500Y-57401459D01*
X57999500Y-57901459D01*
X57999500Y-59598541D01*
X57999500Y-59598543D01*
X57999499Y-59598543D01*
X58037947Y-59791829D01*
X58037950Y-59791839D01*
X58113364Y-59973907D01*
X58113371Y-59973920D01*
X58222859Y-60137780D01*
X58222860Y-60137781D01*
X58222861Y-60137782D01*
X58362218Y-60277139D01*
X58362219Y-60277139D01*
X58369286Y-60284206D01*
X58369285Y-60284206D01*
X58369289Y-60284209D01*
X61463181Y-63378101D01*
X61496666Y-63439424D01*
X61499500Y-63465782D01*
X61499500Y-65678314D01*
X61479815Y-65745353D01*
X61427011Y-65791108D01*
X61357853Y-65801052D01*
X61336497Y-65796020D01*
X61227799Y-65760001D01*
X61227795Y-65760000D01*
X61125016Y-65749500D01*
X61125009Y-65749500D01*
X60131410Y-65749500D01*
X60064371Y-65729815D01*
X60043729Y-65713181D01*
X57696107Y-63365559D01*
X57696087Y-63365537D01*
X57552413Y-63221863D01*
X57552409Y-63221860D01*
X57388548Y-63112371D01*
X57388538Y-63112366D01*
X57349440Y-63096171D01*
X57309212Y-63069291D01*
X53574319Y-59334398D01*
X53540834Y-59273075D01*
X53538000Y-59246717D01*
X53538000Y-55401456D01*
X63419500Y-55401456D01*
X63419500Y-57598540D01*
X63424472Y-57623533D01*
X63424472Y-57623537D01*
X63457700Y-57790589D01*
X63457701Y-57790589D01*
X63457949Y-57791834D01*
X63457949Y-57791836D01*
X63490061Y-57869360D01*
X63499500Y-57916813D01*
X63499500Y-59098541D01*
X63499500Y-59098543D01*
X63499499Y-59098543D01*
X63537947Y-59291829D01*
X63537950Y-59291839D01*
X63613364Y-59473907D01*
X63613371Y-59473920D01*
X63722860Y-59637781D01*
X63722863Y-59637785D01*
X63866537Y-59781459D01*
X63866559Y-59781479D01*
X65797709Y-61712629D01*
X65831194Y-61773952D01*
X65826210Y-61843644D01*
X65784338Y-61899577D01*
X65775126Y-61905848D01*
X65683623Y-61962288D01*
X65559567Y-62086344D01*
X65559564Y-62086348D01*
X65467465Y-62235662D01*
X65467464Y-62235664D01*
X65412279Y-62402203D01*
X65412278Y-62402204D01*
X65401778Y-62504984D01*
X65401778Y-64495015D01*
X65412278Y-64597795D01*
X65412279Y-64597797D01*
X65439871Y-64681065D01*
X65467464Y-64764335D01*
X65467465Y-64764337D01*
X65559564Y-64913651D01*
X65559567Y-64913655D01*
X65683622Y-65037710D01*
X65683626Y-65037713D01*
X65832940Y-65129812D01*
X65832942Y-65129813D01*
X65832944Y-65129814D01*
X65999481Y-65184999D01*
X66102270Y-65195500D01*
X67253994Y-65195500D01*
X67283428Y-65204143D01*
X67313418Y-65210666D01*
X67318436Y-65214422D01*
X67321033Y-65215185D01*
X67341673Y-65231817D01*
X67363179Y-65253322D01*
X67396666Y-65314644D01*
X67399500Y-65341005D01*
X67399500Y-65533804D01*
X67381039Y-65598900D01*
X67315189Y-65705659D01*
X67315185Y-65705668D01*
X67305245Y-65735666D01*
X67260001Y-65872203D01*
X67260001Y-65872204D01*
X67260000Y-65872204D01*
X67249500Y-65974983D01*
X67249500Y-67025001D01*
X67249501Y-67025019D01*
X67260000Y-67127796D01*
X67260001Y-67127799D01*
X67315185Y-67294331D01*
X67315186Y-67294334D01*
X67407288Y-67443656D01*
X67531344Y-67567712D01*
X67680666Y-67659814D01*
X67847203Y-67714999D01*
X67949991Y-67725500D01*
X68060038Y-67725499D01*
X68107491Y-67734937D01*
X68191503Y-67769737D01*
X68346153Y-67800499D01*
X68346156Y-67800500D01*
X68346158Y-67800500D01*
X68503844Y-67800500D01*
X68503845Y-67800499D01*
X68658497Y-67769737D01*
X68761706Y-67726986D01*
X68787575Y-67719441D01*
X68792044Y-67718651D01*
X68827797Y-67714999D01*
X68845046Y-67709282D01*
X68853918Y-67707715D01*
X68880043Y-67710617D01*
X68906319Y-67709713D01*
X68914221Y-67714415D01*
X68923360Y-67715431D01*
X68943768Y-67731997D01*
X68966363Y-67745442D01*
X68970468Y-67753670D01*
X68977607Y-67759465D01*
X68985819Y-67784435D01*
X68997558Y-67807961D01*
X68999038Y-67824628D01*
X68999436Y-67825837D01*
X68999220Y-67826670D01*
X68999500Y-67829822D01*
X68999500Y-69734218D01*
X68979815Y-69801257D01*
X68963181Y-69821899D01*
X68821899Y-69963181D01*
X68760576Y-69996666D01*
X68734218Y-69999500D01*
X67501457Y-69999500D01*
X67308170Y-70037947D01*
X67308160Y-70037950D01*
X67126092Y-70113364D01*
X67126079Y-70113371D01*
X66962218Y-70222860D01*
X66962214Y-70222863D01*
X66822863Y-70362214D01*
X66822860Y-70362218D01*
X66713371Y-70526079D01*
X66713364Y-70526092D01*
X66637950Y-70708160D01*
X66637947Y-70708170D01*
X66599500Y-70901456D01*
X66599500Y-70901459D01*
X66599500Y-72098541D01*
X66599500Y-72098543D01*
X66599499Y-72098543D01*
X66637947Y-72291829D01*
X66637950Y-72291839D01*
X66713364Y-72473907D01*
X66713371Y-72473920D01*
X66822859Y-72637780D01*
X66822860Y-72637781D01*
X66822861Y-72637782D01*
X66922860Y-72737781D01*
X66922861Y-72737782D01*
X67062218Y-72877139D01*
X67062219Y-72877140D01*
X67156238Y-72939961D01*
X67226086Y-72986632D01*
X67332745Y-73030811D01*
X67408164Y-73062051D01*
X67601454Y-73100499D01*
X67601457Y-73100500D01*
X67601459Y-73100500D01*
X68698542Y-73100500D01*
X68729566Y-73094328D01*
X68795188Y-73081275D01*
X68891836Y-73062051D01*
X68945165Y-73039961D01*
X69073914Y-72986632D01*
X69237782Y-72877139D01*
X69377139Y-72737782D01*
X69377140Y-72737779D01*
X69384206Y-72730714D01*
X69384209Y-72730710D01*
X69737778Y-72377141D01*
X69737782Y-72377139D01*
X69877139Y-72237782D01*
X69986632Y-72073914D01*
X70054421Y-71910256D01*
X70062051Y-71891836D01*
X70086981Y-71766503D01*
X70100500Y-71698541D01*
X70100500Y-71561406D01*
X70100809Y-71557036D01*
X70111527Y-71528225D01*
X70120185Y-71498742D01*
X70124479Y-71493413D01*
X70125172Y-71491551D01*
X70127213Y-71490020D01*
X70136815Y-71478104D01*
X70637778Y-70977141D01*
X70637782Y-70977139D01*
X70777139Y-70837782D01*
X70886632Y-70673914D01*
X70958876Y-70499500D01*
X70962051Y-70491836D01*
X70985391Y-70374499D01*
X71000500Y-70298541D01*
X71000500Y-63913504D01*
X87400950Y-63913504D01*
X87400950Y-64086495D01*
X87428013Y-64257362D01*
X87428013Y-64257365D01*
X87481469Y-64421886D01*
X87560008Y-64576026D01*
X87589070Y-64616027D01*
X87661692Y-64715983D01*
X87784017Y-64838308D01*
X87887719Y-64913651D01*
X87923973Y-64939991D01*
X88078113Y-65018530D01*
X88201219Y-65058529D01*
X88242639Y-65071987D01*
X88413503Y-65099050D01*
X88413504Y-65099050D01*
X88586496Y-65099050D01*
X88586497Y-65099050D01*
X88757361Y-65071987D01*
X88757364Y-65071986D01*
X88757365Y-65071986D01*
X88921886Y-65018530D01*
X88921886Y-65018529D01*
X88921889Y-65018529D01*
X89076027Y-64939991D01*
X89215983Y-64838308D01*
X89338308Y-64715983D01*
X89439991Y-64576027D01*
X89518529Y-64421889D01*
X89558990Y-64297362D01*
X89571986Y-64257365D01*
X89571986Y-64257364D01*
X89571987Y-64257361D01*
X89599050Y-64086497D01*
X89599050Y-63913503D01*
X89571987Y-63742639D01*
X89571986Y-63742635D01*
X89571986Y-63742634D01*
X89518530Y-63578113D01*
X89439991Y-63423973D01*
X89367369Y-63324017D01*
X89338308Y-63284017D01*
X89215983Y-63161692D01*
X89131083Y-63100009D01*
X89076026Y-63060008D01*
X88921886Y-62981469D01*
X88757363Y-62928013D01*
X88643451Y-62909971D01*
X88586497Y-62900950D01*
X88413503Y-62900950D01*
X88356548Y-62909971D01*
X88242637Y-62928013D01*
X88242634Y-62928013D01*
X88078113Y-62981469D01*
X87923973Y-63060008D01*
X87784016Y-63161692D01*
X87661692Y-63284016D01*
X87560008Y-63423973D01*
X87481469Y-63578113D01*
X87428013Y-63742634D01*
X87428013Y-63742637D01*
X87400950Y-63913504D01*
X71000500Y-63913504D01*
X71000500Y-58601459D01*
X71000500Y-58601456D01*
X70980046Y-58498634D01*
X70978694Y-58491835D01*
X70962051Y-58408164D01*
X70917455Y-58300500D01*
X70886632Y-58226086D01*
X70886631Y-58226084D01*
X70886630Y-58226082D01*
X70777139Y-58062218D01*
X70777136Y-58062214D01*
X70634686Y-57919764D01*
X70634655Y-57919735D01*
X70281479Y-57566559D01*
X70281459Y-57566537D01*
X70137785Y-57422863D01*
X70137781Y-57422860D01*
X70055609Y-57367954D01*
X70010804Y-57314342D01*
X70000500Y-57264852D01*
X70000500Y-56701456D01*
X69962052Y-56508170D01*
X69962051Y-56508169D01*
X69962051Y-56508165D01*
X69962049Y-56508160D01*
X69886635Y-56326092D01*
X69886628Y-56326079D01*
X69777139Y-56162218D01*
X69777136Y-56162214D01*
X69637785Y-56022863D01*
X69637781Y-56022860D01*
X69473920Y-55913371D01*
X69473907Y-55913364D01*
X69291839Y-55837950D01*
X69291829Y-55837947D01*
X69098543Y-55799500D01*
X69098541Y-55799500D01*
X68901459Y-55799500D01*
X68901457Y-55799500D01*
X68708170Y-55837947D01*
X68708160Y-55837950D01*
X68526092Y-55913364D01*
X68526079Y-55913371D01*
X68362218Y-56022860D01*
X68362214Y-56022863D01*
X68222863Y-56162214D01*
X68222860Y-56162218D01*
X68113371Y-56326079D01*
X68113364Y-56326092D01*
X68037950Y-56508160D01*
X68037947Y-56508170D01*
X67999500Y-56701456D01*
X67999500Y-56701459D01*
X67999500Y-57401459D01*
X67999500Y-58298541D01*
X67999500Y-58298543D01*
X67999499Y-58298543D01*
X68037947Y-58491829D01*
X68037949Y-58491835D01*
X68113364Y-58673907D01*
X68113371Y-58673920D01*
X68222860Y-58837781D01*
X68222863Y-58837785D01*
X68362214Y-58977136D01*
X68362218Y-58977139D01*
X68526079Y-59086628D01*
X68526092Y-59086635D01*
X68611226Y-59121898D01*
X68708165Y-59162051D01*
X68899691Y-59200148D01*
X68961602Y-59232533D01*
X68996176Y-59293248D01*
X68999500Y-59321765D01*
X68999500Y-61785218D01*
X68979815Y-61852257D01*
X68927011Y-61898012D01*
X68857853Y-61907956D01*
X68794297Y-61878931D01*
X68787819Y-61872899D01*
X65536819Y-58621899D01*
X65503334Y-58560576D01*
X65500500Y-58534218D01*
X65500500Y-57481456D01*
X65488844Y-57422860D01*
X65476781Y-57362218D01*
X65462051Y-57288164D01*
X65427716Y-57205273D01*
X65426003Y-57199715D01*
X65425875Y-57190209D01*
X65420500Y-57163186D01*
X65420500Y-55667133D01*
X78549500Y-55667133D01*
X78549500Y-56332866D01*
X78583245Y-56545922D01*
X78583246Y-56545926D01*
X78649908Y-56751089D01*
X78747843Y-56943299D01*
X78869816Y-57111180D01*
X78893296Y-57176986D01*
X78877471Y-57245039D01*
X78875038Y-57249160D01*
X78861965Y-57270356D01*
X78840186Y-57305666D01*
X78785001Y-57472203D01*
X78785001Y-57472204D01*
X78785000Y-57472204D01*
X78774500Y-57574983D01*
X78774500Y-58350001D01*
X78774501Y-58350019D01*
X78785000Y-58452796D01*
X78785001Y-58452799D01*
X78811981Y-58534218D01*
X78840186Y-58619334D01*
X78932288Y-58768656D01*
X79056344Y-58892712D01*
X79205666Y-58984814D01*
X79372203Y-59039999D01*
X79474991Y-59050500D01*
X80525008Y-59050499D01*
X80525016Y-59050498D01*
X80525019Y-59050498D01*
X80581302Y-59044748D01*
X80627797Y-59039999D01*
X80794334Y-58984814D01*
X80943656Y-58892712D01*
X81067712Y-58768656D01*
X81159814Y-58619334D01*
X81214999Y-58452797D01*
X81225500Y-58350009D01*
X81225499Y-57574992D01*
X81224635Y-57566537D01*
X81214999Y-57472203D01*
X81214998Y-57472200D01*
X81198649Y-57422863D01*
X81159814Y-57305666D01*
X81067712Y-57156344D01*
X81067106Y-57155738D01*
X81066823Y-57155220D01*
X81063234Y-57150681D01*
X81064009Y-57150067D01*
X81050786Y-57125850D01*
X81034010Y-57096144D01*
X81034062Y-57095223D01*
X81033621Y-57094415D01*
X81036053Y-57060404D01*
X81037998Y-57026388D01*
X81038562Y-57025318D01*
X81038605Y-57024723D01*
X81054465Y-56995175D01*
X81089683Y-56946703D01*
X81145010Y-56904040D01*
X81214623Y-56898061D01*
X81276419Y-56930666D01*
X81290317Y-56946705D01*
X81290318Y-56946706D01*
X81414641Y-57117821D01*
X81567179Y-57270359D01*
X81741701Y-57397157D01*
X81933911Y-57495092D01*
X82139074Y-57561754D01*
X82218973Y-57574408D01*
X82352134Y-57595500D01*
X82352139Y-57595500D01*
X82567866Y-57595500D01*
X82697350Y-57574991D01*
X82780926Y-57561754D01*
X82986089Y-57495092D01*
X83178299Y-57397157D01*
X83352821Y-57270359D01*
X83505359Y-57117821D01*
X83632157Y-56943299D01*
X83730092Y-56751089D01*
X83796754Y-56545926D01*
X83811752Y-56451230D01*
X83830500Y-56332866D01*
X83830500Y-55667133D01*
X83796754Y-55454077D01*
X83796754Y-55454074D01*
X83730092Y-55248911D01*
X83632157Y-55056701D01*
X83505359Y-54882179D01*
X83352821Y-54729641D01*
X83178299Y-54602843D01*
X82986089Y-54504908D01*
X82780926Y-54438246D01*
X82780924Y-54438245D01*
X82780922Y-54438245D01*
X82567866Y-54404500D01*
X82567861Y-54404500D01*
X82352139Y-54404500D01*
X82352134Y-54404500D01*
X82139077Y-54438245D01*
X81933908Y-54504909D01*
X81741700Y-54602843D01*
X81727210Y-54613371D01*
X81567179Y-54729641D01*
X81567177Y-54729643D01*
X81567176Y-54729643D01*
X81414643Y-54882176D01*
X81414643Y-54882177D01*
X81414641Y-54882179D01*
X81409982Y-54888592D01*
X81290318Y-55053294D01*
X81234988Y-55095959D01*
X81165374Y-55101938D01*
X81103579Y-55069332D01*
X81089682Y-55053294D01*
X81067435Y-55022674D01*
X80965359Y-54882179D01*
X80812821Y-54729641D01*
X80638299Y-54602843D01*
X80446089Y-54504908D01*
X80240926Y-54438246D01*
X80240924Y-54438245D01*
X80240922Y-54438245D01*
X80027866Y-54404500D01*
X80027861Y-54404500D01*
X79812139Y-54404500D01*
X79812134Y-54404500D01*
X79599077Y-54438245D01*
X79393908Y-54504909D01*
X79201700Y-54602843D01*
X79187210Y-54613371D01*
X79027179Y-54729641D01*
X79027177Y-54729643D01*
X79027176Y-54729643D01*
X78874643Y-54882176D01*
X78874643Y-54882177D01*
X78874641Y-54882179D01*
X78869982Y-54888592D01*
X78747843Y-55056700D01*
X78649909Y-55248908D01*
X78583245Y-55454077D01*
X78549500Y-55667133D01*
X65420500Y-55667133D01*
X65420500Y-55401456D01*
X65382052Y-55208170D01*
X65382051Y-55208169D01*
X65382051Y-55208165D01*
X65335574Y-55095959D01*
X65306635Y-55026092D01*
X65306628Y-55026079D01*
X65197139Y-54862218D01*
X65197136Y-54862214D01*
X65057785Y-54722863D01*
X65057781Y-54722860D01*
X64893920Y-54613371D01*
X64893907Y-54613364D01*
X64711839Y-54537950D01*
X64711829Y-54537947D01*
X64518543Y-54499500D01*
X64518541Y-54499500D01*
X64321459Y-54499500D01*
X64321457Y-54499500D01*
X64128170Y-54537947D01*
X64128160Y-54537950D01*
X63946092Y-54613364D01*
X63946079Y-54613371D01*
X63782218Y-54722860D01*
X63782214Y-54722863D01*
X63642863Y-54862214D01*
X63642860Y-54862218D01*
X63533371Y-55026079D01*
X63533364Y-55026092D01*
X63457950Y-55208160D01*
X63457947Y-55208170D01*
X63419500Y-55401456D01*
X53538000Y-55401456D01*
X53538000Y-55263956D01*
X53499552Y-55070670D01*
X53499551Y-55070669D01*
X53499551Y-55070665D01*
X53492356Y-55053294D01*
X53424135Y-54888592D01*
X53424128Y-54888579D01*
X53314639Y-54724718D01*
X53314636Y-54724714D01*
X53175285Y-54585363D01*
X53175281Y-54585360D01*
X53011420Y-54475871D01*
X53011407Y-54475864D01*
X52829339Y-54400450D01*
X52829329Y-54400447D01*
X52636043Y-54362000D01*
X52636041Y-54362000D01*
X52438959Y-54362000D01*
X52438957Y-54362000D01*
X52245670Y-54400447D01*
X52245660Y-54400450D01*
X52063592Y-54475864D01*
X52063579Y-54475871D01*
X51899718Y-54585360D01*
X51899714Y-54585363D01*
X51760363Y-54724714D01*
X51760360Y-54724718D01*
X51650871Y-54888579D01*
X51650864Y-54888592D01*
X51575450Y-55070660D01*
X51575447Y-55070670D01*
X51537000Y-55263956D01*
X51537000Y-55700723D01*
X51534827Y-55722773D01*
X51534761Y-55724181D01*
X51534698Y-55724503D01*
X51499500Y-55901459D01*
X29500500Y-55901459D01*
X29500500Y-50624500D01*
X29520185Y-50557461D01*
X29572989Y-50511706D01*
X29624500Y-50500500D01*
X92875500Y-50500500D01*
X92942539Y-50520185D01*
G37*
%TD.AperFunction*%
%TD*%
M02*
